<?xml version="1.0" standalone="no"?>
<!DOCTYPE svg PUBLIC "-//W3C//DTD SVG 20010904//EN"
 "http://www.w3.org/TR/2001/REC-SVG-20010904/DTD/svg10.dtd">
<svg version="1.0" xmlns="http://www.w3.org/2000/svg"
 width="135.000000pt" height="135.000000pt" viewBox="0 0 135.000000 135.000000"
 preserveAspectRatio="xMidYMid meet">
<metadata>
Created by potrace 1.16, written by Peter Selinger 2001-2019
</metadata>
<g transform="translate(0.000000,135.000000) scale(0.100000,-0.100000)"
fill="#000000" stroke="none">
<path d="M531 1060 c-20 -12 9 -27 67 -34 42 -5 52 -4 52 8 0 10 -14 17 -37
21 -21 3 -45 8 -54 9 -9 2 -22 0 -28 -4z"/>
<path d="M877 1043 c-2 -5 0 -71 4 -148 4 -77 5 -150 3 -161 -6 -22 -38 -34
-95 -34 -20 0 -29 -5 -29 -16 0 -14 10 -16 60 -12 l60 4 0 -33 c0 -22 5 -33
14 -33 26 0 34 321 10 417 -6 23 -19 30 -27 16z"/>
<path d="M585 989 c-85 -11 -98 -16 -89 -30 4 -8 28 -9 73 -5 108 11 130 16
124 32 -6 15 -7 15 -108 3z"/>
<path d="M561 901 c-46 -46 -34 -106 23 -117 44 -8 88 13 100 49 22 63 -75
116 -123 68z m85 -32 c19 -21 18 -21 -5 -40 -28 -23 -41 -24 -66 -5 -18 13
-18 15 -2 40 21 31 47 33 73 5z"/>
<path d="M610 753 c-146 -18 -154 -19 -144 -34 5 -8 32 -10 90 -5 l83 6 3 -62
c2 -38 8 -63 16 -66 9 -3 12 15 12 66 l0 69 61 7 c71 8 91 15 83 27 -7 11 -49
10 -204 -8z"/>
<path d="M824 543 c-3 -10 -17 -49 -32 -88 l-26 -70 -13 69 c-13 74 -37 114
-48 84 -4 -9 -1 -26 5 -38 6 -12 10 -23 8 -25 -2 -2 -30 -5 -63 -6 l-60 -3 -5
32 c-9 60 -25 29 -23 -43 5 -122 0 -117 96 -109 45 3 86 10 91 14 5 5 14 6 22
3 8 -3 21 14 35 46 12 28 27 51 34 51 7 0 32 -11 56 -24 63 -34 89 -41 89 -22
0 8 -30 28 -70 47 -66 31 -70 35 -70 66 0 35 -17 45 -26 16z m-94 -132 c0 -28
-3 -31 -34 -31 -18 0 -48 -3 -65 -6 -30 -6 -31 -5 -31 27 l0 34 65 3 65 3 0
-30z"/>
</g>
</svg>
