<?xml version="1.0" standalone="no"?>
<!DOCTYPE svg PUBLIC "-//W3C//DTD SVG 20010904//EN"
 "http://www.w3.org/TR/2001/REC-SVG-20010904/DTD/svg10.dtd">
<svg version="1.0" xmlns="http://www.w3.org/2000/svg"
 width="135.000000pt" height="135.000000pt" viewBox="0 0 135.000000 135.000000"
 preserveAspectRatio="xMidYMid meet">
<metadata>
Created by potrace 1.16, written by Peter Selinger 2001-2019
</metadata>
<g transform="translate(0.000000,135.000000) scale(0.100000,-0.100000)"
fill="#000000" stroke="none">
<path d="M635 1054 c-49 -7 -105 -16 -122 -19 l-33 -6 0 -98 c0 -133 5 -139
89 -105 53 21 68 24 84 15 23 -15 170 7 164 23 -4 13 -69 14 -109 3 -33 -9
-38 4 -41 98 l-2 60 63 8 c43 6 62 13 62 23 0 17 -32 17 -155 -2z m-5 -58 c0
-13 3 -43 6 -67 l6 -44 -61 -21 c-71 -25 -71 -25 -71 76 l0 69 48 4 c26 2 53
4 60 5 6 1 12 -8 12 -22z"/>
<path d="M845 775 c-12 -5 -227 -26 -350 -34 -71 -5 -90 -9 -90 -21 0 -12 15
-15 80 -15 44 0 83 -4 87 -10 4 -5 8 -22 8 -36 0 -27 24 -57 33 -42 3 5 1 28
-3 53 -5 25 -7 47 -5 48 2 2 31 6 64 9 61 6 61 6 61 -21 0 -41 28 -102 41 -89
7 7 6 26 -5 61 l-15 51 32 5 c118 18 138 22 140 31 2 10 -59 18 -78 10z"/>
<path d="M651 513 c-11 -21 -40 -64 -65 -97 -41 -53 -50 -76 -27 -76 7 0 69
75 102 123 4 5 17 2 30 -6 39 -25 220 -89 235 -83 28 11 12 22 -69 49 -45 16
-102 39 -127 51 -39 19 -45 27 -42 49 5 39 -14 33 -37 -10z"/>
</g>
</svg>
