<?xml version="1.0" standalone="no"?>
<!DOCTYPE svg PUBLIC "-//W3C//DTD SVG 20010904//EN"
 "http://www.w3.org/TR/2001/REC-SVG-20010904/DTD/svg10.dtd">
<svg version="1.0" xmlns="http://www.w3.org/2000/svg"
 width="135.000000pt" height="135.000000pt" viewBox="0 0 135.000000 135.000000"
 preserveAspectRatio="xMidYMid meet">
<metadata>
Created by potrace 1.16, written by Peter Selinger 2001-2019
</metadata>
<g transform="translate(0.000000,135.000000) scale(0.100000,-0.100000)"
fill="#000000" stroke="none">
<path d="M2 708 l-2 -648 675 0 c593 0 675 2 675 15 0 13 -81 15 -670 15
l-670 0 0 75 c0 68 2 75 20 75 11 0 20 5 20 10 0 6 -9 10 -20 10 -19 0 -20 7
-20 110 l0 110 25 0 c14 0 25 5 25 10 0 6 -11 10 -25 10 l-25 0 0 159 c0 158
0 160 23 164 l22 4 -22 2 c-22 1 -23 5 -23 96 0 95 0 95 25 95 14 0 25 5 25
10 0 6 -11 10 -25 10 l-24 0 -4 158 c-1 86 -4 -134 -5 -490z"/>
<path d="M675 1269 c-132 -11 -240 -32 -234 -44 2 -6 30 -9 62 -7 65 3 63 10
50 -120 -5 -62 -8 -68 -28 -68 -35 0 -86 -21 -82 -34 2 -6 13 -10 23 -8 18 3
139 19 322 43 45 6 85 15 87 20 9 14 -37 20 -90 11 l-50 -8 3 80 c2 45 5 86 7
93 2 6 22 15 45 20 23 4 42 13 43 18 3 13 -38 14 -158 4z m34 -123 l-1 -94
-60 -6 c-33 -4 -62 -5 -64 -3 -3 3 -1 44 3 93 l8 89 45 6 c25 3 51 7 58 7 10
2 12 -20 11 -92z"/>
<path d="M1295 1030 c3 -5 17 -10 31 -10 13 0 24 5 24 10 0 6 -14 10 -31 10
-17 0 -28 -4 -24 -10z"/>
<path d="M629 913 c-1 -21 -1 -46 0 -55 2 -14 -6 -18 -36 -19 -59 -1 -163 -23
-160 -34 2 -12 41 -11 172 3 55 6 141 12 190 13 103 2 151 10 144 24 -2 6 -56
9 -141 6 l-137 -3 -3 48 c-4 59 -27 73 -29 17z"/>
<path d="M1318 823 c6 -2 18 -2 25 0 6 3 1 5 -13 5 -14 0 -19 -2 -12 -5z"/>
<path d="M720 714 c-8 -2 -62 -8 -120 -12 l-105 -7 -3 -86 c-2 -48 2 -106 8
-129 l11 -42 67 5 c217 16 324 25 327 29 2 2 1 9 -3 15 -7 10 -127 5 -318 -14
-51 -5 -51 -5 -58 27 -8 41 -8 98 0 137 l6 30 106 8 c141 9 197 18 197 30 0
10 -87 17 -115 9z"/>
<path d="M1295 490 c3 -5 17 -10 31 -10 13 0 24 5 24 10 0 6 -14 10 -31 10
-17 0 -28 -4 -24 -10z"/>
<path d="M1310 250 c0 -5 9 -10 20 -10 11 0 20 5 20 10 0 6 -9 10 -20 10 -11
0 -20 -4 -20 -10z"/>
</g>
</svg>
