<?xml version="1.0" standalone="no"?>
<!DOCTYPE svg PUBLIC "-//W3C//DTD SVG 20010904//EN"
 "http://www.w3.org/TR/2001/REC-SVG-20010904/DTD/svg10.dtd">
<svg version="1.0" xmlns="http://www.w3.org/2000/svg"
 width="135.000000pt" height="135.000000pt" viewBox="0 0 135.000000 135.000000"
 preserveAspectRatio="xMidYMid meet">
<metadata>
Created by potrace 1.16, written by Peter Selinger 2001-2019
</metadata>
<g transform="translate(0.000000,135.000000) scale(0.100000,-0.100000)"
fill="#000000" stroke="none">
<path d="M3 675 c0 -374 1 -672 4 -663 4 17 45 18 674 18 439 0 669 3 669 10
0 7 -230 10 -670 10 l-670 0 0 75 c0 68 2 75 20 75 11 0 20 5 20 10 0 6 -9 10
-20 10 -19 0 -20 7 -20 105 l0 105 25 0 c14 0 25 5 25 10 0 6 -11 10 -25 10
l-25 0 0 160 c0 153 1 160 20 160 11 0 20 5 20 10 0 6 -9 10 -20 10 -19 0 -20
7 -20 90 0 89 0 90 25 90 14 0 25 5 25 10 0 6 -11 10 -25 10 l-25 0 -3 183
c-1 100 -3 -124 -4 -498z"/>
<path d="M615 1139 c-22 -4 -57 -8 -78 -8 -26 -1 -37 -5 -34 -13 4 -15 80 -16
171 -3 52 7 61 6 72 -10 17 -24 18 -71 2 -82 -7 -4 -62 -12 -123 -18 l-110
-10 3 -55 c6 -100 11 -104 132 -102 90 2 127 9 133 26 4 10 -21 12 -111 12
l-117 -1 -3 48 -3 47 48 0 c80 0 167 18 181 37 19 26 10 112 -14 130 -19 14
-86 15 -149 2z"/>
<path d="M1295 980 c3 -5 17 -10 31 -10 13 0 24 5 24 10 0 6 -14 10 -31 10
-17 0 -28 -4 -24 -10z"/>
<path d="M820 774 c-58 -7 -169 -16 -248 -20 -96 -5 -141 -11 -139 -18 7 -22
360 -7 495 20 22 4 27 26 6 30 -5 1 -56 -4 -114 -12z"/>
<path d="M1310 780 c0 -5 9 -10 20 -10 11 0 20 5 20 10 0 6 -9 10 -20 10 -11
0 -20 -4 -20 -10z"/>
<path d="M674 658 c4 -34 10 -66 13 -71 12 -19 27 16 25 56 -4 59 -11 77 -29
77 -13 0 -15 -9 -9 -62z"/>
<path d="M690 543 c-120 -3 -153 -9 -148 -25 3 -9 42 -11 136 -9 l132 3 0 -36
0 -36 -102 6 c-103 5 -138 -2 -123 -26 5 -7 19 -10 38 -6 17 3 66 3 109 0 l79
-7 -6 -28 c-4 -16 -2 -36 4 -46 9 -16 11 -15 20 10 12 32 15 166 3 183 -11 17
-31 19 -142 17z"/>
<path d="M1295 440 c3 -5 17 -10 31 -10 13 0 24 5 24 10 0 6 -14 10 -31 10
-17 0 -28 -4 -24 -10z"/>
<path d="M1310 210 c0 -5 9 -10 20 -10 11 0 20 5 20 10 0 6 -9 10 -20 10 -11
0 -20 -4 -20 -10z"/>
</g>
</svg>
