<?xml version="1.0" standalone="no"?>
<!DOCTYPE svg PUBLIC "-//W3C//DTD SVG 20010904//EN"
 "http://www.w3.org/TR/2001/REC-SVG-20010904/DTD/svg10.dtd">
<svg version="1.0" xmlns="http://www.w3.org/2000/svg"
 width="135.000000pt" height="135.000000pt" viewBox="0 0 135.000000 135.000000"
 preserveAspectRatio="xMidYMid meet">
<metadata>
Created by potrace 1.16, written by Peter Selinger 2001-2019
</metadata>
<g transform="translate(0.000000,135.000000) scale(0.100000,-0.100000)"
fill="#000000" stroke="none">
<path d="M0 675 c0 -443 3 -675 10 -675 6 0 10 11 10 25 l0 25 668 3 667 2
-667 3 -668 2 0 74 c0 68 2 74 23 81 l22 8 -22 4 c-22 4 -23 8 -23 114 l0 109
25 0 c14 0 25 5 25 10 0 6 -11 10 -25 10 l-25 0 0 159 c0 158 0 160 23 164
l22 4 -22 2 c-22 1 -23 5 -23 96 0 95 0 95 25 95 14 0 25 5 25 10 0 6 -11 10
-25 10 l-25 0 0 170 c0 107 -4 170 -10 170 -7 0 -10 -232 -10 -675z"/>
<path d="M854 1190 c-12 -12 -7 -404 6 -408 19 -7 23 4 21 56 l-2 52 33 2 c18
0 40 1 48 2 8 1 15 8 15 16 0 11 -12 15 -45 16 -39 0 -45 3 -48 24 -5 29 12
40 61 40 56 0 42 24 -16 28 l-47 3 0 77 c0 80 -9 109 -26 92z"/>
<path d="M480 1176 c0 -19 149 -72 175 -62 19 7 19 26 1 26 -8 0 -47 11 -88
25 -85 29 -88 29 -88 11z"/>
<path d="M563 1071 c-94 -15 -137 -31 -116 -44 4 -2 51 2 103 9 52 8 101 13
109 12 8 -2 -33 -46 -95 -102 -60 -55 -110 -106 -112 -113 -7 -27 22 -11 86
47 37 33 71 60 77 60 5 0 39 -20 74 -45 58 -41 81 -48 81 -25 0 4 -25 24 -55
44 -30 20 -57 41 -60 47 -4 5 12 30 34 54 73 80 60 86 -126 56z"/>
<path d="M1295 1000 c3 -5 17 -10 31 -10 13 0 24 5 24 10 0 6 -14 10 -31 10
-17 0 -28 -4 -24 -10z"/>
<path d="M1318 793 c6 -2 18 -2 25 0 6 3 1 5 -13 5 -14 0 -19 -2 -12 -5z"/>
<path d="M605 689 c-4 -6 -5 -13 -2 -16 3 -3 68 -4 144 -4 l138 2 -3 -122 c-3
-98 -1 -120 10 -117 16 6 30 236 15 256 -12 16 -292 17 -302 1z"/>
<path d="M1295 460 c3 -5 17 -10 31 -10 13 0 24 5 24 10 0 6 -14 10 -31 10
-17 0 -28 -4 -24 -10z"/>
<path d="M1310 220 c0 -5 9 -10 20 -10 11 0 20 5 20 10 0 6 -9 10 -20 10 -11
0 -20 -4 -20 -10z"/>
</g>
</svg>
