<?xml version="1.0" standalone="no"?>
<!DOCTYPE svg PUBLIC "-//W3C//DTD SVG 20010904//EN"
 "http://www.w3.org/TR/2001/REC-SVG-20010904/DTD/svg10.dtd">
<svg version="1.0" xmlns="http://www.w3.org/2000/svg"
 width="135.000000pt" height="135.000000pt" viewBox="0 0 135.000000 135.000000"
 preserveAspectRatio="xMidYMid meet">
<metadata>
Created by potrace 1.16, written by Peter Selinger 2001-2019
</metadata>
<g transform="translate(0.000000,135.000000) scale(0.100000,-0.100000)"
fill="#000000" stroke="none">
<path d="M0 675 c0 -443 3 -675 10 -675 6 0 10 9 10 20 0 20 7 20 665 20 437
0 665 3 665 10 0 7 -228 10 -665 10 l-665 0 0 74 c0 69 2 75 23 79 l22 4 -22
8 c-22 7 -23 12 -23 116 l0 109 25 0 c14 0 25 5 25 10 0 6 -11 10 -25 10 l-25
0 0 154 c0 150 0 154 23 161 l22 8 -23 4 c-21 4 -22 9 -22 94 0 88 0 89 25 89
14 0 25 5 25 10 0 6 -11 10 -25 10 l-25 0 0 175 c0 110 -4 175 -10 175 -7 0
-10 -232 -10 -675z"/>
<path d="M427 1133 c-19 -38 -51 -97 -71 -131 -34 -60 -38 -82 -16 -82 6 0 21
21 34 48 42 79 38 77 90 41 40 -26 47 -35 42 -55 -11 -42 13 -36 44 12 16 26
33 57 36 68 6 18 12 14 54 -34 36 -41 51 -52 65 -46 16 6 13 12 -26 54 -71 75
-71 74 -54 115 8 20 15 46 15 58 0 37 -22 15 -45 -47 -32 -86 -53 -124 -69
-124 -7 0 -30 15 -51 33 l-39 33 22 45 c24 50 27 65 13 74 -5 3 -25 -25 -44
-62z"/>
<path d="M966 1178 c-10 -32 -17 -548 -7 -548 5 0 12 4 15 9 6 8 20 356 21
485 0 39 -4 61 -12 63 -7 3 -15 -1 -17 -9z"/>
<path d="M865 1078 c-3 -18 -10 -84 -14 -146 -5 -62 -11 -115 -13 -118 -2 -2
-35 -7 -71 -11 -89 -10 -87 -28 3 -27 63 2 69 0 72 -20 2 -11 10 -21 18 -21
12 0 16 25 21 140 3 77 9 161 14 188 6 39 5 47 -8 47 -10 0 -18 -12 -22 -32z"/>
<path d="M1290 990 c0 -5 14 -10 30 -10 17 0 30 5 30 10 0 6 -13 10 -30 10
-16 0 -30 -4 -30 -10z"/>
<path d="M497 870 c-191 -6 -233 -23 -66 -28 l106 -3 7 -46 c3 -25 6 -61 6
-80 0 -23 4 -33 13 -31 8 3 13 31 15 80 l3 75 86 7 c47 3 89 9 94 12 21 12 -5
24 -49 22 -26 -1 -122 -5 -215 -8z"/>
<path d="M1305 790 c3 -5 15 -10 26 -10 10 0 19 5 19 10 0 6 -12 10 -26 10
-14 0 -23 -4 -19 -10z"/>
<path d="M826 578 c-65 -114 -120 -227 -114 -234 12 -12 29 8 63 77 20 38 38
69 41 69 3 0 36 -27 72 -60 72 -65 145 -101 164 -82 9 9 2 16 -26 27 -44 19
-125 81 -161 123 l-25 30 21 47 c33 76 8 78 -35 3z"/>
<path d="M536 611 c-22 -3 -42 -12 -44 -20 -4 -12 10 -13 82 -8 l86 7 0 -44 0
-44 -85 -3 c-88 -4 -112 -16 -99 -49 4 -8 10 -34 14 -58 4 -24 12 -48 17 -53
13 -13 179 2 175 16 -1 6 -36 10 -76 10 -41 0 -76 2 -79 5 -2 3 -7 26 -10 53
l-7 47 84 0 c67 0 85 3 90 16 10 27 6 110 -6 122 -12 12 -74 14 -142 3z"/>
<path d="M1290 460 c0 -5 14 -10 30 -10 17 0 30 5 30 10 0 6 -13 10 -30 10
-16 0 -30 -4 -30 -10z"/>
<path d="M1305 220 c-4 -6 5 -10 19 -10 14 0 26 5 26 10 0 6 -9 10 -19 10 -11
0 -23 -4 -26 -10z"/>
</g>
</svg>
