<?xml version="1.0" standalone="no"?>
<!DOCTYPE svg PUBLIC "-//W3C//DTD SVG 20010904//EN"
 "http://www.w3.org/TR/2001/REC-SVG-20010904/DTD/svg10.dtd">
<svg version="1.0" xmlns="http://www.w3.org/2000/svg"
 width="135.000000pt" height="135.000000pt" viewBox="0 0 135.000000 135.000000"
 preserveAspectRatio="xMidYMid meet">
<metadata>
Created by potrace 1.16, written by Peter Selinger 2001-2019
</metadata>
<g transform="translate(0.000000,135.000000) scale(0.100000,-0.100000)"
fill="#000000" stroke="none">
<path d="M2 708 l-2 -648 675 0 675 0 -2 648 c-1 356 -4 576 -5 490 l-4 -158
-24 0 c-14 0 -25 -4 -25 -10 0 -5 11 -10 25 -10 25 0 25 0 25 -94 0 -90 -1
-95 -22 -99 l-23 -4 23 -2 c22 -1 22 -2 22 -161 l0 -160 -25 0 c-14 0 -25 -4
-25 -10 0 -5 11 -10 25 -10 l25 0 0 -109 c0 -106 -1 -110 -22 -114 l-23 -4 23
-8 c20 -7 22 -13 22 -81 l0 -74 -665 0 -665 0 0 75 c0 68 2 75 20 75 11 0 20
5 20 10 0 6 -9 10 -20 10 -19 0 -20 7 -20 110 l0 110 25 0 c14 0 25 5 25 10 0
6 -11 10 -25 10 l-25 0 0 159 c0 158 0 160 23 164 l22 4 -22 2 c-22 1 -23 5
-23 96 0 95 0 95 25 95 14 0 25 5 25 10 0 6 -11 10 -25 10 l-24 0 -4 158 c-1
86 -4 -134 -5 -490z"/>
<path d="M877 1234 c-4 -4 -7 -88 -7 -186 0 -152 2 -178 15 -178 13 0 15 26
15 175 0 96 0 178 1 182 1 10 -16 15 -24 7z"/>
<path d="M780 1153 l0 -48 -51 -2 c-55 -2 -80 -16 -63 -33 7 -7 28 -5 62 4 52
13 53 13 50 -7 -2 -16 -14 -24 -45 -32 -45 -11 -71 -29 -55 -39 5 -3 24 -1 43
4 52 15 58 13 61 -27 2 -20 9 -38 16 -41 9 -3 12 28 12 132 0 114 -2 136 -15
136 -11 0 -15 -12 -15 -47z"/>
<path d="M448 1160 c-69 -10 -131 -21 -137 -25 -24 -14 2 -26 44 -19 l44 6 3
-111 c3 -102 1 -111 -15 -111 -24 0 -57 -18 -57 -31 0 -11 39 -7 185 21 63 12
90 21 90 31 0 10 -10 13 -33 11 l-33 -4 3 104 3 103 34 10 c41 12 54 36 19 34
-12 -1 -80 -9 -150 -19z m64 -129 l-3 -110 -29 -6 c-16 -4 -34 -4 -40 0 -11 7
-14 184 -2 202 4 6 23 13 42 16 19 2 35 5 35 5 0 1 -1 -47 -3 -107z"/>
<path d="M705 775 c-5 -2 -54 -7 -107 -10 -85 -6 -143 -23 -128 -38 3 -3 70 1
150 9 219 21 200 25 200 -47 0 -61 0 -61 -27 -56 -33 6 -239 -12 -270 -24 -19
-7 -23 -16 -23 -49 0 -51 27 -118 50 -125 11 -3 46 -1 80 5 33 6 118 10 187 9
86 -1 128 2 131 10 2 6 -7 15 -20 19 -25 9 -297 -1 -341 -13 -24 -6 -29 -4
-42 29 -23 54 -20 84 9 92 14 3 85 9 158 12 l133 7 6 80 c3 44 4 83 2 88 -4 7
-128 9 -148 2z"/>
</g>
</svg>
