<?xml version="1.0" standalone="no"?>
<!DOCTYPE svg PUBLIC "-//W3C//DTD SVG 20010904//EN"
 "http://www.w3.org/TR/2001/REC-SVG-20010904/DTD/svg10.dtd">
<svg version="1.0" xmlns="http://www.w3.org/2000/svg"
 width="135.000000pt" height="135.000000pt" viewBox="0 0 135.000000 135.000000"
 preserveAspectRatio="xMidYMid meet">
<metadata>
Created by potrace 1.16, written by Peter Selinger 2001-2019
</metadata>
<g transform="translate(0.000000,135.000000) scale(0.100000,-0.100000)"
fill="#000000" stroke="none">
<path d="M670 1093 c-58 -8 -127 -16 -155 -17 l-50 -2 -3 -99 c-1 -54 1 -102
7 -108 8 -8 269 14 349 31 43 9 37 27 -8 26 -40 -1 -239 -22 -287 -30 -31 -6
-33 -5 -33 23 0 17 3 50 6 75 l6 44 72 12 c39 7 103 15 141 18 78 7 115 18
115 34 0 12 -26 11 -160 -7z"/>
<path d="M745 749 c-88 -10 -205 -22 -260 -26 -79 -6 -100 -11 -100 -23 0 -18
33 -17 300 11 299 31 316 33 318 44 3 16 -88 14 -258 -6z"/>
<path d="M665 623 c-46 -3 -78 -10 -92 -21 -22 -17 -22 -20 -12 -112 18 -158
16 -155 74 -154 102 2 221 17 243 30 21 14 22 21 22 120 0 58 -5 114 -10 125
-11 20 -32 21 -225 12z m203 -130 c3 -117 13 -107 -108 -117 -36 -3 -84 -9
-107 -12 l-41 -6 -7 68 c-4 38 -11 88 -15 112 -7 38 -5 43 14 47 24 6 150 12
216 11 l45 -1 3 -102z"/>
</g>
</svg>
