<?xml version="1.0" standalone="no"?>
<!DOCTYPE svg PUBLIC "-//W3C//DTD SVG 20010904//EN"
 "http://www.w3.org/TR/2001/REC-SVG-20010904/DTD/svg10.dtd">
<svg version="1.0" xmlns="http://www.w3.org/2000/svg"
 width="135.000000pt" height="135.000000pt" viewBox="0 0 135.000000 135.000000"
 preserveAspectRatio="xMidYMid meet">
<metadata>
Created by potrace 1.16, written by Peter Selinger 2001-2019
</metadata>
<g transform="translate(0.000000,135.000000) scale(0.100000,-0.100000)"
fill="#000000" stroke="none">
<path d="M4 675 c-1 -374 1 -670 3 -657 l4 22 670 0 c439 0 669 3 669 10 0 7
-230 10 -670 10 l-670 0 0 75 c0 68 2 75 20 75 11 0 20 5 20 10 0 6 -9 10 -20
10 -19 0 -20 7 -20 110 l0 110 31 0 c17 0 28 4 24 10 -3 6 -17 10 -31 10 l-24
0 0 155 c0 148 1 155 20 155 11 0 20 5 20 10 0 6 -9 10 -20 10 -19 0 -20 7
-20 90 0 89 0 90 24 90 14 0 28 5 31 10 4 6 -6 10 -24 10 l-31 0 -3 178 c-1
97 -3 -129 -3 -503z"/>
<path d="M817 1214 c-10 -11 -8 -357 2 -373 19 -29 28 1 23 78 l-5 80 64 3
c53 2 64 6 67 22 4 16 -2 18 -60 15 l-63 -4 -3 85 c-3 81 -10 108 -25 94z"/>
<path d="M635 1152 c-11 -7 -39 -75 -73 -174 -9 -27 -19 -48 -23 -48 -12 0
-89 89 -89 104 0 7 7 30 15 49 17 41 19 67 6 67 -10 0 -131 -244 -131 -265 0
-35 27 -10 53 49 l29 63 56 -56 c31 -31 55 -61 54 -68 -4 -17 14 -25 26 -10 5
6 15 35 21 62 19 81 24 85 66 42 33 -34 65 -48 65 -29 0 5 -20 29 -44 56 l-44
47 15 44 c16 47 15 79 -2 67z"/>
<path d="M1300 990 c0 -5 11 -10 25 -10 14 0 25 5 25 10 0 6 -11 10 -25 10
-14 0 -25 -4 -25 -10z"/>
<path d="M1310 790 c0 -5 9 -10 20 -10 11 0 20 5 20 10 0 6 -9 10 -20 10 -11
0 -20 -4 -20 -10z"/>
<path d="M772 758 c-7 -7 -12 -19 -12 -27 -1 -9 -16 -52 -34 -96 -19 -44 -32
-83 -29 -87 10 -18 24 -5 44 42 12 28 23 50 25 50 2 0 12 -8 22 -17 11 -10 32
-26 48 -35 16 -10 36 -23 45 -29 9 -7 25 -9 35 -5 18 7 17 9 -6 27 -14 11 -41
28 -61 39 -52 27 -71 60 -59 101 11 36 1 56 -18 37z"/>
<path d="M467 743 c-18 -17 0 -23 74 -23 l81 0 -3 -112 c-3 -95 -1 -113 11
-113 12 0 16 21 18 114 2 75 -1 118 -9 127 -12 15 -159 21 -172 7z"/>
<path d="M1300 460 c0 -5 11 -10 25 -10 14 0 25 5 25 10 0 6 -11 10 -25 10
-14 0 -25 -4 -25 -10z"/>
<path d="M1310 220 c0 -5 9 -10 20 -10 11 0 20 5 20 10 0 6 -9 10 -20 10 -11
0 -20 -4 -20 -10z"/>
</g>
</svg>
