<?xml version="1.0" standalone="no"?>
<!DOCTYPE svg PUBLIC "-//W3C//DTD SVG 20010904//EN"
 "http://www.w3.org/TR/2001/REC-SVG-20010904/DTD/svg10.dtd">
<svg version="1.0" xmlns="http://www.w3.org/2000/svg"
 width="135.000000pt" height="135.000000pt" viewBox="0 0 135.000000 135.000000"
 preserveAspectRatio="xMidYMid meet">
<metadata>
Created by potrace 1.16, written by Peter Selinger 2001-2019
</metadata>
<g transform="translate(0.000000,135.000000) scale(0.100000,-0.100000)"
fill="#000000" stroke="none">
<path d="M2 708 l-2 -648 675 0 675 0 -2 648 c-1 356 -4 576 -5 490 l-4 -158
-30 0 c-18 0 -28 -4 -24 -10 3 -5 17 -10 31 -10 24 0 24 -1 24 -94 0 -90 -1
-95 -22 -99 l-23 -4 23 -2 c22 -1 22 -2 22 -161 l0 -160 -31 0 c-17 0 -28 -4
-24 -10 3 -5 17 -10 31 -10 24 0 24 0 24 -110 0 -103 -1 -110 -20 -110 -11 0
-20 -4 -20 -10 0 -5 9 -10 20 -10 18 0 20 -7 20 -75 l0 -75 -665 0 -665 0 0
74 c0 68 2 74 22 81 l23 8 -22 4 c-22 4 -23 8 -23 114 l0 109 25 0 c14 0 25 5
25 10 0 6 -11 10 -25 10 l-25 0 0 159 c0 158 0 160 23 164 l22 4 -22 2 c-22 1
-23 5 -23 96 0 95 0 95 25 95 14 0 25 5 25 10 0 6 -11 10 -25 10 l-24 0 -4
158 c-1 86 -4 -134 -5 -490z"/>
<path d="M852 1288 c-7 -7 -8 -16 -3 -22 5 -6 12 -25 15 -42 7 -30 5 -31 -31
-38 -21 -3 -98 -9 -170 -13 l-133 -6 0 34 c0 19 -4 41 -10 49 -16 25 -23 -14
-24 -129 l-1 -106 115 3 c140 3 258 18 278 34 20 17 12 212 -9 234 -12 11 -18
11 -27 2z m18 -172 c0 -42 -1 -44 -34 -50 -29 -6 -257 -25 -304 -26 -9 0 -12
13 -10 48 l3 47 140 7 c77 4 149 9 160 11 44 9 45 8 45 -37z"/>
<path d="M611 977 c-14 -17 -2 -112 14 -112 13 0 19 90 7 111 -7 13 -10 13
-21 1z"/>
<path d="M740 930 c0 -47 3 -60 15 -60 12 0 15 13 15 60 0 47 -3 60 -15 60
-12 0 -15 -13 -15 -60z"/>
<path d="M655 850 c-138 -9 -257 -20 -264 -24 -25 -16 12 -26 74 -20 33 3 173
11 310 17 194 9 250 15 250 25 0 19 -81 20 -370 2z"/>
<path d="M793 743 c-50 -3 -73 -8 -77 -18 -5 -13 15 -15 124 -15 117 0 158 8
130 25 -14 9 -95 13 -177 8z"/>
<path d="M537 731 c-41 -9 -65 -25 -49 -35 5 -3 36 -1 68 4 104 17 104 17 104
-40 l0 -49 -82 -3 -83 -3 2 -64 c3 -118 17 -133 94 -106 24 9 55 14 69 13 17
-2 25 2 25 12 0 21 -48 24 -101 6 -51 -17 -49 -19 -58 61 l-7 52 83 3 83 3 0
75 0 75 -55 2 c-30 0 -72 -2 -93 -6z"/>
<path d="M798 623 c-1 -38 -2 -85 -2 -105 1 -34 -2 -37 -33 -43 -18 -3 -33
-12 -33 -19 0 -9 33 -11 148 -8 81 2 151 8 156 12 20 19 -7 29 -67 23 l-62 -5
3 107 c3 86 1 106 -10 103 -9 -3 -14 -26 -15 -74 -4 -107 -11 -134 -33 -134
-23 0 -24 5 -20 123 2 74 0 87 -14 87 -13 0 -16 -13 -18 -67z"/>
</g>
</svg>
