<?xml version="1.0" standalone="no"?>
<!DOCTYPE svg PUBLIC "-//W3C//DTD SVG 20010904//EN"
 "http://www.w3.org/TR/2001/REC-SVG-20010904/DTD/svg10.dtd">
<svg version="1.0" xmlns="http://www.w3.org/2000/svg"
 width="135.000000pt" height="135.000000pt" viewBox="0 0 135.000000 135.000000"
 preserveAspectRatio="xMidYMid meet">
<metadata>
Created by potrace 1.16, written by Peter Selinger 2001-2019
</metadata>
<g transform="translate(0.000000,135.000000) scale(0.100000,-0.100000)"
fill="#000000" stroke="none">
<path d="M0 675 c0 -443 3 -675 10 -675 6 0 10 18 10 40 l0 40 668 3 667 2
-667 3 -668 2 0 74 c0 68 2 74 23 81 l22 8 -23 4 c-21 4 -22 8 -22 114 l0 109
25 0 c14 0 25 5 25 10 0 6 -11 10 -25 10 l-25 0 0 159 c0 158 0 160 23 164
l22 4 -22 2 c-22 1 -23 5 -23 95 l0 95 28 4 27 4 -27 2 -28 1 0 160 c0 100 -4
160 -10 160 -7 0 -10 -232 -10 -675z"/>
<path d="M827 1193 c-4 -3 -7 -20 -7 -37 0 -17 -3 -48 -6 -68 l-6 -37 -77 -3
c-59 -2 -76 -6 -76 -18 0 -12 14 -14 78 -11 l77 3 0 -111 c0 -67 4 -112 11
-116 6 -4 12 -5 13 -4 7 9 14 409 7 409 -4 0 -11 -3 -14 -7z"/>
<path d="M489 1165 c-3 -2 -41 -6 -84 -8 l-79 -4 3 -117 c1 -65 8 -134 15
-154 15 -43 15 -43 196 -23 113 13 150 24 117 36 -15 7 -213 -10 -253 -21 -17
-5 -24 1 -33 27 -16 46 -15 219 2 219 64 3 208 18 213 23 14 14 -10 27 -50 27
-23 0 -45 -2 -47 -5z"/>
<path d="M1303 1023 c9 -2 25 -2 35 0 9 3 1 5 -18 5 -19 0 -27 -2 -17 -5z"/>
<path d="M1313 823 c9 -2 23 -2 30 0 6 3 -1 5 -18 5 -16 0 -22 -2 -12 -5z"/>
<path d="M682 748 c2 -6 26 -17 54 -24 63 -17 64 -17 64 0 0 8 -14 19 -31 25
-42 15 -92 14 -87 -1z"/>
<path d="M456 731 c-22 -3 -41 -12 -44 -19 -3 -11 13 -13 79 -10 l84 3 3 -42
3 -43 -69 0 c-97 0 -107 -9 -99 -95 4 -38 10 -72 15 -77 11 -11 198 5 194 17
-1 6 -39 10 -87 10 l-84 0 -6 48 c-4 27 -3 53 1 57 5 5 43 10 84 12 l75 3 3
58 c2 35 -2 64 -9 73 -12 15 -69 17 -143 5z"/>
<path d="M665 670 c-13 -21 5 -25 89 -22 66 3 86 7 86 18 0 11 -18 14 -84 14
-47 0 -88 -4 -91 -10z"/>
<path d="M710 589 c-64 -14 -79 -68 -32 -119 17 -19 40 -33 63 -36 30 -5 41
-1 72 26 42 37 49 76 18 104 -26 23 -78 34 -121 25z m91 -39 c25 -14 24 -33
-5 -66 -21 -25 -27 -27 -57 -18 -20 6 -40 21 -49 37 -14 26 -14 29 4 43 23 16
79 19 107 4z"/>
<path d="M1290 490 c0 -5 14 -10 30 -10 17 0 30 5 30 10 0 6 -13 10 -30 10
-16 0 -30 -4 -30 -10z"/>
<path d="M1305 250 c3 -5 15 -10 26 -10 10 0 19 5 19 10 0 6 -12 10 -26 10
-14 0 -23 -4 -19 -10z"/>
</g>
</svg>
