<?xml version="1.0" standalone="no"?>
<!DOCTYPE svg PUBLIC "-//W3C//DTD SVG 20010904//EN"
 "http://www.w3.org/TR/2001/REC-SVG-20010904/DTD/svg10.dtd">
<svg version="1.0" xmlns="http://www.w3.org/2000/svg"
 width="135.000000pt" height="135.000000pt" viewBox="0 0 135.000000 135.000000"
 preserveAspectRatio="xMidYMid meet">
<metadata>
Created by potrace 1.16, written by Peter Selinger 2001-2019
</metadata>
<g transform="translate(0.000000,135.000000) scale(0.100000,-0.100000)"
fill="#000000" stroke="none">
<path d="M685 1034 c-16 -2 -81 -9 -142 -15 -84 -8 -113 -15 -113 -25 0 -17
10 -17 185 1 77 8 146 15 153 15 9 0 12 -13 10 -42 -3 -41 -4 -43 -38 -46 -83
-6 -245 -33 -254 -42 -19 -19 23 -21 127 -6 139 21 164 21 172 -3 3 -10 3 -25
0 -34 -9 -21 10 -30 25 -12 10 12 11 38 4 113 l-9 97 -45 1 c-25 1 -58 0 -75
-2z"/>
<path d="M607 803 c-4 -3 -7 -29 -7 -58 l0 -51 -120 -13 c-112 -12 -142 -23
-105 -38 9 -3 59 0 113 7 53 7 177 16 275 19 227 8 242 25 25 29 l-158 3 0 54
c0 51 -7 65 -23 48z"/>
<path d="M710 610 c0 -6 18 -19 41 -29 37 -17 38 -19 17 -25 -13 -3 -35 -6
-49 -6 -15 0 -33 -7 -40 -17 -13 -15 -7 -16 76 -9 49 4 93 10 97 12 15 9 -3
24 -27 24 -17 0 -23 4 -19 14 4 10 -6 20 -31 30 -44 19 -65 20 -65 6z"/>
<path d="M467 573 c-10 -18 -17 -170 -9 -198 7 -25 13 -30 38 -28 16 2 55 4
87 5 37 2 57 7 57 15 0 19 -49 27 -102 16 -55 -11 -51 -21 -48 114 1 62 -10
99 -23 76z"/>
<path d="M731 455 c-36 -42 -39 -76 -9 -105 27 -25 54 -25 96 0 26 16 32 26
32 52 0 39 -6 48 -42 71 -37 23 -41 22 -77 -18z m84 -45 c0 -16 -9 -29 -27
-40 -25 -13 -29 -13 -45 2 -14 14 -15 22 -5 43 10 22 18 26 45 23 27 -2 32 -7
32 -28z"/>
<path d="M493 3 c65 -2 168 -2 230 0 62 1 9 3 -118 3 -126 0 -177 -2 -112 -3z"/>
</g>
</svg>
