<?xml version="1.0" standalone="no"?>
<!DOCTYPE svg PUBLIC "-//W3C//DTD SVG 20010904//EN"
 "http://www.w3.org/TR/2001/REC-SVG-20010904/DTD/svg10.dtd">
<svg version="1.0" xmlns="http://www.w3.org/2000/svg"
 width="135.000000pt" height="135.000000pt" viewBox="0 0 135.000000 135.000000"
 preserveAspectRatio="xMidYMid meet">
<metadata>
Created by potrace 1.16, written by Peter Selinger 2001-2019
</metadata>
<g transform="translate(0.000000,135.000000) scale(0.100000,-0.100000)"
fill="#000000" stroke="none">
<path d="M917 1114 c-4 -4 -7 -85 -7 -180 0 -195 9 -178 -93 -190 -31 -3 -60
-10 -63 -15 -10 -17 26 -21 91 -12 l65 9 0 -63 c0 -58 10 -78 25 -53 10 16 6
493 -3 502 -5 5 -11 5 -15 2z"/>
<path d="M491 995 c-23 -58 -39 -110 -36 -116 10 -16 33 8 40 42 4 16 8 29 9
29 2 0 23 -11 47 -23 37 -20 44 -28 41 -50 -6 -50 25 -31 43 26 10 28 21 56
25 60 4 5 28 -6 54 -24 32 -23 49 -30 57 -22 7 7 -5 21 -41 48 -37 27 -49 42
-45 54 14 35 16 69 6 75 -6 4 -15 -4 -21 -21 -6 -15 -21 -52 -33 -81 -20 -47
-24 -52 -47 -47 -14 4 -34 15 -45 26 -19 18 -19 20 -2 65 16 44 15 64 -2 64
-5 0 -27 -47 -50 -105z"/>
<path d="M615 804 c-165 -16 -179 -19 -169 -35 4 -8 32 -9 88 -4 l82 6 10 -73
c7 -54 13 -73 24 -73 11 0 14 9 11 35 -3 19 -5 53 -5 75 l-1 40 73 6 c83 8
106 15 97 29 -7 12 -16 12 -210 -6z"/>
<path d="M797 561 c-58 -6 -78 -23 -34 -29 20 -3 25 -10 30 -46 4 -24 4 -66 0
-94 -4 -40 -10 -51 -27 -56 -13 -3 -17 -9 -11 -15 6 -5 59 -6 125 -2 93 5 115
9 115 21 0 15 -5 17 -58 19 l-27 1 1 89 c1 89 1 90 27 93 14 2 27 9 30 16 4
13 -59 14 -171 3z m83 -106 c0 -40 -3 -80 -6 -89 -6 -16 -43 -23 -45 -8 0 4
-2 44 -3 89 -2 76 0 82 19 86 32 5 35 0 35 -78z"/>
<path d="M588 547 c-37 -6 -58 -15 -58 -24 0 -16 37 -17 99 -2 86 20 79 -33
-8 -57 -103 -28 -101 -26 -101 -91 0 -79 7 -87 65 -78 62 9 95 22 95 36 0 11
-46 8 -108 -8 -22 -5 -23 -3 -20 42 l3 48 65 18 c68 18 100 45 100 83 0 46
-24 52 -132 33z"/>
</g>
</svg>
