<?xml version="1.0" standalone="no"?>
<!DOCTYPE svg PUBLIC "-//W3C//DTD SVG 20010904//EN"
 "http://www.w3.org/TR/2001/REC-SVG-20010904/DTD/svg10.dtd">
<svg version="1.0" xmlns="http://www.w3.org/2000/svg"
 width="135.000000pt" height="135.000000pt" viewBox="0 0 135.000000 135.000000"
 preserveAspectRatio="xMidYMid meet">
<metadata>
Created by potrace 1.16, written by Peter Selinger 2001-2019
</metadata>
<g transform="translate(0.000000,135.000000) scale(0.100000,-0.100000)"
fill="#000000" stroke="none">
<path d="M4 675 c-1 -374 1 -668 3 -653 l4 28 672 3 672 2 -672 3 -673 2 0 75
c0 68 2 75 20 75 11 0 20 5 20 10 0 6 -9 10 -20 10 -19 0 -20 7 -20 110 0 110
0 110 24 110 14 0 28 5 31 10 4 6 -7 10 -24 10 l-31 0 0 159 c0 158 0 160 23
164 l22 4 -22 2 c-22 1 -23 5 -23 96 0 94 0 95 24 95 14 0 28 5 31 10 4 6 -6
10 -24 10 l-31 0 -3 173 c-1 94 -3 -134 -3 -508z"/>
<path d="M1027 1194 c-9 -9 -7 -451 1 -482 4 -13 11 -22 17 -20 11 4 7 489 -4
501 -4 4 -10 4 -14 1z"/>
<path d="M560 1141 c-70 -9 -43 -26 42 -26 50 1 74 -3 70 -10 -94 -155 -101
-159 -169 -100 l-38 33 18 30 c9 17 17 40 17 52 0 23 -1 23 -102 16 -101 -7
-132 -17 -113 -35 6 -5 41 -5 84 1 41 5 81 7 89 6 9 -2 -3 -27 -41 -78 -71
-98 -82 -119 -68 -133 6 -6 12 -9 14 -6 1 2 19 30 40 61 l37 58 48 -35 c26
-19 57 -44 69 -56 l22 -21 42 66 c23 36 43 66 46 66 2 0 26 -18 52 -40 51 -43
61 -47 61 -26 0 8 -21 33 -47 55 l-48 41 18 31 c29 52 24 59 -40 57 -32 0 -78
-4 -103 -7z"/>
<path d="M926 1081 c-3 -5 -7 -68 -8 -140 l-3 -132 -35 -9 c-19 -5 -45 -10
-58 -12 -47 -6 -15 -23 40 -21 51 2 57 1 60 -19 2 -12 9 -23 16 -26 9 -3 12
37 12 177 0 161 -7 211 -24 182z"/>
<path d="M1300 1000 c0 -5 11 -10 25 -10 14 0 25 5 25 10 0 6 -11 10 -25 10
-14 0 -25 -4 -25 -10z"/>
<path d="M780 859 c-36 -4 -117 -12 -180 -19 -63 -7 -153 -15 -199 -19 -59 -4
-86 -10 -89 -20 -4 -12 13 -13 104 -8 60 4 128 10 151 13 l42 7 3 -69 c2 -54
7 -69 19 -72 14 -3 16 6 11 66 -5 81 -10 78 125 88 46 4 88 12 93 19 15 18 -5
22 -80 14z"/>
<path d="M1318 793 c6 -2 18 -2 25 0 6 3 1 5 -13 5 -14 0 -19 -2 -12 -5z"/>
<path d="M924 583 c-14 -45 -41 -100 -86 -176 l-48 -82 0 102 c0 56 -3 108 -6
117 -5 13 -26 16 -123 16 -108 0 -141 -7 -141 -29 0 -4 54 -4 120 -2 l120 3 0
-110 c0 -82 4 -112 14 -121 10 -8 16 -9 21 -1 3 6 11 8 16 5 5 -4 13 4 18 17
5 13 24 49 44 81 l35 58 19 -24 c21 -28 164 -117 176 -110 19 12 1 32 -61 65
-37 20 -80 50 -95 66 -28 29 -28 31 -13 60 18 35 21 82 6 82 -6 0 -13 -8 -16
-17z"/>
<path d="M1300 460 c0 -5 11 -10 25 -10 14 0 25 5 25 10 0 6 -11 10 -25 10
-14 0 -25 -4 -25 -10z"/>
<path d="M1310 220 c0 -5 9 -10 20 -10 11 0 20 5 20 10 0 6 -9 10 -20 10 -11
0 -20 -4 -20 -10z"/>
</g>
</svg>
