<?xml version="1.0" standalone="no"?>
<!DOCTYPE svg PUBLIC "-//W3C//DTD SVG 20010904//EN"
 "http://www.w3.org/TR/2001/REC-SVG-20010904/DTD/svg10.dtd">
<svg version="1.0" xmlns="http://www.w3.org/2000/svg"
 width="135.000000pt" height="135.000000pt" viewBox="0 0 135.000000 135.000000"
 preserveAspectRatio="xMidYMid meet">
<metadata>
Created by potrace 1.16, written by Peter Selinger 2001-2019
</metadata>
<g transform="translate(0.000000,135.000000) scale(0.100000,-0.100000)"
fill="#000000" stroke="none">
<path d="M859 1073 c0 -4 0 -26 0 -48 1 -22 -5 -110 -12 -195 -14 -166 -12
-243 7 -237 7 2 14 55 19 148 14 240 14 332 0 336 -7 3 -13 1 -14 -4z"/>
<path d="M489 988 c-23 -40 -57 -95 -75 -122 -31 -46 -35 -66 -15 -66 5 0 26
26 47 58 21 31 41 61 45 65 6 8 63 -21 108 -55 24 -18 61 -24 61 -10 0 9 -86
72 -99 72 -4 0 -16 9 -25 19 -16 18 -16 22 -2 50 18 33 21 61 7 61 -5 0 -28
-33 -52 -72z"/>
<path d="M769 923 c0 -48 -4 -110 -7 -137 l-7 -50 -49 -10 c-27 -6 -51 -17
-54 -25 -4 -11 6 -12 52 -7 47 6 56 5 56 -8 0 -9 6 -16 14 -16 11 0 15 29 21
133 8 152 5 199 -12 205 -10 3 -13 -19 -14 -85z"/>
<path d="M525 773 c-72 -13 -134 -29 -139 -34 -21 -19 8 -22 88 -8 l84 15 6
-60 c11 -105 43 -96 34 10 -4 52 -4 55 21 60 74 17 86 21 84 30 -4 16 -45 13
-178 -13z"/>
<path d="M705 560 c-8 -12 13 -252 23 -261 14 -12 143 6 152 21 6 8 10 38 11
65 3 102 -8 165 -28 165 -13 0 -14 -8 -9 -50 l7 -50 -60 0 -60 0 -6 55 c-7 55
-18 75 -30 55z m153 -182 l-3 -43 -51 -3 c-50 -3 -51 -2 -58 29 -11 58 -11 59
55 59 l60 0 -3 -42z"/>
<path d="M625 555 c-5 -2 -36 -9 -67 -15 -38 -8 -58 -16 -58 -26 0 -17 8 -17
87 0 57 12 62 12 66 -4 8 -30 -7 -40 -74 -52 -86 -15 -102 -30 -94 -87 11 -75
10 -74 84 -66 74 8 109 21 93 37 -6 6 -31 5 -72 -2 -34 -6 -63 -10 -65 -8 -1
2 -5 20 -9 40 -6 33 -4 38 16 42 121 27 133 32 147 58 27 48 -8 100 -54 83z"/>
</g>
</svg>
