<?xml version="1.0" standalone="no"?>
<!DOCTYPE svg PUBLIC "-//W3C//DTD SVG 20010904//EN"
 "http://www.w3.org/TR/2001/REC-SVG-20010904/DTD/svg10.dtd">
<svg version="1.0" xmlns="http://www.w3.org/2000/svg"
 width="135.000000pt" height="135.000000pt" viewBox="0 0 135.000000 135.000000"
 preserveAspectRatio="xMidYMid meet">
<metadata>
Created by potrace 1.16, written by Peter Selinger 2001-2019
</metadata>
<g transform="translate(0.000000,135.000000) scale(0.100000,-0.100000)"
fill="#000000" stroke="none">
<path d="M4 675 c0 -374 1 -663 3 -642 l4 37 664 0 664 0 4 -37 c2 -21 3 268
3 642 0 374 -2 605 -3 513 l-3 -167 -28 -4 -27 -4 28 -2 27 -1 0 -94 c0 -90
-1 -95 -22 -99 l-23 -4 23 -2 c22 -1 22 -2 22 -165 l0 -165 -27 -4 -28 -4 28
-2 27 -1 0 -109 c0 -106 -1 -110 -22 -114 l-23 -4 23 -8 c20 -7 22 -13 22 -81
l0 -74 -665 0 -665 0 0 75 c0 68 2 75 20 75 11 0 20 5 20 10 0 6 -9 10 -20 10
-19 0 -20 7 -20 109 l0 110 28 4 27 4 -27 2 -28 1 0 164 c0 163 0 165 23 169
l22 4 -22 2 c-22 1 -23 5 -23 95 l0 95 28 4 27 4 -27 2 -28 1 -3 168 c-1 92
-3 -139 -3 -513z"/>
<path d="M798 1178 c-8 -135 -4 -261 8 -265 7 -2 14 16 18 45 l6 49 55 1 c59
0 78 7 72 25 -2 8 -25 11 -65 9 l-62 -4 0 31 c0 29 1 30 53 33 28 2 52 8 52
13 0 6 -24 11 -52 13 l-53 3 0 65 c0 47 -4 64 -14 64 -10 0 -15 -22 -18 -82z"/>
<path d="M476 1222 c-47 -10 -81 -23 -84 -31 -5 -15 20 -14 142 8 32 6 63 8
67 5 15 -9 10 -81 -5 -87 -8 -3 -52 -11 -98 -17 -46 -7 -89 -16 -96 -22 -9 -8
-12 -37 -10 -102 3 -106 -13 -99 162 -70 64 11 111 24 114 32 2 8 -6 12 -25
12 -36 0 -201 -27 -213 -35 -6 -4 -10 23 -10 69 l0 75 58 6 c87 11 146 25 154
38 12 19 9 112 -4 125 -16 16 -55 14 -152 -6z"/>
<path d="M677 794 c-11 -11 -8 -230 3 -259 8 -20 15 -25 28 -20 9 4 50 10 89
12 43 4 77 11 84 19 14 17 29 136 18 149 -4 6 -9 31 -11 55 -2 32 -8 46 -20
48 -15 3 -16 -4 -11 -52 l6 -56 -80 0 -79 0 1 52 c0 47 -11 68 -28 52z m190
-175 c-3 -23 -9 -45 -14 -49 -4 -5 -39 -10 -78 -12 l-70 -3 -3 53 -3 52 87 0
87 0 -6 -41z"/>
<path d="M491 781 c-14 -4 -27 -13 -29 -20 -4 -11 8 -12 63 -6 74 8 85 2 85
-47 0 -24 -3 -26 -60 -33 -32 -4 -63 -12 -68 -18 -5 -7 -12 -40 -15 -75 -6
-68 10 -100 42 -87 9 4 46 12 84 18 47 7 67 15 67 25 0 12 -11 14 -57 8 -31
-4 -67 -9 -80 -12 -22 -6 -23 -4 -23 49 l0 55 70 7 70 7 0 53 c0 81 -3 85 -69
84 -31 -1 -67 -4 -80 -8z"/>
</g>
</svg>
