<?xml version="1.0" standalone="no"?>
<!DOCTYPE svg PUBLIC "-//W3C//DTD SVG 20010904//EN"
 "http://www.w3.org/TR/2001/REC-SVG-20010904/DTD/svg10.dtd">
<svg version="1.0" xmlns="http://www.w3.org/2000/svg"
 width="135.000000pt" height="135.000000pt" viewBox="0 0 135.000000 135.000000"
 preserveAspectRatio="xMidYMid meet">
<metadata>
Created by potrace 1.16, written by Peter Selinger 2001-2019
</metadata>
<g transform="translate(0.000000,135.000000) scale(0.100000,-0.100000)"
fill="#000000" stroke="none">
<path d="M836 1072 c-9 -14 3 -377 12 -380 22 -7 28 103 15 291 -5 88 -13 112
-27 89z"/>
<path d="M565 1038 c-60 -5 -115 -14 -122 -20 -20 -16 -18 -277 1 -284 22 -8
303 30 305 41 2 17 -62 17 -172 1 -57 -9 -107 -16 -111 -16 -3 0 -6 24 -6 54
l0 53 88 6 c105 8 132 15 132 34 0 14 -9 14 -146 -3 -61 -7 -74 1 -74 50 0 35
3 41 23 42 117 8 208 18 218 24 14 9 3 31 -14 29 -7 -1 -61 -6 -122 -11z"/>
<path d="M495 611 c-11 -18 20 -25 97 -22 l78 2 0 -39 c0 -36 -3 -41 -31 -51
-17 -6 -49 -8 -73 -5 -57 8 -70 -9 -64 -81 3 -31 10 -61 15 -66 14 -14 179 1
175 16 -1 6 -35 10 -76 9 l-74 -1 -6 36 c-10 63 -10 63 34 56 41 -7 109 9 122
29 12 18 9 101 -4 114 -14 14 -184 17 -193 3z"/>
<path d="M710 608 c0 -12 19 -16 86 -21 48 -3 88 -8 90 -9 1 -2 4 -52 5 -111
3 -90 6 -107 19 -105 13 3 14 21 11 118 -1 63 -6 118 -10 123 -4 4 -51 10
-104 14 -82 5 -97 4 -97 -9z"/>
<path d="M248 3 c7 -3 16 -2 19 1 4 3 -2 6 -13 5 -11 0 -14 -3 -6 -6z"/>
<path d="M707 3 c18 -2 50 -2 70 0 21 2 7 4 -32 4 -38 0 -55 -2 -38 -4z"/>
</g>
</svg>
