<?xml version="1.0" standalone="no"?>
<!DOCTYPE svg PUBLIC "-//W3C//DTD SVG 20010904//EN"
 "http://www.w3.org/TR/2001/REC-SVG-20010904/DTD/svg10.dtd">
<svg version="1.0" xmlns="http://www.w3.org/2000/svg"
 width="135.000000pt" height="135.000000pt" viewBox="0 0 135.000000 135.000000"
 preserveAspectRatio="xMidYMid meet">
<metadata>
Created by potrace 1.16, written by Peter Selinger 2001-2019
</metadata>
<g transform="translate(0.000000,135.000000) scale(0.100000,-0.100000)"
fill="#000000" stroke="none">
<path d="M3 675 c0 -374 1 -672 4 -663 4 17 45 18 674 18 439 0 669 3 669 10
0 7 -230 10 -670 10 l-670 0 0 75 c0 68 2 75 20 75 11 0 20 5 20 10 0 6 -9 10
-20 10 -19 0 -20 7 -20 105 0 105 0 105 24 105 14 0 28 4 31 10 4 6 -7 10 -24
10 l-31 0 0 160 c0 153 1 160 20 160 11 0 20 5 20 10 0 6 -9 10 -20 10 -19 0
-20 7 -20 90 0 89 0 90 24 90 14 0 28 5 31 10 4 6 -6 10 -24 10 l-31 0 -3 183
c-1 100 -3 -124 -4 -498z"/>
<path d="M849 1103 c-2 -14 3 -176 6 -228 3 -45 16 -68 28 -48 3 5 2 69 -1
142 -5 94 -11 136 -19 139 -7 2 -13 0 -14 -5z"/>
<path d="M455 1070 c-102 -15 -97 -9 -94 -120 2 -69 -1 -103 -10 -114 -20 -24
5 -29 131 -24 103 4 113 6 131 29 17 21 19 35 15 110 -7 114 -16 129 -76 128
-26 -1 -70 -5 -97 -9z m129 -28 c10 -17 17 -167 8 -180 -6 -8 -42 -15 -99 -19
l-90 -6 -7 93 c-4 51 -5 94 -2 97 4 4 113 19 163 22 12 0 24 -3 27 -7z"/>
<path d="M767 1074 c-4 -4 -7 -18 -7 -30 0 -20 -6 -23 -42 -26 -24 -2 -43 -7
-43 -13 0 -5 19 -11 43 -13 54 -4 58 -29 5 -34 -52 -4 -56 -28 -4 -28 36 0 41
-3 41 -24 0 -13 7 -29 15 -36 18 -15 17 -19 15 100 -1 90 -8 119 -23 104z"/>
<path d="M1300 980 c0 -5 11 -10 25 -10 14 0 25 5 25 10 0 6 -11 10 -25 10
-14 0 -25 -4 -25 -10z"/>
<path d="M1310 780 c0 -5 9 -10 20 -10 11 0 20 5 20 10 0 6 -9 10 -20 10 -11
0 -20 -4 -20 -10z"/>
<path d="M755 723 c-16 -3 -33 -9 -36 -15 -11 -17 2 -252 15 -265 13 -14 130
-3 147 14 20 20 1 31 -38 22 -21 -5 -50 -9 -65 -9 -26 0 -28 3 -28 44 l0 43
70 0 c39 0 73 3 76 6 16 16 -14 27 -77 27 l-69 0 0 34 c0 19 -3 41 -6 49 -4
12 9 16 65 22 51 5 71 11 71 21 0 14 -54 17 -125 7z"/>
<path d="M515 701 c-58 -12 -25 -26 55 -22 l80 3 0 -35 c0 -35 -1 -36 -47 -42
-111 -16 -108 -13 -111 -89 -4 -90 5 -100 81 -92 32 3 67 10 77 16 26 14 27
45 3 35 -34 -14 -104 -27 -118 -21 -10 4 -15 21 -15 55 l0 49 48 6 c26 4 62
12 80 17 30 10 32 13 32 58 0 26 -5 52 -12 59 -13 13 -101 14 -153 3z"/>
<path d="M1300 440 c0 -5 11 -10 25 -10 14 0 25 5 25 10 0 6 -11 10 -25 10
-14 0 -25 -4 -25 -10z"/>
<path d="M1310 210 c0 -5 9 -10 20 -10 11 0 20 5 20 10 0 6 -9 10 -20 10 -11
0 -20 -4 -20 -10z"/>
</g>
</svg>
