<?xml version="1.0" standalone="no"?>
<!DOCTYPE svg PUBLIC "-//W3C//DTD SVG 20010904//EN"
 "http://www.w3.org/TR/2001/REC-SVG-20010904/DTD/svg10.dtd">
<svg version="1.0" xmlns="http://www.w3.org/2000/svg"
 width="135.000000pt" height="135.000000pt" viewBox="0 0 135.000000 135.000000"
 preserveAspectRatio="xMidYMid meet">
<metadata>
Created by potrace 1.16, written by Peter Selinger 2001-2019
</metadata>
<g transform="translate(0.000000,135.000000) scale(0.100000,-0.100000)"
fill="#000000" stroke="none">
<path d="M4 675 c0 -374 1 -661 3 -637 l4 42 664 0 664 0 4 -42 c2 -24 3 263
3 637 0 374 -2 607 -3 518 l-3 -162 -28 -4 -27 -4 28 -2 27 -1 0 -94 c0 -90
-1 -95 -22 -99 l-23 -4 23 -2 c22 -1 22 -2 22 -161 l0 -160 -25 0 c-14 0 -25
-4 -25 -10 0 -5 11 -10 25 -10 l25 0 0 -109 c0 -106 -1 -110 -22 -114 l-23 -4
23 -8 c20 -7 22 -13 22 -81 l0 -74 -665 0 -665 0 0 75 c0 68 2 75 20 75 11 0
20 5 20 10 0 6 -9 10 -20 10 -19 0 -20 7 -20 110 l0 110 25 0 c14 0 25 5 25
10 0 6 -11 10 -25 10 l-25 0 0 159 c0 158 0 160 23 164 l22 4 -22 2 c-22 1
-23 5 -23 95 l0 95 28 4 27 4 -27 2 -28 1 -3 163 c-1 89 -3 -144 -3 -518z"/>
<path d="M884 1229 c-4 -7 -10 -51 -12 -96 l-5 -83 -44 0 -44 0 3 75 c4 101
-14 97 -29 -7 -18 -116 -13 -303 7 -303 13 0 14 16 12 96 l-3 96 32 7 c61 12
58 19 61 -151 2 -114 6 -157 16 -161 9 -3 12 27 12 125 1 70 5 189 10 263 9
125 4 170 -16 139z"/>
<path d="M421 1179 c-25 -5 -49 -13 -54 -18 -18 -18 19 -23 73 -12 28 6 76 11
106 11 l56 0 -4 -94 c-1 -52 1 -98 5 -102 17 -18 27 25 27 124 l0 102 -82 -1
c-46 -1 -103 -5 -127 -10z"/>
<path d="M457 993 c-4 -3 -7 -29 -7 -57 0 -28 -3 -68 -6 -88 -6 -37 -7 -37
-58 -40 -37 -2 -51 -7 -51 -18 0 -12 20 -14 125 -11 148 4 202 11 208 29 3 11
-14 12 -95 7 l-99 -7 4 96 c4 88 -1 110 -21 89z"/>
<path d="M673 669 c-10 -12 -60 -69 -110 -125 -51 -57 -93 -105 -93 -108 0
-22 39 5 106 74 l79 81 50 -27 c28 -14 73 -35 100 -45 28 -10 83 -32 124 -49
51 -21 78 -27 85 -20 14 14 0 25 -49 40 -22 7 -49 18 -60 25 -11 6 -44 20 -74
30 -30 10 -78 30 -107 45 l-53 28 21 27 c14 18 17 30 10 37 -7 7 -16 3 -29
-13z"/>
</g>
</svg>
