<?xml version="1.0" standalone="no"?>
<!DOCTYPE svg PUBLIC "-//W3C//DTD SVG 20010904//EN"
 "http://www.w3.org/TR/2001/REC-SVG-20010904/DTD/svg10.dtd">
<svg version="1.0" xmlns="http://www.w3.org/2000/svg"
 width="135.000000pt" height="135.000000pt" viewBox="0 0 135.000000 135.000000"
 preserveAspectRatio="xMidYMid meet">
<metadata>
Created by potrace 1.16, written by Peter Selinger 2001-2019
</metadata>
<g transform="translate(0.000000,135.000000) scale(0.100000,-0.100000)"
fill="#000000" stroke="none">
<path d="M0 675 c0 -443 3 -675 10 -675 6 0 10 5 10 10 0 7 228 10 665 10 437
0 665 3 665 10 0 7 -228 10 -665 10 l-665 0 0 79 c0 75 1 80 22 84 l23 4 -22
2 c-22 1 -23 4 -23 111 l0 110 25 0 c14 0 25 5 25 10 0 6 -11 10 -25 10 l-25
0 0 160 c0 153 1 160 20 160 11 0 20 5 20 10 0 6 -9 10 -20 10 -19 0 -20 7
-20 90 0 89 0 90 25 90 14 0 25 5 25 10 0 6 -11 10 -25 10 l-25 0 0 180 c0
113 -4 180 -10 180 -7 0 -10 -232 -10 -675z"/>
<path d="M670 1088 c-63 -10 -148 -22 -189 -26 l-73 -7 -5 -111 c-3 -73 -1
-119 6 -133 14 -25 50 -27 111 -6 51 18 99 20 83 4 -6 -6 -8 -30 -5 -54 2 -24
2 -55 -2 -69 -6 -25 -10 -26 -76 -26 -65 0 -94 -12 -74 -29 5 -4 50 -4 99 0
50 4 143 10 208 15 65 4 120 11 123 16 15 24 -17 28 -125 18 -62 -7 -114 -10
-116 -8 -1 2 -4 35 -7 74 l-3 70 102 29 c57 16 103 33 103 37 0 20 -30 18
-116 -8 -52 -15 -97 -25 -100 -21 -3 3 -1 29 5 57 6 28 11 65 11 83 0 48 10
56 81 68 77 12 112 26 104 39 -7 12 -3 12 -145 -12z m-80 -163 l-12 -71 -63
-18 c-35 -10 -68 -15 -74 -11 -12 7 -14 73 -5 153 l7 52 46 1 c25 1 60 4 76 8
27 6 30 4 33 -19 2 -14 -2 -57 -8 -95z"/>
<path d="M1300 980 c0 -5 11 -10 25 -10 14 0 25 5 25 10 0 6 -11 10 -25 10
-14 0 -25 -4 -25 -10z"/>
<path d="M1310 780 c0 -5 9 -10 20 -10 11 0 20 5 20 10 0 6 -9 10 -20 10 -11
0 -20 -4 -20 -10z"/>
<path d="M512 518 c3 -8 26 -14 57 -16 34 -2 54 -8 58 -18 9 -25 -17 -44 -61
-44 -23 0 -47 -5 -54 -12 -12 -12 -17 -114 -6 -142 7 -19 105 -23 149 -6 47
18 18 30 -56 24 l-70 -7 3 54 3 54 53 3 c46 3 54 6 62 28 16 40 12 72 -9 84
-29 15 -134 13 -129 -2z"/>
<path d="M699 518 c-7 -19 -3 -218 4 -232 8 -16 16 -17 60 -12 86 11 125 25
132 46 7 22 -11 130 -27 166 -6 14 -16 23 -22 21 -12 -5 -12 -7 8 -96 8 -35
12 -69 10 -76 -3 -7 -24 -16 -47 -19 -23 -4 -52 -9 -64 -12 -22 -6 -22 -4 -25
102 -2 75 -7 109 -15 112 -7 2 -14 2 -14 0z"/>
<path d="M1300 440 c0 -5 11 -10 25 -10 14 0 25 5 25 10 0 6 -11 10 -25 10
-14 0 -25 -4 -25 -10z"/>
<path d="M750 401 c-11 -8 -12 -13 -3 -22 15 -15 106 -3 100 14 -5 15 -77 20
-97 8z"/>
<path d="M1318 203 c6 -2 18 -2 25 0 6 3 1 5 -13 5 -14 0 -19 -2 -12 -5z"/>
</g>
</svg>
