<?xml version="1.0" standalone="no"?>
<!DOCTYPE svg PUBLIC "-//W3C//DTD SVG 20010904//EN"
 "http://www.w3.org/TR/2001/REC-SVG-20010904/DTD/svg10.dtd">
<svg version="1.0" xmlns="http://www.w3.org/2000/svg"
 width="135.000000pt" height="135.000000pt" viewBox="0 0 135.000000 135.000000"
 preserveAspectRatio="xMidYMid meet">
<metadata>
Created by potrace 1.16, written by Peter Selinger 2001-2019
</metadata>
<g transform="translate(0.000000,135.000000) scale(0.100000,-0.100000)"
fill="#000000" stroke="none">
<path d="M0 675 c0 -443 3 -675 10 -675 6 0 10 11 10 25 l0 25 668 3 667 2
-667 3 -668 2 0 74 c0 68 2 74 23 81 l22 8 -22 4 c-22 4 -23 8 -23 114 l0 109
25 0 c14 0 25 5 25 10 0 6 -11 10 -25 10 l-25 0 0 159 c0 158 0 160 23 164
l22 4 -22 2 c-22 1 -23 5 -23 96 0 95 0 95 25 95 14 0 25 5 25 10 0 6 -11 10
-25 10 l-25 0 0 170 c0 107 -4 170 -10 170 -7 0 -10 -232 -10 -675z"/>
<path d="M446 1191 c-10 -15 7 -23 147 -73 42 -14 62 -17 69 -10 12 12 8 14
-102 56 -92 34 -108 38 -114 27z"/>
<path d="M848 1183 c-2 -4 -1 -89 2 -187 4 -131 8 -181 18 -184 9 -3 12 19 12
87 l0 91 38 0 c50 0 84 10 79 24 -2 7 -25 10 -60 8 l-57 -4 -2 69 c0 37 -2 74
-2 82 -1 16 -22 26 -28 14z"/>
<path d="M616 1070 c-137 -17 -207 -32 -213 -46 -8 -22 0 -25 35 -14 45 12
223 33 229 26 4 -3 -42 -54 -100 -114 -96 -97 -122 -132 -100 -132 4 0 40 32
80 72 l72 71 51 -46 c47 -42 90 -61 90 -39 0 5 -27 30 -61 56 l-60 47 46 51
c67 74 58 83 -69 68z"/>
<path d="M1290 1000 c0 -5 14 -10 30 -10 17 0 30 5 30 10 0 6 -13 10 -30 10
-16 0 -30 -4 -30 -10z"/>
<path d="M1313 793 c9 -2 23 -2 30 0 6 3 -1 5 -18 5 -16 0 -22 -2 -12 -5z"/>
<path d="M824 734 c25 -65 28 -62 -94 -66 l-111 -3 3 30 c2 21 -1 30 -12 30
-12 0 -16 -18 -18 -90 -3 -113 5 -129 63 -115 22 5 75 10 117 10 l76 0 12 34
c24 74 8 186 -26 186 -11 0 -14 -5 -10 -16z m13 -130 c-3 -20 -7 -38 -9 -39
-2 -1 -49 -5 -105 -7 l-103 -5 0 38 c0 43 3 45 144 47 l79 2 -6 -36z"/>
<path d="M1290 460 c0 -5 14 -10 30 -10 17 0 30 5 30 10 0 6 -13 10 -30 10
-16 0 -30 -4 -30 -10z"/>
<path d="M1305 220 c3 -5 15 -10 26 -10 10 0 19 5 19 10 0 6 -12 10 -26 10
-14 0 -23 -4 -19 -10z"/>
</g>
</svg>
