<?xml version="1.0" standalone="no"?>
<!DOCTYPE svg PUBLIC "-//W3C//DTD SVG 20010904//EN"
 "http://www.w3.org/TR/2001/REC-SVG-20010904/DTD/svg10.dtd">
<svg version="1.0" xmlns="http://www.w3.org/2000/svg"
 width="135.000000pt" height="135.000000pt" viewBox="0 0 135.000000 135.000000"
 preserveAspectRatio="xMidYMid meet">
<metadata>
Created by potrace 1.16, written by Peter Selinger 2001-2019
</metadata>
<g transform="translate(0.000000,135.000000) scale(0.100000,-0.100000)"
fill="#000000" stroke="none">
<path d="M4 675 c-1 -374 1 -668 3 -652 l4 27 664 0 664 0 4 -27 c2 -16 4 278
3 652 0 374 -2 602 -3 508 l-3 -173 -25 0 c-14 0 -25 -4 -25 -10 0 -5 11 -10
25 -10 25 0 25 0 25 -94 0 -90 -1 -95 -22 -99 l-23 -4 23 -2 c22 -1 22 -2 22
-161 l0 -160 -25 0 c-14 0 -25 -4 -25 -10 0 -5 11 -10 25 -10 l25 0 0 -109 c0
-106 -1 -110 -22 -114 l-23 -4 23 -8 c20 -7 22 -13 22 -81 l0 -74 -665 0 -665
0 0 75 c0 68 2 75 20 75 11 0 20 5 20 10 0 6 -9 10 -20 10 -19 0 -20 7 -20
110 l0 110 25 0 c14 0 25 5 25 10 0 6 -11 10 -25 10 l-25 0 0 159 c0 158 0
160 23 164 l22 4 -22 2 c-22 1 -23 5 -23 96 0 95 0 95 25 95 14 0 25 5 25 10
0 6 -11 10 -25 10 l-25 0 -3 173 c-1 94 -3 -134 -3 -508z"/>
<path d="M799 1186 c-3 -3 -65 -10 -139 -16 -141 -12 -190 -24 -173 -41 6 -6
60 -4 158 6 81 8 150 14 152 12 2 -2 -34 -33 -79 -68 -119 -92 -180 -151 -170
-161 6 -6 42 17 91 56 45 36 86 66 91 66 5 0 49 -18 96 -40 48 -22 88 -40 90
-40 2 0 4 7 4 16 0 9 -30 29 -81 53 l-81 37 52 46 c38 32 51 50 47 62 -6 14
-47 23 -58 12z"/>
<path d="M860 824 c-162 -7 -407 -28 -424 -36 -41 -22 7 -25 154 -12 85 7 191
13 236 14 125 0 204 11 204 26 0 14 0 14 -170 8z"/>
<path d="M678 646 c-82 -20 -128 -82 -128 -174 0 -37 5 -53 23 -70 55 -52 158
-66 252 -34 58 20 83 55 92 131 9 74 -9 108 -71 137 -55 26 -94 28 -168 10z
m149 -36 c24 -10 48 -30 54 -44 15 -32 3 -108 -21 -139 -35 -44 -147 -60 -220
-31 -46 18 -60 38 -60 84 0 37 27 100 43 100 6 0 18 6 26 14 18 16 74 34 111
35 14 0 44 -8 67 -19z"/>
</g>
</svg>
