<?xml version="1.0" standalone="no"?>
<!DOCTYPE svg PUBLIC "-//W3C//DTD SVG 20010904//EN"
 "http://www.w3.org/TR/2001/REC-SVG-20010904/DTD/svg10.dtd">
<svg version="1.0" xmlns="http://www.w3.org/2000/svg"
 width="135.000000pt" height="135.000000pt" viewBox="0 0 135.000000 135.000000"
 preserveAspectRatio="xMidYMid meet">
<metadata>
Created by potrace 1.16, written by Peter Selinger 2001-2019
</metadata>
<g transform="translate(0.000000,135.000000) scale(0.100000,-0.100000)"
fill="#000000" stroke="none">
<path d="M867 953 c4 -93 3 -154 -3 -151 -5 3 -72 -2 -149 -13 -77 -10 -159
-18 -182 -19 -39 0 -63 -13 -49 -27 9 -9 64 -9 119 0 l47 8 0 -30 c0 -39 9
-61 26 -61 10 0 12 10 8 44 -7 51 -11 49 109 64 66 9 67 8 67 -15 0 -14 5 -34
11 -45 20 -37 27 -1 28 145 2 171 -7 257 -25 257 -10 0 -12 -30 -7 -157z"/>
<path d="M615 1063 c-49 -8 -109 -17 -133 -21 -56 -9 -54 -27 3 -27 38 0 45
-3 45 -20 0 -11 3 -44 6 -72 7 -52 6 -53 -18 -53 -14 0 -31 -6 -37 -14 -19
-23 9 -26 90 -9 41 8 112 20 159 26 91 13 108 32 27 32 l-47 0 0 72 0 72 37 3
c20 2 38 9 41 16 5 16 -55 15 -173 -5z m63 -95 l3 -66 -51 -12 c-28 -7 -52
-11 -54 -9 -8 9 -14 125 -8 136 7 11 58 21 92 19 11 -1 16 -17 18 -68z"/>
<path d="M796 642 c-7 -12 11 -27 42 -36 34 -11 26 -26 -12 -26 -38 0 -57 -16
-31 -26 22 -9 135 9 138 21 1 6 -8 11 -20 13 -13 2 -23 7 -23 12 0 21 -84 58
-94 42z"/>
<path d="M628 593 c-43 -10 -68 -21 -68 -29 0 -17 19 -17 95 1 64 15 79 10 73
-26 -3 -20 -11 -25 -56 -31 -57 -9 -112 -32 -112 -49 0 -5 7 -26 15 -45 l15
-36 57 7 c59 7 90 22 76 36 -4 4 -30 3 -57 -2 -54 -10 -66 -6 -66 21 0 21 51
40 107 40 36 0 53 21 53 65 0 39 -18 65 -43 64 -12 -1 -52 -8 -89 -16z"/>
<path d="M843 513 c-29 -6 -53 -40 -53 -76 0 -23 7 -31 35 -43 46 -19 62 -18
96 7 22 16 29 28 29 54 0 36 -13 48 -60 57 -14 3 -35 3 -47 1z m74 -49 c3 -9
-3 -24 -14 -35 -35 -36 -104 -1 -73 36 17 20 79 20 87 -1z"/>
</g>
</svg>
