<?xml version="1.0" standalone="no"?>
<!DOCTYPE svg PUBLIC "-//W3C//DTD SVG 20010904//EN"
 "http://www.w3.org/TR/2001/REC-SVG-20010904/DTD/svg10.dtd">
<svg version="1.0" xmlns="http://www.w3.org/2000/svg"
 width="135.000000pt" height="135.000000pt" viewBox="0 0 135.000000 135.000000"
 preserveAspectRatio="xMidYMid meet">
<metadata>
Created by potrace 1.16, written by Peter Selinger 2001-2019
</metadata>
<g transform="translate(0.000000,135.000000) scale(0.100000,-0.100000)"
fill="#000000" stroke="none">
<path d="M1340 1180 l0 -170 -25 0 c-14 0 -25 -4 -25 -10 0 -5 11 -10 25 -10
25 0 25 0 25 -94 0 -90 -1 -95 -22 -99 l-23 -4 23 -2 c22 -1 22 -2 22 -161 l0
-160 -25 0 c-14 0 -25 -4 -25 -10 0 -5 11 -10 25 -10 l25 0 0 -110 c0 -103 -1
-110 -20 -110 -11 0 -20 -4 -20 -10 0 -5 9 -10 20 -10 18 0 20 -7 20 -75 l0
-75 -672 -3 -673 -2 672 -3 672 -2 4 -27 c2 -16 5 277 6 650 0 372 -1 677 -4
677 -3 0 -5 -76 -5 -170z"/>
<path d="M811 1171 c-15 -27 -11 -447 4 -444 14 4 30 442 17 455 -7 7 -14 3
-21 -11z"/>
<path d="M510 1102 c-54 -24 -81 -67 -95 -149 -5 -30 -2 -50 10 -75 31 -60 43
-68 106 -68 66 0 105 24 133 84 21 45 21 129 -1 163 -28 42 -107 65 -153 45z
m119 -58 c38 -48 21 -143 -33 -186 -28 -23 -98 -24 -118 0 -33 37 -38 59 -27
111 15 72 46 101 108 101 42 0 53 -4 70 -26z"/>
<path d="M0 1000 c0 -5 13 -10 30 -10 17 0 30 5 30 10 0 6 -13 10 -30 10 -17
0 -30 -4 -30 -10z"/>
<path d="M13 793 c9 -2 23 -2 30 0 6 3 -1 5 -18 5 -17 0 -22 -2 -12 -5z"/>
<path d="M512 648 c-5 -7 -19 -33 -31 -58 -12 -25 -41 -69 -66 -97 -25 -28
-45 -56 -45 -62 0 -18 28 -13 42 7 7 11 28 36 46 56 l33 38 59 -29 c43 -21 58
-33 57 -47 -3 -32 17 -28 36 6 10 18 31 49 48 68 l29 34 32 -31 c29 -27 176
-103 199 -103 5 0 9 6 9 13 0 7 -40 32 -88 55 -49 23 -99 53 -111 66 -23 24
-23 26 -7 50 19 30 21 46 3 46 -7 0 -37 -34 -66 -76 -59 -85 -69 -88 -144 -44
-42 25 -44 34 -17 75 11 17 20 33 20 38 0 12 -27 8 -38 -5z"/>
<path d="M0 460 c0 -5 13 -10 30 -10 17 0 30 5 30 10 0 6 -13 10 -30 10 -17 0
-30 -4 -30 -10z"/>
<path d="M0 220 c0 -5 11 -10 25 -10 14 0 25 5 25 10 0 6 -11 10 -25 10 -14 0
-25 -4 -25 -10z"/>
</g>
</svg>
