<?xml version="1.0" standalone="no"?>
<!DOCTYPE svg PUBLIC "-//W3C//DTD SVG 20010904//EN"
 "http://www.w3.org/TR/2001/REC-SVG-20010904/DTD/svg10.dtd">
<svg version="1.0" xmlns="http://www.w3.org/2000/svg"
 width="135.000000pt" height="135.000000pt" viewBox="0 0 135.000000 135.000000"
 preserveAspectRatio="xMidYMid meet">
<metadata>
Created by potrace 1.16, written by Peter Selinger 2001-2019
</metadata>
<g transform="translate(0.000000,135.000000) scale(0.100000,-0.100000)"
fill="#000000" stroke="none">
<path d="M4 675 c-1 -374 1 -670 3 -657 l4 22 664 0 664 0 4 -22 c2 -13 4 283
3 657 0 374 -2 600 -3 503 l-3 -178 -31 0 c-18 0 -28 -4 -24 -10 3 -5 17 -10
31 -10 24 0 24 -1 24 -90 0 -83 -1 -90 -20 -90 -11 0 -20 -4 -20 -10 0 -5 9
-10 20 -10 19 0 20 -7 20 -155 l0 -155 -24 0 c-14 0 -28 -4 -31 -10 -4 -6 7
-10 24 -10 l31 0 0 -110 c0 -103 -1 -110 -20 -110 -11 0 -20 -4 -20 -10 0 -5
9 -10 20 -10 18 0 20 -7 20 -75 l0 -75 -665 0 -665 0 0 74 c0 69 2 75 22 79
l23 4 -23 8 c-21 7 -22 12 -22 116 l0 109 25 0 c14 0 25 5 25 10 0 6 -11 10
-25 10 l-25 0 0 154 c0 150 0 154 23 161 l22 8 -22 4 c-22 4 -23 9 -23 94 0
88 0 89 25 89 14 0 25 5 25 10 0 6 -11 10 -25 10 l-25 0 -3 178 c-1 97 -3
-129 -3 -503z"/>
<path d="M835 1200 c-4 -6 -4 -42 0 -79 l7 -68 -63 -6 c-34 -4 -94 -7 -133 -8
-39 0 -92 -4 -119 -8 l-47 -8 0 84 c0 63 -3 84 -12 81 -9 -3 -15 -45 -20 -134
-8 -140 -4 -190 15 -197 15 -5 331 10 369 18 45 10 49 30 39 180 -8 129 -19
173 -36 145z m5 -234 c0 -40 -4 -55 -16 -60 -9 -3 -78 -9 -153 -12 -75 -3
-148 -7 -163 -9 -33 -5 -43 18 -34 79 6 41 7 41 44 38 20 -1 89 1 152 6 191
15 170 20 170 -42z"/>
<path d="M566 770 c-131 -4 -180 -8 -184 -17 -4 -13 46 -17 160 -13 l47 1 3
-52 c4 -72 26 -77 30 -7 l3 53 56 3 56 3 6 -57 c6 -61 22 -89 33 -60 3 9 4 34
0 56 -10 65 -4 70 85 70 64 0 79 3 79 15 0 16 -5 16 -374 5z"/>
<path d="M633 526 c-18 -25 -66 -72 -107 -107 -70 -57 -84 -79 -52 -79 7 0 50
34 95 76 57 54 85 73 94 67 50 -38 320 -111 341 -92 15 14 3 20 -76 35 -73 15
-234 70 -252 86 -6 5 -5 13 2 20 7 7 12 18 12 25 0 26 -27 12 -57 -31z"/>
</g>
</svg>
