<?xml version="1.0" standalone="no"?>
<!DOCTYPE svg PUBLIC "-//W3C//DTD SVG 20010904//EN"
 "http://www.w3.org/TR/2001/REC-SVG-20010904/DTD/svg10.dtd">
<svg version="1.0" xmlns="http://www.w3.org/2000/svg"
 width="135.000000pt" height="135.000000pt" viewBox="0 0 135.000000 135.000000"
 preserveAspectRatio="xMidYMid meet">
<metadata>
Created by potrace 1.16, written by Peter Selinger 2001-2019
</metadata>
<g transform="translate(0.000000,135.000000) scale(0.100000,-0.100000)"
fill="#000000" stroke="none">
<path d="M4 675 c-1 -374 1 -668 3 -653 l4 28 672 3 672 2 -672 3 -673 2 0 75
c0 68 2 75 20 75 11 0 20 5 20 10 0 6 -9 10 -20 10 -19 0 -20 7 -20 110 l0
110 25 0 c14 0 25 5 25 10 0 6 -11 10 -25 10 l-25 0 0 159 c0 158 0 160 23
164 l22 4 -22 2 c-22 1 -23 5 -23 96 0 95 0 95 25 95 14 0 25 5 25 10 0 6 -11
10 -25 10 l-25 0 -3 173 c-1 94 -3 -134 -3 -508z"/>
<path d="M826 1018 c3 -101 11 -191 16 -201 16 -31 26 -9 22 51 -2 31 -7 119
-10 195 -5 111 -9 137 -21 137 -12 0 -13 -26 -7 -182z"/>
<path d="M477 1129 c-98 -8 -117 -13 -117 -30 0 -8 26 -9 95 -4 52 4 95 4 95
0 0 -10 -99 -153 -153 -223 -33 -42 -46 -67 -40 -73 12 -12 76 57 125 133 l31
48 40 -36 c50 -45 145 -90 159 -76 14 14 1 32 -21 32 -23 0 -140 75 -147 94
-3 8 6 34 20 59 29 48 33 73 14 79 -7 2 -53 1 -101 -3z"/>
<path d="M1295 1000 c3 -5 17 -10 31 -10 13 0 24 5 24 10 0 6 -14 10 -31 10
-17 0 -28 -4 -24 -10z"/>
<path d="M1318 793 c6 -2 18 -2 25 0 6 3 1 5 -13 5 -14 0 -19 -2 -12 -5z"/>
<path d="M545 719 c-4 -6 -5 -12 -4 -14 2 -2 69 -5 148 -7 100 -2 145 0 148 8
6 18 -33 24 -164 24 -76 0 -124 -4 -128 -11z"/>
<path d="M830 650 c-30 -4 -112 -13 -182 -21 -70 -7 -133 -16 -139 -20 -18
-11 0 -30 24 -24 12 2 94 12 182 20 177 18 198 22 192 38 -5 15 -13 16 -77 7z"/>
<path d="M650 543 c-8 -3 -26 -15 -38 -27 -57 -51 -70 -131 -26 -165 31 -24
122 -46 157 -37 68 17 129 113 105 164 -26 53 -134 88 -198 65z m130 -43 c56
-28 56 -67 0 -122 -37 -38 -43 -40 -81 -34 -23 4 -56 13 -75 21 -27 11 -34 20
-34 42 0 35 37 96 53 90 7 -3 21 1 32 9 26 19 59 17 105 -6z"/>
<path d="M1295 460 c3 -5 17 -10 31 -10 13 0 24 5 24 10 0 6 -14 10 -31 10
-17 0 -28 -4 -24 -10z"/>
<path d="M1310 220 c0 -5 9 -10 20 -10 11 0 20 5 20 10 0 6 -9 10 -20 10 -11
0 -20 -4 -20 -10z"/>
</g>
</svg>
