<?xml version="1.0" standalone="no"?>
<!DOCTYPE svg PUBLIC "-//W3C//DTD SVG 20010904//EN"
 "http://www.w3.org/TR/2001/REC-SVG-20010904/DTD/svg10.dtd">
<svg version="1.0" xmlns="http://www.w3.org/2000/svg"
 width="135.000000pt" height="135.000000pt" viewBox="0 0 135.000000 135.000000"
 preserveAspectRatio="xMidYMid meet">
<metadata>
Created by potrace 1.16, written by Peter Selinger 2001-2019
</metadata>
<g transform="translate(0.000000,135.000000) scale(0.100000,-0.100000)"
fill="#000000" stroke="none">
<path d="M2 708 l-2 -648 675 0 675 0 -2 648 c-1 356 -4 576 -5 490 l-4 -158
-24 0 c-14 0 -25 -4 -25 -10 0 -5 11 -10 25 -10 25 0 25 0 25 -94 0 -90 -1
-95 -22 -99 l-23 -4 23 -2 c22 -1 22 -2 22 -161 l0 -160 -25 0 c-14 0 -25 -4
-25 -10 0 -5 11 -10 25 -10 l25 0 0 -109 c0 -106 -1 -110 -22 -114 l-23 -4 23
-8 c20 -7 22 -13 22 -81 l0 -74 -665 0 -665 0 0 75 c0 68 2 75 20 75 11 0 20
5 20 10 0 6 -9 10 -20 10 -19 0 -20 7 -20 110 0 110 0 110 24 110 14 0 28 5
31 10 4 6 -7 10 -24 10 l-31 0 0 159 c0 158 0 160 23 164 l22 4 -22 2 c-22 1
-23 5 -23 96 0 94 0 95 24 95 14 0 28 5 31 10 4 6 -6 10 -24 10 l-30 0 -4 158
c-1 86 -4 -134 -5 -490z"/>
<path d="M493 1263 c-7 -2 -13 -12 -13 -20 0 -9 -21 -52 -46 -95 -77 -134 -99
-198 -69 -198 8 0 15 5 15 12 0 6 16 45 37 85 l36 74 69 -68 c56 -56 68 -73
68 -100 0 -42 18 -42 32 0 10 28 74 156 84 166 2 2 38 -20 80 -48 51 -34 81
-48 87 -42 12 12 -15 37 -95 87 l-58 35 25 48 c22 45 23 61 3 61 -4 0 -22 -28
-39 -62 -17 -35 -47 -91 -66 -126 l-36 -63 -34 33 c-19 18 -49 50 -65 71 l-31
39 26 54 c15 30 27 57 27 59 0 6 -21 5 -37 -2z"/>
<path d="M606 883 c-3 -3 -6 -32 -6 -63 l0 -57 -120 -9 c-106 -9 -155 -23
-139 -39 3 -3 53 -1 110 5 57 5 169 15 249 20 179 13 241 22 240 35 0 11 -42
11 -202 0 l-108 -8 0 56 c0 52 -9 75 -24 60z"/>
<path d="M533 623 c-49 -3 -63 -7 -63 -20 0 -14 13 -15 115 -9 64 3 133 3 155
0 l39 -6 3 -107 c2 -64 7 -105 13 -104 16 4 24 215 9 232 -14 15 -152 22 -271
14z"/>
</g>
</svg>
