<?xml version="1.0" standalone="no"?>
<!DOCTYPE svg PUBLIC "-//W3C//DTD SVG 20010904//EN"
 "http://www.w3.org/TR/2001/REC-SVG-20010904/DTD/svg10.dtd">
<svg version="1.0" xmlns="http://www.w3.org/2000/svg"
 width="135.000000pt" height="135.000000pt" viewBox="0 0 135.000000 135.000000"
 preserveAspectRatio="xMidYMid meet">
<metadata>
Created by potrace 1.16, written by Peter Selinger 2001-2019
</metadata>
<g transform="translate(0.000000,135.000000) scale(0.100000,-0.100000)"
fill="#000000" stroke="none">
<path d="M730 1085 c-36 -7 -87 -15 -115 -18 -27 -2 -88 -14 -135 -25 -47 -11
-98 -22 -113 -24 -37 -4 -39 -22 -4 -26 24 -3 131 17 190 34 17 5 18 -1 15
-78 -2 -45 -7 -91 -12 -100 -6 -13 -4 -18 8 -18 26 0 36 35 36 125 0 69 3 86
13 82 8 -3 43 1 78 9 112 24 109 25 109 -59 0 -43 -5 -78 -12 -85 -9 -9 -9
-15 1 -24 25 -25 41 19 41 114 0 106 -5 111 -100 93z"/>
<path d="M780 774 c-19 -2 -98 -11 -175 -19 -77 -8 -158 -16 -179 -18 -23 -1
-41 -8 -44 -16 -4 -12 14 -13 109 -8 63 4 126 10 142 13 l27 6 0 -61 c0 -61
12 -101 29 -101 5 0 7 36 4 79 -7 93 -16 86 130 96 67 5 97 11 94 18 -4 12
-72 17 -137 11z"/>
<path d="M814 524 c-6 -3 -78 -10 -160 -17 -120 -11 -148 -16 -146 -28 2 -8 6
-48 9 -89 3 -41 12 -85 19 -97 13 -21 21 -23 112 -22 53 1 137 4 187 8 77 5
90 9 93 25 3 13 0 17 -11 13 -8 -3 -90 -9 -182 -13 -138 -6 -169 -5 -176 7 -5
8 -9 46 -9 84 l0 71 133 12 c163 16 187 21 187 38 0 13 -32 18 -56 8z"/>
</g>
</svg>
