<?xml version="1.0" standalone="no"?>
<!DOCTYPE svg PUBLIC "-//W3C//DTD SVG 20010904//EN"
 "http://www.w3.org/TR/2001/REC-SVG-20010904/DTD/svg10.dtd">
<svg version="1.0" xmlns="http://www.w3.org/2000/svg"
 width="135.000000pt" height="135.000000pt" viewBox="0 0 135.000000 135.000000"
 preserveAspectRatio="xMidYMid meet">
<metadata>
Created by potrace 1.16, written by Peter Selinger 2001-2019
</metadata>
<g transform="translate(0.000000,135.000000) scale(0.100000,-0.100000)"
fill="#000000" stroke="none">
<path d="M785 1018 c-10 -25 9 -393 20 -393 6 0 11 39 13 92 l3 92 57 6 c73 8
85 12 79 28 -4 13 -20 14 -88 3 l-46 -7 -7 38 c-3 21 -6 61 -6 90 0 50 -15 79
-25 51z"/>
<path d="M676 923 c7 -62 6 -67 -9 -55 -11 10 -31 12 -71 7 l-55 -7 -3 43 c-2
31 -7 44 -18 44 -12 0 -14 -10 -12 -46 4 -51 -6 -59 -75 -59 l-33 0 0 55 c0
42 -3 55 -15 55 -12 0 -15 -16 -15 -84 0 -45 3 -111 7 -146 l6 -62 41 6 c23 4
85 9 139 12 153 8 147 3 147 133 0 126 -7 171 -27 171 -11 0 -12 -13 -7 -67z
m4 -132 c0 -69 -3 -71 -92 -71 l-60 0 6 31 c3 17 6 44 6 60 0 27 1 28 63 32
34 2 65 4 70 5 4 1 7 -25 7 -57z m-176 -13 c-4 -29 -8 -55 -10 -56 -3 -4 -78
-22 -80 -19 -1 1 -5 28 -8 59 l-7 57 48 4 c26 2 52 4 56 5 4 1 5 -22 1 -50z"/>
<path d="M476 571 c-11 -17 17 -251 30 -251 6 0 31 7 54 15 24 8 51 13 60 10
9 -3 25 1 36 9 18 14 18 15 1 22 -18 6 -71 1 -113 -11 -20 -6 -22 -2 -28 67
-13 140 -22 169 -40 139z"/>
<path d="M722 566 c-109 -15 -107 -32 4 -28 70 3 84 1 77 -10 -4 -7 -29 -45
-55 -84 -27 -39 -48 -76 -48 -83 0 -25 27 -8 53 34 16 25 33 47 38 50 4 3 27
-8 50 -25 46 -33 109 -42 109 -15 0 9 -9 15 -25 15 -29 0 -105 47 -105 64 0 6
9 25 20 41 39 59 32 62 -118 41z"/>
</g>
</svg>
