<?xml version="1.0" standalone="no"?>
<!DOCTYPE svg PUBLIC "-//W3C//DTD SVG 20010904//EN"
 "http://www.w3.org/TR/2001/REC-SVG-20010904/DTD/svg10.dtd">
<svg version="1.0" xmlns="http://www.w3.org/2000/svg"
 width="135.000000pt" height="135.000000pt" viewBox="0 0 135.000000 135.000000"
 preserveAspectRatio="xMidYMid meet">
<metadata>
Created by potrace 1.16, written by Peter Selinger 2001-2019
</metadata>
<g transform="translate(0.000000,135.000000) scale(0.100000,-0.100000)"
fill="#000000" stroke="none">
<path d="M12 1180 c-5 -331 -3 -1172 2 -1178 3 -3 6 7 6 21 l0 27 668 3 667 2
-667 3 -668 2 0 75 c0 68 2 75 20 75 11 0 20 5 20 10 0 6 -9 10 -20 10 -19 0
-20 7 -20 110 0 110 0 110 24 110 14 0 28 5 31 10 4 6 -7 10 -24 10 l-31 0 0
159 c0 158 0 160 23 164 l22 4 -22 2 c-22 1 -23 5 -23 96 0 94 0 95 24 95 14
0 28 5 31 10 4 6 -6 10 -24 10 l-31 0 -3 173 -3 172 -2 -175z"/>
<path d="M815 909 c-5 -177 -4 -274 3 -281 6 -6 12 -6 16 0 3 5 9 132 12 281
6 240 5 271 -8 271 -13 0 -16 -37 -23 -271z"/>
<path d="M530 1126 l-105 -11 -8 -55 c-13 -84 -13 -158 0 -171 9 -9 39 -8 124
4 61 9 114 19 117 22 3 3 1 10 -4 15 -7 7 -44 5 -109 -5 -54 -8 -100 -14 -101
-12 -1 1 -5 14 -9 29 -6 24 -3 29 20 38 14 5 55 10 90 10 68 0 124 15 109 29
-5 5 -53 6 -106 2 l-98 -6 0 31 c0 36 6 38 105 49 89 9 105 14 105 30 0 8 -6
14 -12 14 -7 -1 -60 -7 -118 -13z"/>
<path d="M1300 1000 c0 -5 11 -10 25 -10 14 0 25 5 25 10 0 6 -11 10 -25 10
-14 0 -25 -4 -25 -10z"/>
<path d="M680 842 c-14 -3 -83 -12 -154 -21 -90 -11 -131 -20 -134 -30 -4 -11
12 -12 90 -6 l95 7 6 -57 c6 -62 10 -70 26 -61 7 5 8 29 4 66 l-6 59 52 7 c51
7 71 19 55 33 -5 4 -20 5 -34 3z"/>
<path d="M1318 793 c6 -2 18 -2 25 0 6 3 1 5 -13 5 -14 0 -19 -2 -12 -5z"/>
<path d="M755 591 c-26 -4 -40 -11 -40 -21 0 -8 5 -14 10 -14 6 1 38 5 73 8
l62 7 0 -58 c0 -109 12 -193 27 -193 12 0 13 21 7 128 -4 70 -11 133 -17 140
-10 12 -52 14 -122 3z"/>
<path d="M525 569 c-38 -5 -76 -16 -84 -24 -13 -13 -13 -15 -1 -16 8 -1 18 -1
22 0 67 9 191 20 197 17 4 -3 5 -24 2 -48 l-6 -43 -90 -8 c-49 -4 -96 -9 -102
-12 -16 -5 -17 -82 -3 -119 10 -28 37 -34 71 -16 11 6 39 12 62 13 23 2 48 6
55 11 17 10 15 46 -3 46 -8 0 -15 -4 -15 -10 0 -5 -12 -10 -27 -10 -16 -1 -46
-7 -68 -15 -45 -16 -55 -9 -55 41 0 30 2 31 53 38 28 3 71 6 93 6 51 0 60 10
69 78 11 85 -4 92 -170 71z"/>
<path d="M1300 460 c0 -5 11 -10 25 -10 14 0 25 5 25 10 0 6 -11 10 -25 10
-14 0 -25 -4 -25 -10z"/>
<path d="M1315 220 c3 -5 13 -10 21 -10 8 0 14 5 14 10 0 6 -9 10 -21 10 -11
0 -17 -4 -14 -10z"/>
</g>
</svg>
