<?xml version="1.0" standalone="no"?>
<!DOCTYPE svg PUBLIC "-//W3C//DTD SVG 20010904//EN"
 "http://www.w3.org/TR/2001/REC-SVG-20010904/DTD/svg10.dtd">
<svg version="1.0" xmlns="http://www.w3.org/2000/svg"
 width="135.000000pt" height="135.000000pt" viewBox="0 0 135.000000 135.000000"
 preserveAspectRatio="xMidYMid meet">
<metadata>
Created by potrace 1.16, written by Peter Selinger 2001-2019
</metadata>
<g transform="translate(0.000000,135.000000) scale(0.100000,-0.100000)"
fill="#000000" stroke="none">
<path d="M4 675 c-1 -374 1 -665 3 -648 l4 33 672 3 672 2 -672 3 -673 2 0 80
c0 73 2 80 20 80 11 0 20 5 20 10 0 6 -9 10 -20 10 -19 0 -20 7 -20 105 0 105
0 105 24 105 14 0 28 5 31 10 4 6 -7 10 -24 10 l-31 0 0 160 c0 153 1 160 20
160 11 0 20 5 20 10 0 6 -9 10 -20 10 -19 0 -20 7 -20 90 0 89 0 90 24 90 14
0 28 5 31 10 4 6 -6 10 -24 10 l-31 0 -3 168 c-1 92 -3 -139 -3 -513z"/>
<path d="M521 1209 c-68 -5 -126 -11 -128 -13 -12 -12 12 -26 43 -26 l34 0 0
-84 c0 -46 3 -91 6 -100 5 -12 -4 -15 -43 -18 -26 -2 -48 -7 -48 -13 0 -16 53
-18 145 -6 47 6 106 12 132 13 43 2 66 16 51 32 -3 3 -31 3 -62 0 l-56 -6 3
94 3 94 40 10 c43 10 57 28 24 30 -11 1 -76 -2 -144 -7z m46 -126 l-5 -98 -33
-3 -34 -3 3 101 3 100 36 0 35 0 -5 -97z"/>
<path d="M886 1208 c-3 -7 -6 -86 -9 -175 -2 -90 -7 -166 -10 -170 -4 -3 -43
-8 -87 -11 -44 -3 -83 -9 -86 -14 -13 -21 14 -27 91 -19 88 9 95 6 95 -46 0
-31 14 -52 23 -36 3 5 6 113 8 242 3 181 1 235 -8 238 -7 3 -15 -1 -17 -9z"/>
<path d="M1300 1010 c0 -5 11 -10 25 -10 14 0 25 5 25 10 0 6 -11 10 -25 10
-14 0 -25 -4 -25 -10z"/>
<path d="M645 904 c-38 -8 -110 -18 -160 -22 -70 -5 -90 -10 -90 -22 0 -9 8
-14 20 -13 11 1 47 3 80 4 l60 3 5 -75 c4 -55 9 -75 20 -77 13 -2 15 10 12 77
l-4 80 38 6 c61 10 116 29 116 40 -1 15 -19 14 -97 -1z"/>
<path d="M1310 810 c0 -5 9 -10 20 -10 11 0 20 5 20 10 0 6 -9 10 -20 10 -11
0 -20 -4 -20 -10z"/>
<path d="M640 590 c-165 -6 -198 -23 -53 -28 l93 -3 -7 -62 c-10 -87 -10 -116
2 -117 12 -2 22 41 30 122 l6 56 80 7 c44 4 83 4 87 0 13 -13 30 -149 20 -168
-5 -9 -6 -22 -3 -27 9 -14 32 -1 39 22 7 27 -14 179 -27 196 -6 7 -30 11 -66
10 -31 -1 -121 -5 -201 -8z"/>
<path d="M1300 470 c0 -5 11 -10 25 -10 14 0 25 5 25 10 0 6 -11 10 -25 10
-14 0 -25 -4 -25 -10z"/>
<path d="M1310 240 c0 -5 9 -10 20 -10 11 0 20 5 20 10 0 6 -9 10 -20 10 -11
0 -20 -4 -20 -10z"/>
</g>
</svg>
