<?xml version="1.0" standalone="no"?>
<!DOCTYPE svg PUBLIC "-//W3C//DTD SVG 20010904//EN"
 "http://www.w3.org/TR/2001/REC-SVG-20010904/DTD/svg10.dtd">
<svg version="1.0" xmlns="http://www.w3.org/2000/svg"
 width="135.000000pt" height="135.000000pt" viewBox="0 0 135.000000 135.000000"
 preserveAspectRatio="xMidYMid meet">
<metadata>
Created by potrace 1.16, written by Peter Selinger 2001-2019
</metadata>
<g transform="translate(0.000000,135.000000) scale(0.100000,-0.100000)"
fill="#000000" stroke="none">
<path d="M0 675 c0 -443 3 -675 10 -675 6 0 10 7 10 15 0 13 81 15 665 15 437
0 665 3 665 10 0 7 -228 10 -665 10 l-665 0 0 74 c0 69 2 75 22 79 l23 4 -22
8 c-22 7 -23 12 -23 111 l0 104 25 0 c14 0 25 5 25 10 0 6 -11 10 -25 10 l-25
0 0 159 c0 156 0 159 23 166 l22 8 -23 4 c-21 4 -22 9 -22 94 0 88 0 89 25 89
14 0 25 5 25 10 0 6 -11 10 -25 10 l-25 0 0 180 c0 113 -4 180 -10 180 -7 0
-10 -232 -10 -675z"/>
<path d="M917 1184 c-4 -4 -7 -46 -7 -93 l0 -86 -50 -3 -50 -3 0 80 c0 69 -3
81 -16 81 -15 0 -16 -18 -11 -186 3 -115 9 -190 16 -197 22 -22 28 9 18 96 -5
48 -8 89 -6 91 2 2 25 6 50 8 l46 5 7 -121 c8 -124 11 -140 26 -131 11 7 1
446 -9 458 -4 4 -10 4 -14 1z"/>
<path d="M519 1146 c-108 -16 -110 -19 -107 -135 l3 -96 53 -3 c51 -3 52 -3
52 -35 0 -63 -9 -77 -49 -77 -38 0 -70 -14 -59 -26 9 -8 228 -8 268 1 17 4 29
12 27 18 -2 8 -29 11 -83 9 l-79 -4 3 61 4 61 47 0 c26 0 52 5 59 12 8 8 12
47 12 110 0 128 1 127 -151 104z m118 -109 l2 -84 -91 -6 c-51 -3 -95 -4 -100
-1 -4 3 -8 39 -8 79 0 70 2 75 23 80 30 8 160 22 168 19 3 -2 6 -41 6 -87z"/>
<path d="M1290 980 c0 -5 14 -10 30 -10 17 0 30 5 30 10 0 6 -13 10 -30 10
-16 0 -30 -4 -30 -10z"/>
<path d="M1305 780 c3 -5 15 -10 26 -10 10 0 19 5 19 10 0 6 -12 10 -26 10
-14 0 -23 -4 -19 -10z"/>
<path d="M647 661 c-153 -9 -119 -26 62 -29 l159 -2 4 -41 c4 -49 9 -48 -174
-51 -89 -2 -141 -7 -149 -15 -17 -17 8 -171 30 -182 9 -5 50 -4 91 0 79 10
254 14 280 8 8 -2 15 3 15 11 0 23 -73 29 -210 19 -179 -13 -161 -18 -174 53
-8 48 -8 64 2 70 6 4 71 8 144 8 72 0 143 4 157 10 23 8 26 15 26 59 0 59 -17
81 -63 81 -18 0 -48 2 -67 4 -19 1 -79 0 -133 -3z"/>
<path d="M1290 440 c0 -5 14 -10 30 -10 17 0 30 5 30 10 0 6 -13 10 -30 10
-16 0 -30 -4 -30 -10z"/>
<path d="M1305 210 c-4 -6 5 -10 19 -10 14 0 26 5 26 10 0 6 -9 10 -19 10 -11
0 -23 -4 -26 -10z"/>
</g>
</svg>
