<?xml version="1.0" standalone="no"?>
<!DOCTYPE svg PUBLIC "-//W3C//DTD SVG 20010904//EN"
 "http://www.w3.org/TR/2001/REC-SVG-20010904/DTD/svg10.dtd">
<svg version="1.0" xmlns="http://www.w3.org/2000/svg"
 width="135.000000pt" height="135.000000pt" viewBox="0 0 135.000000 135.000000"
 preserveAspectRatio="xMidYMid meet">
<metadata>
Created by potrace 1.16, written by Peter Selinger 2001-2019
</metadata>
<g transform="translate(0.000000,135.000000) scale(0.100000,-0.100000)"
fill="#000000" stroke="none">
<path d="M1340 1191 l0 -160 -27 -4 -28 -4 28 -2 27 -1 0 -94 c0 -90 -1 -95
-22 -99 l-23 -4 23 -2 c22 -1 22 -2 22 -161 l0 -160 -25 0 c-14 0 -25 -4 -25
-10 0 -5 11 -10 25 -10 l25 0 0 -110 c0 -103 -1 -110 -20 -110 -11 0 -20 -4
-20 -10 0 -5 9 -10 20 -10 18 0 20 -7 20 -75 l0 -75 -672 -3 -673 -2 672 -3
672 -2 4 -43 c2 -23 4 263 5 636 1 372 0 677 -3 677 -3 0 -5 -72 -5 -159z"/>
<path d="M874 1266 c-3 -8 -4 -113 -2 -233 3 -186 5 -218 18 -218 12 0 15 18
15 105 l0 105 63 9 c43 7 62 14 62 24 0 12 -12 14 -65 8 l-65 -7 0 111 c0 69
-4 110 -10 110 -6 0 -13 -6 -16 -14z"/>
<path d="M675 1229 c-38 -4 -127 -13 -197 -20 -112 -11 -128 -15 -128 -31 0
-16 6 -17 43 -12 23 3 52 7 65 10 22 4 22 3 22 -95 l0 -100 -45 -7 c-28 -4
-45 -11 -45 -20 0 -15 18 -16 97 -5 l51 7 4 -63 3 -63 -30 -5 c-16 -3 -52 -8
-80 -13 -27 -4 -49 -12 -47 -17 3 -13 91 -11 177 4 39 7 108 16 153 21 87 9
102 14 86 30 -9 9 -162 -1 -214 -15 l-26 -6 6 60 c3 33 8 62 11 65 3 3 38 10
78 16 79 11 91 15 91 32 0 7 -16 9 -45 5 l-45 -7 0 100 0 100 49 0 c28 0 52 4
55 9 12 19 -22 27 -89 20z m-45 -133 c0 -105 -1 -106 -82 -106 l-38 0 0 94 c0
105 -2 103 78 105 l42 1 0 -94z"/>
<path d="M13 1023 c9 -2 25 -2 35 0 9 3 1 5 -18 5 -19 0 -27 -2 -17 -5z"/>
<path d="M13 823 c9 -2 23 -2 30 0 6 3 -1 5 -18 5 -17 0 -22 -2 -12 -5z"/>
<path d="M643 700 c-37 -22 -83 -96 -83 -134 0 -46 26 -94 62 -112 18 -9 65
-19 104 -22 58 -4 77 -1 112 17 48 25 57 39 67 103 6 41 3 54 -19 92 -29 50
-53 61 -151 70 -49 4 -67 2 -92 -14z m170 -29 c37 -14 70 -74 62 -113 -12 -60
-15 -65 -55 -83 -29 -13 -54 -16 -97 -12 -79 7 -110 23 -124 64 -14 43 -6 74
30 115 26 30 34 33 94 36 36 1 76 -2 90 -7z"/>
<path d="M0 490 c0 -5 13 -10 30 -10 17 0 30 5 30 10 0 6 -13 10 -30 10 -17 0
-30 -4 -30 -10z"/>
<path d="M0 250 c0 -5 11 -10 25 -10 14 0 25 5 25 10 0 6 -11 10 -25 10 -14 0
-25 -4 -25 -10z"/>
</g>
</svg>
