<?xml version="1.0" standalone="no"?>
<!DOCTYPE svg PUBLIC "-//W3C//DTD SVG 20010904//EN"
 "http://www.w3.org/TR/2001/REC-SVG-20010904/DTD/svg10.dtd">
<svg version="1.0" xmlns="http://www.w3.org/2000/svg"
 width="135.000000pt" height="135.000000pt" viewBox="0 0 135.000000 135.000000"
 preserveAspectRatio="xMidYMid meet">
<metadata>
Created by potrace 1.16, written by Peter Selinger 2001-2019
</metadata>
<g transform="translate(0.000000,135.000000) scale(0.100000,-0.100000)"
fill="#000000" stroke="none">
<path d="M3 675 c0 -374 1 -672 4 -663 4 17 44 18 668 18 624 0 664 -1 668
-18 3 -9 4 289 4 663 -1 374 -3 598 -4 498 l-3 -183 -25 0 c-14 0 -25 -4 -25
-10 0 -5 11 -10 25 -10 25 0 25 -1 25 -89 0 -85 -1 -90 -22 -94 l-23 -4 23 -8
c22 -7 22 -10 22 -166 l0 -159 -25 0 c-14 0 -25 -4 -25 -10 0 -5 11 -10 25
-10 l25 0 0 -104 c0 -99 -1 -104 -22 -111 l-23 -8 23 -4 c20 -4 22 -10 22 -79
l0 -74 -665 0 -665 0 0 75 c0 68 2 75 20 75 11 0 20 5 20 10 0 6 -9 10 -20 10
-19 0 -20 7 -20 105 l0 105 25 0 c14 0 25 5 25 10 0 6 -11 10 -25 10 l-25 0 0
160 c0 153 1 160 20 160 11 0 20 5 20 10 0 6 -9 10 -20 10 -19 0 -20 7 -20 90
0 89 0 90 25 90 14 0 25 5 25 10 0 6 -11 10 -25 10 l-25 0 -3 183 c-1 100 -3
-124 -4 -498z"/>
<path d="M776 1120 c-10 -33 -17 -338 -7 -344 5 -4 12 -2 15 3 12 19 19 317 8
337 -9 15 -12 16 -16 4z"/>
<path d="M510 1081 c-101 -8 -92 -26 13 -26 73 0 83 -2 88 -20 15 -54 3 -58
-151 -60 l-45 0 3 -90 c2 -50 9 -95 15 -102 17 -18 228 6 235 26 4 12 -11 13
-92 7 -54 -3 -103 -8 -109 -9 -8 -1 -13 21 -15 66 l-3 67 68 1 c99 1 116 8
126 51 11 45 -9 93 -38 94 -11 0 -54 -2 -95 -5z"/>
<path d="M445 670 c-8 -13 9 -19 70 -22 l50 -3 0 -67 c0 -36 3 -69 7 -73 12
-12 28 43 28 96 l0 49 68 0 c115 0 115 -1 110 -87 -3 -40 -1 -76 3 -79 17 -10
30 39 27 103 -3 60 -6 69 -28 80 -31 16 -326 18 -335 3z"/>
</g>
</svg>
