<?xml version="1.0" standalone="no"?>
<!DOCTYPE svg PUBLIC "-//W3C//DTD SVG 20010904//EN"
 "http://www.w3.org/TR/2001/REC-SVG-20010904/DTD/svg10.dtd">
<svg version="1.0" xmlns="http://www.w3.org/2000/svg"
 width="135.000000pt" height="135.000000pt" viewBox="0 0 135.000000 135.000000"
 preserveAspectRatio="xMidYMid meet">
<metadata>
Created by potrace 1.16, written by Peter Selinger 2001-2019
</metadata>
<g transform="translate(0.000000,135.000000) scale(0.100000,-0.100000)"
fill="#000000" stroke="none">
<path d="M1340 1186 l0 -165 -27 -4 -28 -4 28 -2 27 -1 0 -94 c0 -90 -1 -95
-22 -99 l-23 -4 23 -2 c22 -1 22 -2 22 -165 l0 -165 -27 -4 -28 -4 28 -2 27
-1 0 -110 c0 -103 -1 -110 -20 -110 -11 0 -20 -4 -20 -10 0 -5 9 -10 20 -10
18 0 20 -7 20 -75 l0 -75 -672 -3 -673 -2 672 -3 672 -2 4 -38 c2 -20 4 268 5
641 1 372 0 677 -3 677 -3 0 -5 -74 -5 -164z"/>
<path d="M614 1289 c-3 -6 -2 -15 3 -20 11 -11 114 -29 126 -22 15 9 -16 33
-44 33 -15 0 -39 4 -53 10 -17 6 -27 6 -32 -1z"/>
<path d="M660 1171 c-153 -5 -195 -9 -195 -19 0 -11 38 -13 190 -12 193 1 254
7 258 25 2 12 -9 12 -253 6z"/>
<path d="M641 1103 c-31 -6 -69 -31 -80 -52 -5 -9 -12 -35 -16 -58 -6 -37 -3
-45 19 -68 17 -17 36 -25 59 -25 l34 0 -8 -42 c-4 -24 -4 -47 1 -52 16 -17 30
6 30 50 0 38 3 44 20 44 42 0 90 29 107 64 16 34 16 38 0 71 -24 50 -98 80
-166 68z m120 -62 c35 -36 36 -42 5 -78 -21 -24 -32 -28 -93 -31 -84 -5 -106
9 -96 61 10 55 39 77 101 77 46 0 58 -4 83 -29z"/>
<path d="M13 1013 c9 -2 25 -2 35 0 9 3 1 5 -18 5 -19 0 -27 -2 -17 -5z"/>
<path d="M13 813 c9 -2 23 -2 30 0 6 3 -1 5 -18 5 -17 0 -22 -2 -12 -5z"/>
<path d="M656 789 c-184 -8 -245 -18 -203 -34 19 -8 482 11 497 20 5 3 10 10
10 16 0 10 -13 10 -304 -2z"/>
<path d="M795 733 c-27 -3 -55 -9 -62 -15 -15 -12 -19 -263 -4 -272 15 -10
173 13 197 29 22 14 23 20 22 127 -1 62 -5 119 -11 126 -9 12 -37 13 -142 5z
m121 -131 c3 -119 6 -115 -95 -116 l-66 -1 0 105 0 105 55 6 c110 12 103 18
106 -99z"/>
<path d="M551 698 c-25 -14 -26 -35 -1 -30 8 1 32 5 53 9 l37 6 0 -40 0 -40
-67 -9 -68 -9 0 -72 c0 -43 5 -77 12 -84 16 -16 135 0 141 20 4 12 -6 13 -56
8 -68 -7 -72 -4 -72 63 l0 38 58 7 c81 9 84 12 80 81 l-3 59 -45 3 c-25 1 -56
-3 -69 -10z"/>
<path d="M13 473 c9 -2 25 -2 35 0 9 3 1 5 -18 5 -19 0 -27 -2 -17 -5z"/>
<path d="M0 240 c0 -5 11 -10 25 -10 14 0 25 5 25 10 0 6 -11 10 -25 10 -14 0
-25 -4 -25 -10z"/>
</g>
</svg>
