<?xml version="1.0" standalone="no"?>
<!DOCTYPE svg PUBLIC "-//W3C//DTD SVG 20010904//EN"
 "http://www.w3.org/TR/2001/REC-SVG-20010904/DTD/svg10.dtd">
<svg version="1.0" xmlns="http://www.w3.org/2000/svg"
 width="135.000000pt" height="135.000000pt" viewBox="0 0 135.000000 135.000000"
 preserveAspectRatio="xMidYMid meet">
<metadata>
Created by potrace 1.16, written by Peter Selinger 2001-2019
</metadata>
<g transform="translate(0.000000,135.000000) scale(0.100000,-0.100000)"
fill="#000000" stroke="none">
<path d="M770 1109 c-36 -4 -114 -11 -175 -15 -74 -4 -115 -11 -127 -21 -25
-22 -26 -283 -2 -308 11 -11 25 -14 41 -10 14 3 97 12 186 21 154 14 193 23
167 39 -12 7 -229 -9 -322 -25 -26 -4 -50 -5 -53 -2 -3 3 -5 29 -5 57 l0 51
183 13 c100 7 186 17 191 22 20 19 -33 21 -195 9 -93 -7 -172 -11 -174 -8 -3
3 -2 32 1 65 l7 60 116 7 c194 12 246 19 246 35 0 19 -7 19 -85 10z"/>
<path d="M640 688 c-252 -18 -305 -26 -287 -44 6 -7 514 23 596 35 24 3 45 11
45 16 1 16 -59 15 -354 -7z"/>
<path d="M771 552 c-6 -21 -29 -68 -51 -104 -39 -65 -49 -98 -31 -98 5 0 25
25 45 57 26 41 37 52 41 40 9 -21 102 -84 139 -93 41 -10 30 15 -19 41 -21 11
-56 36 -78 55 -35 32 -39 38 -28 57 13 26 15 83 1 83 -5 0 -14 -17 -19 -38z"/>
<path d="M528 551 c-31 -9 -60 -19 -64 -23 -17 -18 33 -19 92 -3 36 10 68 15
71 11 4 -3 2 -19 -3 -34 -8 -24 -16 -28 -69 -35 -90 -13 -89 -11 -86 -103 1
-43 6 -83 11 -88 5 -5 35 -2 72 8 35 8 74 17 88 18 14 2 25 9 25 18 0 18 -53
16 -121 -5 l-44 -13 0 63 0 62 58 7 c41 5 63 13 76 28 22 25 37 74 29 94 -7
18 -61 17 -135 -5z"/>
</g>
</svg>
