<?xml version="1.0" standalone="no"?>
<!DOCTYPE svg PUBLIC "-//W3C//DTD SVG 20010904//EN"
 "http://www.w3.org/TR/2001/REC-SVG-20010904/DTD/svg10.dtd">
<svg version="1.0" xmlns="http://www.w3.org/2000/svg"
 width="135.000000pt" height="135.000000pt" viewBox="0 0 135.000000 135.000000"
 preserveAspectRatio="xMidYMid meet">
<metadata>
Created by potrace 1.16, written by Peter Selinger 2001-2019
</metadata>
<g transform="translate(0.000000,135.000000) scale(0.100000,-0.100000)"
fill="#000000" stroke="none">
<path d="M4 675 c0 -374 1 -661 3 -638 l4 43 672 3 672 2 -672 3 -673 2 0 75
c0 68 2 75 20 75 11 0 20 5 20 10 0 6 -9 10 -20 10 -19 0 -20 7 -20 110 l0
110 25 0 c14 0 25 5 25 10 0 6 -11 10 -25 10 l-25 0 0 159 c0 158 0 160 23
164 l22 4 -22 2 c-22 1 -23 5 -23 95 l0 95 28 4 27 4 -27 2 -28 1 -3 163 c-1
89 -3 -144 -3 -518z"/>
<path d="M616 1234 c-71 -8 -132 -17 -135 -19 -2 -3 0 -10 5 -15 7 -7 50 -6
130 2 66 6 127 9 136 6 13 -5 15 -19 10 -77 -3 -47 -1 -71 6 -71 16 0 19 9 27
86 6 59 4 74 -10 87 -9 10 -22 16 -28 16 -7 -1 -70 -8 -141 -15z"/>
<path d="M1303 1023 c9 -2 25 -2 35 0 9 3 1 5 -18 5 -19 0 -27 -2 -17 -5z"/>
<path d="M691 989 c-278 -11 -351 -18 -351 -35 0 -13 21 -14 140 -8 l140 7 0
-72 c0 -56 3 -71 15 -71 12 0 15 14 15 69 l0 68 46 7 c26 3 82 6 125 6 81 0
135 13 124 30 -3 5 -21 9 -38 8 -18 0 -115 -4 -216 -9z"/>
<path d="M1318 823 c6 -2 18 -2 25 0 6 3 1 5 -13 5 -14 0 -19 -2 -12 -5z"/>
<path d="M481 771 c-30 -3 -56 -12 -59 -18 -3 -10 17 -13 77 -13 l81 0 0 -35
0 -35 -75 0 c-57 0 -76 -4 -83 -16 -11 -19 5 -135 21 -150 8 -6 45 -9 100 -6
68 3 87 7 87 19 0 12 -15 14 -84 11 l-84 -3 -6 35 c-13 80 -14 79 72 82 l77 3
3 51 c4 72 -20 87 -127 75z"/>
<path d="M636 771 c-15 -23 8 -31 94 -31 l89 0 -2 -112 c-1 -62 2 -119 6 -126
19 -29 27 7 27 122 0 98 -3 126 -15 136 -20 17 -190 26 -199 11z"/>
<path d="M1295 490 c3 -5 17 -10 31 -10 13 0 24 5 24 10 0 6 -14 10 -31 10
-17 0 -28 -4 -24 -10z"/>
<path d="M1310 250 c0 -5 9 -10 20 -10 11 0 20 5 20 10 0 6 -9 10 -20 10 -11
0 -20 -4 -20 -10z"/>
</g>
</svg>
