<?xml version="1.0" standalone="no"?>
<!DOCTYPE svg PUBLIC "-//W3C//DTD SVG 20010904//EN"
 "http://www.w3.org/TR/2001/REC-SVG-20010904/DTD/svg10.dtd">
<svg version="1.0" xmlns="http://www.w3.org/2000/svg"
 width="135.000000pt" height="135.000000pt" viewBox="0 0 135.000000 135.000000"
 preserveAspectRatio="xMidYMid meet">
<metadata>
Created by potrace 1.16, written by Peter Selinger 2001-2019
</metadata>
<g transform="translate(0.000000,135.000000) scale(0.100000,-0.100000)"
fill="#000000" stroke="none">
<path d="M4 675 c-1 -374 1 -665 3 -648 l4 33 672 3 672 2 -672 3 -673 2 0 80
c0 73 2 80 20 80 11 0 20 5 20 10 0 6 -9 10 -20 10 -19 0 -20 7 -20 105 l0
105 25 0 c14 0 25 5 25 10 0 6 -11 10 -25 10 l-25 0 0 160 c0 153 1 160 20
160 11 0 20 5 20 10 0 6 -9 10 -20 10 -19 0 -20 7 -20 90 0 89 0 90 25 90 14
0 25 5 25 10 0 6 -11 10 -25 10 l-25 0 -3 168 c-1 92 -3 -139 -3 -513z"/>
<path d="M700 1204 c-219 -23 -255 -29 -250 -39 3 -5 33 -10 68 -9 l62 1 0
-67 c0 -37 3 -81 6 -98 l6 -30 -71 -13 c-40 -7 -74 -16 -77 -21 -14 -22 13
-24 93 -8 49 10 148 23 221 30 89 9 132 16 129 24 -3 7 -30 10 -76 8 l-71 -2
2 100 3 100 37 0 c20 0 43 3 52 6 19 7 22 35 4 33 -7 -1 -69 -8 -138 -15z m14
-121 c-4 -49 -11 -94 -17 -100 -5 -7 -24 -13 -42 -13 -28 0 -33 4 -39 31 -8
42 -8 154 1 162 3 4 28 7 55 7 l49 0 -7 -87z"/>
<path d="M1295 1010 c3 -5 17 -10 31 -10 13 0 24 5 24 10 0 6 -14 10 -31 10
-17 0 -28 -4 -24 -10z"/>
<path d="M769 856 c-6 -6 -288 -34 -324 -33 -21 2 -30 -3 -30 -13 0 -12 16
-15 89 -13 49 0 102 4 117 7 l28 5 3 -67 c2 -50 7 -67 17 -67 12 0 14 13 13
55 -1 30 1 60 5 66 11 16 102 34 167 34 39 0 55 4 60 15 4 12 -7 15 -68 15
-40 0 -75 -2 -77 -4z"/>
<path d="M1310 810 c0 -5 9 -10 20 -10 11 0 20 5 20 10 0 6 -9 10 -20 10 -11
0 -20 -4 -20 -10z"/>
<path d="M752 688 c3 -7 25 -20 49 -29 l44 -17 -40 -7 c-76 -12 -85 -15 -85
-31 0 -12 6 -15 23 -11 12 3 50 9 85 13 52 6 62 10 62 26 0 15 -5 18 -20 13
-14 -5 -20 -2 -20 10 0 9 -15 22 -35 31 -42 17 -68 18 -63 2z"/>
<path d="M527 673 c-3 -5 -8 -50 -12 -100 -6 -78 -5 -97 9 -118 10 -14 22 -23
28 -19 6 4 50 10 97 13 67 5 86 9 86 21 0 15 -7 15 -165 6 l-25 -1 3 96 c2 58
-1 99 -7 103 -5 4 -12 3 -14 -1z"/>
<path d="M791 562 c-26 -8 -45 -53 -35 -85 7 -22 66 -67 88 -67 24 0 86 63 86
87 0 45 -81 82 -139 65z m98 -46 c15 -18 5 -41 -24 -60 -22 -15 -26 -14 -54
10 -25 21 -29 29 -21 45 13 23 81 27 99 5z"/>
<path d="M1295 470 c3 -5 17 -10 31 -10 13 0 24 5 24 10 0 6 -14 10 -31 10
-17 0 -28 -4 -24 -10z"/>
<path d="M1310 240 c0 -5 9 -10 20 -10 11 0 20 5 20 10 0 6 -9 10 -20 10 -11
0 -20 -4 -20 -10z"/>
</g>
</svg>
