<?xml version="1.0" standalone="no"?>
<!DOCTYPE svg PUBLIC "-//W3C//DTD SVG 20010904//EN"
 "http://www.w3.org/TR/2001/REC-SVG-20010904/DTD/svg10.dtd">
<svg version="1.0" xmlns="http://www.w3.org/2000/svg"
 width="135.000000pt" height="135.000000pt" viewBox="0 0 135.000000 135.000000"
 preserveAspectRatio="xMidYMid meet">
<metadata>
Created by potrace 1.16, written by Peter Selinger 2001-2019
</metadata>
<g transform="translate(0.000000,135.000000) scale(0.100000,-0.100000)"
fill="#000000" stroke="none">
<path d="M4 675 c0 -374 1 -661 3 -638 l4 43 672 3 672 2 -672 3 -673 2 0 75
c0 68 2 75 20 75 11 0 20 5 20 10 0 6 -9 10 -20 10 -19 0 -20 7 -20 110 0 110
0 110 24 110 14 0 28 5 31 10 4 6 -7 10 -24 10 l-31 0 0 159 c0 158 0 160 23
164 l22 4 -22 2 c-22 1 -23 5 -23 95 l0 95 33 4 32 4 -32 1 -33 2 -3 163 c-1
89 -3 -144 -3 -518z"/>
<path d="M739 1196 c-2 -2 -56 -6 -119 -10 -177 -9 -230 -17 -230 -32 0 -12
21 -13 115 -8 l115 7 0 -24 c0 -13 -5 -58 -10 -99 -6 -44 -6 -78 -1 -83 16
-16 29 26 36 119 l7 91 80 7 c43 4 84 4 90 0 7 -5 9 -42 5 -116 -5 -83 -4
-109 5 -106 17 6 27 58 29 146 2 90 -13 112 -76 112 -23 0 -44 -2 -46 -4z"/>
<path d="M1313 1023 c9 -2 23 -2 30 0 6 3 -1 5 -18 5 -16 0 -22 -2 -12 -5z"/>
<path d="M604 877 c-10 -26 0 -120 14 -125 9 -3 12 14 12 62 0 61 -14 95 -26
63z"/>
<path d="M1318 823 c6 -2 18 -2 25 0 6 3 1 5 -13 5 -14 0 -19 -2 -12 -5z"/>
<path d="M730 749 c-258 -15 -325 -22 -325 -38 0 -17 75 -17 200 -1 39 5 122
10 186 10 64 0 119 3 122 7 9 8 -12 33 -27 31 -6 0 -76 -5 -156 -9z"/>
<path d="M645 634 c-16 -2 -58 -7 -93 -10 l-63 -6 3 -111 c2 -77 7 -112 16
-115 9 -3 12 21 12 96 l0 100 30 5 c16 4 90 10 164 13 l135 7 6 -24 c8 -32
-13 -161 -27 -170 -7 -4 -71 -7 -144 -7 -73 0 -137 -3 -143 -6 -32 -20 1 -26
142 -26 136 0 156 2 170 18 23 25 43 161 31 204 l-10 33 -99 1 c-55 1 -113 0
-130 -2z"/>
<path d="M1300 490 c0 -5 11 -10 25 -10 14 0 25 5 25 10 0 6 -11 10 -25 10
-14 0 -25 -4 -25 -10z"/>
<path d="M1310 250 c0 -5 9 -10 20 -10 11 0 20 5 20 10 0 6 -9 10 -20 10 -11
0 -20 -4 -20 -10z"/>
</g>
</svg>
