<?xml version="1.0" standalone="no"?>
<!DOCTYPE svg PUBLIC "-//W3C//DTD SVG 20010904//EN"
 "http://www.w3.org/TR/2001/REC-SVG-20010904/DTD/svg10.dtd">
<svg version="1.0" xmlns="http://www.w3.org/2000/svg"
 width="135.000000pt" height="135.000000pt" viewBox="0 0 135.000000 135.000000"
 preserveAspectRatio="xMidYMid meet">
<metadata>
Created by potrace 1.16, written by Peter Selinger 2001-2019
</metadata>
<g transform="translate(0.000000,135.000000) scale(0.100000,-0.100000)"
fill="#000000" stroke="none">
<path d="M833 1024 c-3 -9 4 -66 16 -128 20 -101 21 -130 15 -330 -6 -184 -5
-218 7 -214 13 4 18 58 28 275 l1 32 87 3 c58 2 88 7 91 16 3 9 -19 12 -87 12
l-91 0 0 58 c0 31 -9 100 -20 152 -11 52 -20 105 -20 118 0 25 -18 30 -27 6z"/>
<path d="M611 960 c-61 -16 -83 -31 -63 -44 8 -5 67 8 130 28 l24 8 -4 -136
c-2 -100 0 -136 9 -136 20 0 22 11 25 142 3 169 2 171 -121 138z"/>
<path d="M440 926 c-87 -25 -130 -41 -130 -49 0 -17 32 -18 70 -3 22 9 58 20
80 25 l40 9 0 -72 c-1 -39 -5 -91 -10 -116 -5 -27 -5 -49 1 -55 18 -18 27 11
39 122 16 155 8 167 -90 139z"/>
<path d="M589 654 c0 -5 -2 -42 -2 -83 l-2 -74 -70 -19 c-78 -22 -83 -24 -68
-39 7 -7 45 0 122 21 61 16 124 30 140 30 40 0 61 9 61 27 0 10 -9 13 -32 9
-18 -3 -52 -7 -75 -11 l-43 -5 0 64 c0 44 -5 67 -15 76 -8 7 -15 9 -16 4z"/>
</g>
</svg>
