<?xml version="1.0" standalone="no"?>
<!DOCTYPE svg PUBLIC "-//W3C//DTD SVG 20010904//EN"
 "http://www.w3.org/TR/2001/REC-SVG-20010904/DTD/svg10.dtd">
<svg version="1.0" xmlns="http://www.w3.org/2000/svg"
 width="135.000000pt" height="135.000000pt" viewBox="0 0 135.000000 135.000000"
 preserveAspectRatio="xMidYMid meet">
<metadata>
Created by potrace 1.16, written by Peter Selinger 2001-2019
</metadata>
<g transform="translate(0.000000,135.000000) scale(0.100000,-0.100000)"
fill="#000000" stroke="none">
<path d="M3 675 c0 -374 1 -672 4 -663 4 17 44 18 668 18 624 0 664 -1 668
-18 3 -9 4 289 4 663 -1 374 -3 598 -4 498 l-3 -183 -25 0 c-14 0 -25 -4 -25
-10 0 -5 11 -10 25 -10 25 0 25 -1 25 -89 0 -85 -1 -90 -22 -94 l-23 -4 23 -8
c22 -7 22 -10 22 -166 l0 -159 -25 0 c-14 0 -25 -4 -25 -10 0 -5 11 -10 25
-10 l25 0 0 -104 c0 -99 -1 -104 -22 -111 l-23 -8 23 -4 c20 -4 22 -10 22 -79
l0 -74 -665 0 -665 0 0 75 c0 68 2 75 20 75 11 0 20 5 20 10 0 6 -9 10 -20 10
-19 0 -20 7 -20 105 0 105 0 105 24 105 14 0 28 4 31 10 4 6 -7 10 -24 10
l-31 0 0 160 c0 153 1 160 20 160 11 0 20 5 20 10 0 6 -9 10 -20 10 -19 0 -20
7 -20 90 0 89 0 90 24 90 14 0 28 5 31 10 4 6 -6 10 -24 10 l-31 0 -3 183 c-1
100 -3 -124 -4 -498z"/>
<path d="M820 1077 c0 -41 -3 -135 -7 -210 -6 -127 -7 -136 -27 -141 -12 -3
-99 -8 -193 -12 -144 -6 -173 -9 -173 -22 0 -13 23 -14 180 -8 100 4 187 9
194 12 8 3 16 -5 20 -21 17 -67 26 -2 32 228 5 222 4 247 -10 247 -13 0 -16
-13 -16 -73z"/>
<path d="M560 1103 c-139 -9 -170 -15 -170 -29 0 -13 16 -14 108 -8 182 12
167 15 170 -32 4 -48 -6 -54 -98 -54 -30 0 -79 -3 -107 -6 l-53 -7 0 -51 c0
-28 5 -69 11 -90 l11 -39 129 6 c130 6 154 10 143 28 -3 6 -52 7 -129 3 l-123
-7 -7 57 c-4 31 -6 59 -4 61 2 2 57 8 123 13 79 7 122 15 127 24 13 20 11 112
-3 126 -12 12 -29 12 -128 5z"/>
<path d="M577 581 c-91 -8 -91 -25 1 -29 55 -2 72 -6 72 -17 0 -8 -3 -15 -7
-15 -31 0 -139 -23 -143 -30 -3 -5 -3 -41 0 -80 6 -79 17 -94 64 -85 16 3 48
5 72 5 34 0 44 4 44 16 0 13 -11 15 -72 12 l-73 -3 -3 57 c-3 63 -11 56 93 74
45 8 55 17 55 55 0 23 -17 51 -29 47 -4 -1 -36 -4 -74 -7z"/>
<path d="M717 584 c-10 -11 5 -217 17 -233 12 -16 120 -8 143 11 23 18 1 28
-42 18 -74 -17 -85 -14 -85 25 l0 34 68 3 c37 2 67 8 67 13 0 6 -30 11 -67 13
-48 2 -68 7 -68 16 0 8 -3 28 -6 45 l-6 31 66 0 c52 0 66 3 66 15 0 12 -15 15
-73 15 -41 0 -77 -3 -80 -6z"/>
</g>
</svg>
