<?xml version="1.0" standalone="no"?>
<!DOCTYPE svg PUBLIC "-//W3C//DTD SVG 20010904//EN"
 "http://www.w3.org/TR/2001/REC-SVG-20010904/DTD/svg10.dtd">
<svg version="1.0" xmlns="http://www.w3.org/2000/svg"
 width="135.000000pt" height="135.000000pt" viewBox="0 0 135.000000 135.000000"
 preserveAspectRatio="xMidYMid meet">
<metadata>
Created by potrace 1.16, written by Peter Selinger 2001-2019
</metadata>
<g transform="translate(0.000000,135.000000) scale(0.100000,-0.100000)"
fill="#000000" stroke="none">
<path d="M4 675 c0 -374 1 -663 3 -642 l4 37 664 0 664 0 4 -37 c2 -21 3 268
3 642 0 374 -2 605 -3 513 l-3 -167 -33 -4 -32 -4 33 -1 32 -2 0 -94 c0 -90
-1 -95 -22 -99 l-23 -4 23 -2 c22 -1 22 -2 22 -165 l0 -165 -32 -4 -33 -4 33
-1 32 -2 0 -110 c0 -103 -1 -110 -20 -110 -11 0 -20 -4 -20 -10 0 -5 9 -10 20
-10 18 0 20 -7 20 -75 l0 -75 -665 0 -665 0 0 74 c0 68 2 74 22 81 l23 8 -23
4 c-21 4 -22 8 -22 113 l0 109 28 4 27 4 -27 2 -28 1 0 164 c0 163 0 165 23
169 l22 4 -22 2 c-22 1 -23 5 -23 95 l0 95 28 4 27 4 -27 2 -28 1 -3 168 c-1
92 -3 -139 -3 -513z"/>
<path d="M353 1237 c-10 -17 12 -25 106 -41 115 -19 154 -20 149 -4 -5 15
-247 58 -255 45z"/>
<path d="M937 979 c2 -144 6 -266 9 -271 20 -32 25 15 24 207 -3 231 -9 317
-26 322 -8 3 -10 -70 -7 -258z"/>
<path d="M827 1154 c-4 -4 -7 -42 -7 -85 l0 -78 -52 -3 c-67 -4 -65 -22 2 -26
48 -3 50 -4 50 -33 0 -28 -1 -29 -50 -29 -38 0 -50 -4 -50 -15 0 -11 12 -15
50 -15 49 0 50 -1 50 -30 0 -28 13 -40 23 -22 3 4 6 81 8 171 4 156 -1 188
-24 165z"/>
<path d="M490 1103 c-136 -13 -182 -24 -165 -42 8 -8 330 21 342 31 15 12 8
29 -10 27 -7 -1 -82 -8 -167 -16z"/>
<path d="M464 1003 c-37 -31 -55 -69 -57 -121 -2 -46 1 -54 32 -86 30 -31 41
-36 80 -36 90 0 168 69 157 139 -11 71 -56 110 -138 117 -41 4 -58 1 -74 -13z
m143 -39 c11 -7 26 -29 33 -48 15 -46 -8 -92 -55 -112 -84 -35 -145 -4 -145
74 0 43 32 108 49 98 4 -3 13 0 21 5 18 11 66 2 97 -17z"/>
<path d="M750 678 c0 -18 109 -33 124 -18 16 16 -2 24 -64 28 -48 4 -60 2 -60
-10z"/>
<path d="M619 645 c-3 -3 -39 -9 -80 -13 -56 -5 -74 -11 -74 -22 0 -16 5 -16
106 -5 56 6 57 6 62 -22 3 -15 4 -29 3 -31 -3 -2 -31 -8 -143 -28 -21 -4 -23
-10 -23 -74 0 -38 4 -71 10 -75 5 -3 56 -3 114 1 87 6 103 9 99 22 -5 12 -22
14 -100 9 l-93 -6 0 49 c0 49 1 50 29 50 16 0 52 5 80 12 59 13 69 32 54 95
-8 34 -30 53 -44 38z"/>
<path d="M805 621 c-63 -5 -80 -9 -83 -22 -3 -14 7 -16 70 -12 106 6 140 12
135 26 -4 14 -19 15 -122 8z"/>
<path d="M785 531 c-11 -5 -29 -25 -40 -45 -18 -34 -19 -39 -5 -64 34 -60 145
-61 176 0 19 37 18 53 -9 83 -24 29 -86 42 -122 26z m102 -47 c36 -48 -57
-100 -109 -60 -24 18 -23 32 8 63 20 20 31 24 57 19 18 -3 37 -13 44 -22z"/>
</g>
</svg>
