<?xml version="1.0" standalone="no"?>
<!DOCTYPE svg PUBLIC "-//W3C//DTD SVG 20010904//EN"
 "http://www.w3.org/TR/2001/REC-SVG-20010904/DTD/svg10.dtd">
<svg version="1.0" xmlns="http://www.w3.org/2000/svg"
 width="135.000000pt" height="135.000000pt" viewBox="0 0 135.000000 135.000000"
 preserveAspectRatio="xMidYMid meet">
<metadata>
Created by potrace 1.16, written by Peter Selinger 2001-2019
</metadata>
<g transform="translate(0.000000,135.000000) scale(0.100000,-0.100000)"
fill="#000000" stroke="none">
<path d="M2 708 l-2 -648 675 0 c593 0 675 2 675 15 0 13 -81 15 -670 15
l-670 0 0 75 c0 68 2 75 20 75 11 0 20 5 20 10 0 6 -9 10 -20 10 -19 0 -20 7
-20 110 0 110 0 110 24 110 14 0 28 5 31 10 4 6 -7 10 -24 10 l-31 0 0 159 c0
158 0 160 23 164 l22 4 -22 2 c-22 1 -23 5 -23 96 0 94 0 95 24 95 14 0 28 5
31 10 4 6 -6 10 -24 10 l-30 0 -4 158 c-1 86 -4 -134 -5 -490z"/>
<path d="M976 1248 c-3 -11 -31 -272 -39 -368 -1 -16 3 -25 13 -25 11 0 18 33
31 150 21 176 23 255 9 255 -6 0 -12 -6 -14 -12z"/>
<path d="M678 1214 c-4 -3 -4 -35 -1 -70 l6 -64 -34 0 c-19 0 -44 -3 -56 -6
-22 -6 -23 -4 -23 66 0 53 -3 71 -12 68 -8 -3 -15 -31 -18 -74 -5 -67 -6 -69
-35 -75 -16 -4 -47 -7 -69 -8 l-38 -1 4 80 c2 57 0 80 -9 80 -20 0 -25 -36
-25 -191 -1 -101 3 -154 10 -161 9 -9 24 -8 59 5 27 9 88 21 138 27 144 16
153 30 140 207 -6 85 -21 133 -37 117z m12 -214 c0 -57 -12 -68 -90 -77 l-49
-6 5 54 c3 30 8 57 12 61 10 9 42 16 85 17 l37 1 0 -50z m-163 -24 l-2 -54
-57 -16 c-32 -9 -60 -16 -63 -16 -3 0 -5 28 -3 63 l3 62 50 6 c28 3 55 7 62 7
9 2 12 -14 10 -52z"/>
<path d="M866 1198 c-3 -13 -6 -39 -6 -60 0 -36 0 -36 -50 -43 -35 -5 -50 -11
-50 -22 0 -13 8 -15 45 -10 l45 7 0 -75 c0 -56 3 -75 13 -75 11 0 16 28 21
113 3 61 9 129 12 150 5 29 3 37 -9 37 -8 0 -17 -10 -21 -22z"/>
<path d="M1300 1030 c0 -5 11 -10 25 -10 14 0 25 5 25 10 0 6 -11 10 -25 10
-14 0 -25 -4 -25 -10z"/>
<path d="M1318 823 c6 -2 18 -2 25 0 6 3 1 5 -13 5 -14 0 -19 -2 -12 -5z"/>
<path d="M702 789 c-118 -4 -216 -10 -220 -13 -16 -17 22 -28 85 -24 l68 3 0
-97 c0 -58 4 -98 10 -99 16 -2 27 91 17 148 l-9 53 137 0 c103 0 140 3 149 13
12 15 5 28 -13 25 -6 0 -107 -5 -224 -9z"/>
<path d="M758 743 c-2 -4 -4 -54 -3 -110 l0 -103 -80 -2 c-44 -1 -103 -3 -132
-3 -55 -1 -76 -10 -54 -25 10 -6 446 -7 504 -1 4 1 7 8 7 16 0 10 -8 15 -22
14 -13 -1 -62 -1 -109 -1 l-87 2 2 107 c1 72 -3 107 -11 110 -6 2 -13 0 -15
-4z"/>
<path d="M1300 490 c0 -5 11 -10 25 -10 14 0 25 5 25 10 0 6 -11 10 -25 10
-14 0 -25 -4 -25 -10z"/>
<path d="M1310 250 c0 -5 9 -10 20 -10 11 0 20 5 20 10 0 6 -9 10 -20 10 -11
0 -20 -4 -20 -10z"/>
</g>
</svg>
