<?xml version="1.0" standalone="no"?>
<!DOCTYPE svg PUBLIC "-//W3C//DTD SVG 20010904//EN"
 "http://www.w3.org/TR/2001/REC-SVG-20010904/DTD/svg10.dtd">
<svg version="1.0" xmlns="http://www.w3.org/2000/svg"
 width="135.000000pt" height="135.000000pt" viewBox="0 0 135.000000 135.000000"
 preserveAspectRatio="xMidYMid meet">
<metadata>
Created by potrace 1.16, written by Peter Selinger 2001-2019
</metadata>
<g transform="translate(0.000000,135.000000) scale(0.100000,-0.100000)"
fill="#000000" stroke="none">
<path d="M0 675 c0 -443 3 -675 10 -675 6 0 10 9 10 20 0 20 7 20 665 20 437
0 665 3 665 10 0 7 -228 10 -665 10 l-665 0 0 74 c0 69 2 75 23 79 l22 4 -22
8 c-22 7 -23 12 -23 116 l0 109 25 0 c14 0 25 5 25 10 0 6 -11 10 -25 10 l-25
0 0 154 c0 150 0 154 23 161 l22 8 -23 4 c-21 4 -22 9 -22 94 0 88 0 89 25 89
14 0 25 5 25 10 0 6 -11 10 -25 10 l-25 0 0 175 c0 110 -4 175 -10 175 -7 0
-10 -232 -10 -675z"/>
<path d="M547 1128 c-22 -44 -77 -143 -110 -199 -30 -50 -34 -69 -14 -69 6 0
32 36 57 79 l45 79 37 -34 c20 -18 51 -40 67 -49 32 -16 39 -29 21 -40 -15 -9
-12 -35 5 -35 8 0 29 32 50 77 l35 77 33 -31 c36 -35 111 -75 121 -66 13 13 4
22 -48 52 -30 16 -61 40 -69 51 -14 20 -13 27 8 75 13 29 21 56 18 59 -14 13
-25 4 -42 -36 -11 -24 -34 -71 -53 -105 l-34 -62 -34 17 c-18 9 -48 31 -66 49
l-33 33 25 45 c23 41 25 65 5 65 -4 0 -15 -15 -24 -32z"/>
<path d="M1295 990 c3 -5 17 -10 31 -10 13 0 24 5 24 10 0 6 -14 10 -31 10
-17 0 -28 -4 -24 -10z"/>
<path d="M593 797 c-160 -8 -203 -13 -203 -23 0 -11 23 -14 100 -14 l100 0 0
-59 c0 -56 9 -79 28 -67 4 2 5 32 2 65 -6 69 -4 71 65 71 l44 0 -4 -52 c-4
-59 1 -78 21 -78 10 0 13 16 11 64 l-2 65 60 6 c33 3 78 6 99 8 22 1 41 8 44
15 4 14 -50 14 -365 -1z"/>
<path d="M1310 790 c0 -5 9 -10 20 -10 11 0 20 5 20 10 0 6 -9 10 -20 10 -11
0 -20 -4 -20 -10z"/>
<path d="M730 584 c-30 -7 -90 -13 -133 -13 -58 -1 -78 -4 -74 -13 4 -15 157
-18 225 -5 l42 9 0 -36 c0 -41 1 -40 -167 -55 -56 -5 -107 -12 -113 -16 -5 -3
-10 -35 -10 -71 0 -56 3 -68 26 -90 20 -20 31 -24 52 -19 24 6 148 19 319 32
37 3 67 11 74 19 6 8 10 16 8 18 -2 2 -40 0 -84 -5 -224 -24 -337 -29 -351
-18 -8 7 -14 31 -14 59 0 48 0 48 38 54 20 3 75 8 122 12 125 10 130 12 130
78 0 68 -13 77 -90 60z"/>
<path d="M1295 460 c-4 -6 7 -10 24 -10 17 0 31 5 31 10 0 6 -11 10 -24 10
-14 0 -28 -4 -31 -10z"/>
<path d="M1310 220 c0 -5 9 -10 20 -10 11 0 20 5 20 10 0 6 -9 10 -20 10 -11
0 -20 -4 -20 -10z"/>
</g>
</svg>
