<?xml version="1.0" standalone="no"?>
<!DOCTYPE svg PUBLIC "-//W3C//DTD SVG 20010904//EN"
 "http://www.w3.org/TR/2001/REC-SVG-20010904/DTD/svg10.dtd">
<svg version="1.0" xmlns="http://www.w3.org/2000/svg"
 width="135.000000pt" height="135.000000pt" viewBox="0 0 135.000000 135.000000"
 preserveAspectRatio="xMidYMid meet">
<metadata>
Created by potrace 1.16, written by Peter Selinger 2001-2019
</metadata>
<g transform="translate(0.000000,135.000000) scale(0.100000,-0.100000)"
fill="#000000" stroke="none">
<path d="M3 675 c-1 -374 1 -674 4 -667 7 18 1329 18 1336 0 3 -7 5 293 4 667
-1 374 -3 598 -4 498 l-3 -183 -25 0 c-13 0 -27 -4 -30 -10 -4 -6 7 -10 24
-10 l31 0 0 -90 c0 -83 -1 -90 -20 -90 -11 0 -20 -4 -20 -10 0 -5 9 -10 20
-10 19 0 20 -7 20 -160 l0 -160 -24 0 c-14 0 -28 -4 -31 -10 -4 -6 7 -10 24
-10 l31 0 0 -109 c0 -106 -1 -110 -22 -114 l-23 -4 23 -2 c21 -1 22 -5 22 -81
l0 -80 -665 0 -665 0 0 79 c0 75 1 80 22 84 l23 4 -22 2 c-22 1 -23 4 -23 111
l0 110 25 0 c14 0 25 5 25 10 0 6 -11 10 -25 10 l-25 0 0 159 c0 158 0 160 23
164 l22 4 -23 8 c-21 7 -22 13 -22 96 0 88 0 89 25 89 14 0 25 5 25 10 0 6
-11 10 -25 10 l-25 0 -3 183 c-1 100 -3 -124 -4 -498z"/>
<path d="M826 1112 c-4 -6 -4 -33 0 -60 6 -46 5 -50 -17 -55 -48 -13 -68 -8
-74 18 -3 14 -7 36 -10 50 -3 14 -12 25 -20 25 -14 0 -14 -42 0 -112 1 -9 -2
-55 -7 -102 -6 -47 -7 -94 -3 -103 6 -17 7 -17 21 1 8 11 14 39 14 62 0 39 2
42 31 48 63 12 62 14 55 -75 -6 -65 -5 -80 5 -77 19 6 27 54 34 213 6 114 4
144 -8 159 -9 13 -16 15 -21 8z m4 -154 c0 -24 -15 -35 -56 -41 -40 -7 -41 -6
-37 18 4 19 12 25 42 28 20 2 39 4 44 5 4 1 7 -4 7 -10z"/>
<path d="M461 1019 c-77 -10 -94 -16 -86 -29 4 -7 35 -8 86 -4 64 6 79 4 79
-7 0 -16 -36 -166 -45 -191 -5 -13 -2 -18 9 -18 9 0 21 11 25 24 20 51 43 185
37 210 -7 28 -5 28 -105 15z"/>
<path d="M588 609 c-37 -21 -15 -26 92 -21 l110 5 0 -40 0 -40 -96 -7 c-103
-7 -118 -11 -108 -28 5 -7 37 -8 95 -4 49 4 89 4 89 2 0 -3 -9 -28 -20 -56
-24 -60 -25 -70 -6 -70 7 0 27 36 45 83 24 62 31 95 29 132 l-3 50 -105 2
c-59 2 -113 -2 -122 -8z"/>
</g>
</svg>
