<?xml version="1.0" standalone="no"?>
<!DOCTYPE svg PUBLIC "-//W3C//DTD SVG 20010904//EN"
 "http://www.w3.org/TR/2001/REC-SVG-20010904/DTD/svg10.dtd">
<svg version="1.0" xmlns="http://www.w3.org/2000/svg"
 width="135.000000pt" height="135.000000pt" viewBox="0 0 135.000000 135.000000"
 preserveAspectRatio="xMidYMid meet">
<metadata>
Created by potrace 1.16, written by Peter Selinger 2001-2019
</metadata>
<g transform="translate(0.000000,135.000000) scale(0.100000,-0.100000)"
fill="#000000" stroke="none">
<path d="M4 675 c-1 -374 1 -670 3 -657 l4 22 664 0 664 0 4 -22 c2 -13 4 283
3 657 0 374 -2 600 -3 503 l-3 -178 -25 0 c-14 0 -25 -4 -25 -10 0 -5 11 -10
25 -10 25 0 25 -1 25 -89 0 -85 -1 -90 -22 -94 l-23 -4 23 -8 c22 -7 22 -11
22 -161 l0 -154 -25 0 c-14 0 -25 -4 -25 -10 0 -5 11 -10 25 -10 l25 0 0 -109
c0 -104 -1 -109 -22 -116 l-23 -8 23 -4 c20 -4 22 -10 22 -79 l0 -74 -665 0
-665 0 0 75 c0 68 2 75 20 75 11 0 20 5 20 10 0 6 -9 10 -20 10 -19 0 -20 7
-20 110 l0 110 25 0 c14 0 25 5 25 10 0 6 -11 10 -25 10 l-25 0 0 155 c0 148
1 155 20 155 11 0 20 5 20 10 0 6 -9 10 -20 10 -19 0 -20 7 -20 90 0 89 0 90
25 90 14 0 25 5 25 10 0 6 -11 10 -25 10 l-25 0 -3 178 c-1 97 -3 -129 -3
-503z"/>
<path d="M809 1138 c-3 -15 -12 -227 -13 -312 -1 -72 3 -111 10 -113 8 -2 13
38 18 124 3 70 9 156 12 190 7 66 0 113 -16 113 -6 0 -10 -1 -11 -2z"/>
<path d="M515 1068 c-13 -29 -42 -82 -65 -117 -43 -69 -49 -91 -25 -91 8 0 15
4 15 8 0 6 76 134 96 161 2 2 33 -24 70 -58 37 -33 70 -61 75 -61 22 0 16 22
-13 47 -76 65 -115 114 -110 139 8 43 -17 26 -43 -28z"/>
<path d="M537 883 c-4 -3 -7 -27 -7 -53 l0 -46 -62 -10 c-112 -16 -67 -29 90
-25 108 2 151 7 162 17 17 17 20 16 -87 14 l-73 -1 0 55 c0 52 -7 66 -23 49z"/>
<path d="M577 683 c-31 -50 -95 -188 -91 -194 11 -18 23 -8 45 36 12 25 26 45
31 45 18 0 107 -66 111 -82 8 -30 21 -20 46 32 13 28 27 52 30 54 3 2 33 -16
65 -40 43 -33 62 -42 70 -34 8 8 4 17 -14 31 -101 78 -100 78 -94 120 5 32 4
39 -10 39 -9 0 -16 -8 -16 -17 0 -23 -45 -118 -59 -128 -7 -3 -34 8 -62 26
-41 26 -49 36 -45 53 3 12 9 31 12 44 6 21 -9 32 -19 15z"/>
</g>
</svg>
