<?xml version="1.0" standalone="no"?>
<!DOCTYPE svg PUBLIC "-//W3C//DTD SVG 20010904//EN"
 "http://www.w3.org/TR/2001/REC-SVG-20010904/DTD/svg10.dtd">
<svg version="1.0" xmlns="http://www.w3.org/2000/svg"
 width="135.000000pt" height="135.000000pt" viewBox="0 0 135.000000 135.000000"
 preserveAspectRatio="xMidYMid meet">
<metadata>
Created by potrace 1.16, written by Peter Selinger 2001-2019
</metadata>
<g transform="translate(0.000000,135.000000) scale(0.100000,-0.100000)"
fill="#000000" stroke="none">
<path d="M867 997 l6 -104 -33 -6 c-61 -13 -60 -14 -60 77 0 77 -9 111 -24 87
-3 -5 -9 -84 -13 -174 l-6 -166 -84 -3 -85 -3 6 29 c3 16 6 39 6 52 0 18 7 24
35 30 52 9 60 25 60 128 l0 91 -40 -2 c-73 -5 -160 -25 -172 -41 -18 -22 -6
-151 16 -175 10 -12 25 -17 43 -15 31 5 32 0 22 -64 -6 -35 -9 -38 -50 -44
-30 -4 -44 -11 -44 -21 0 -13 9 -14 48 -9 26 3 91 9 144 12 l97 7 3 -38 c2
-21 9 -40 16 -43 9 -3 12 26 12 121 l0 124 48 6 c26 3 49 3 52 0 3 -2 5 -70 5
-149 0 -88 4 -145 10 -146 18 -5 26 103 20 277 -7 215 -13 265 -31 265 -11 0
-13 -19 -7 -103z m-217 -41 c0 -24 -3 -57 -6 -74 -6 -29 -10 -31 -73 -40 -36
-5 -69 -7 -73 -3 -3 3 -8 35 -10 70 l-3 65 45 12 c25 7 62 12 83 13 l37 1 0
-44z"/>
<path d="M625 541 c-7 -13 19 -20 80 -21 68 -2 69 -2 55 15 -14 17 -125 22
-135 6z"/>
<path d="M720 469 c-124 -9 -170 -18 -170 -34 0 -5 13 -10 28 -9 71 3 315 24
319 28 3 3 2 9 -2 15 -7 12 -7 12 -175 0z"/>
<path d="M643 368 c-43 -44 -45 -87 -6 -118 23 -18 35 -20 78 -15 60 8 92 27
106 62 20 53 -15 90 -97 99 -46 5 -51 4 -81 -28z m129 -14 c51 -15 11 -80 -54
-86 -78 -9 -102 29 -53 78 26 25 40 26 107 8z"/>
</g>
</svg>
