<?xml version="1.0" standalone="no"?>
<!DOCTYPE svg PUBLIC "-//W3C//DTD SVG 20010904//EN"
 "http://www.w3.org/TR/2001/REC-SVG-20010904/DTD/svg10.dtd">
<svg version="1.0" xmlns="http://www.w3.org/2000/svg"
 width="135.000000pt" height="135.000000pt" viewBox="0 0 135.000000 135.000000"
 preserveAspectRatio="xMidYMid meet">
<metadata>
Created by potrace 1.16, written by Peter Selinger 2001-2019
</metadata>
<g transform="translate(0.000000,135.000000) scale(0.100000,-0.100000)"
fill="#000000" stroke="none">
<path d="M12 1195 c-1 -88 -3 -375 -5 -638 l-2 -477 675 2 675 3 -667 2 -668
3 0 75 c0 68 2 75 20 75 11 0 20 5 20 10 0 6 -9 10 -20 10 -19 0 -20 7 -20
110 0 110 0 110 24 110 14 0 28 5 31 10 4 6 -7 10 -24 10 l-31 0 0 159 c0 158
0 160 23 164 l22 4 -22 2 c-22 1 -23 5 -23 95 l0 95 33 4 32 4 -32 1 -33 2 -3
163 -3 162 -2 -160z"/>
<path d="M850 1098 c0 -159 7 -218 25 -218 8 0 10 42 8 168 -5 177 -6 192 -23
192 -6 0 -10 -51 -10 -142z"/>
<path d="M635 1193 c-48 -5 -185 -32 -197 -39 -4 -3 -8 -56 -8 -118 0 -89 3
-116 15 -126 18 -15 17 -21 15 112 l-2 107 29 6 c15 3 47 10 70 16 23 5 64 9
91 9 l49 0 6 -95 c4 -52 4 -101 1 -109 -8 -20 -29 -26 -104 -32 -105 -8 -130
-14 -130 -30 0 -15 9 -14 163 2 57 6 94 21 102 43 3 8 3 67 -1 129 -6 108 -8
114 -31 123 -13 5 -25 8 -26 7 -1 -1 -20 -3 -42 -5z"/>
<path d="M1313 1023 c9 -2 23 -2 30 0 6 3 -1 5 -18 5 -16 0 -22 -2 -12 -5z"/>
<path d="M1318 823 c6 -2 18 -2 25 0 6 3 1 5 -13 5 -14 0 -19 -2 -12 -5z"/>
<path d="M636 786 c7 -18 191 -27 205 -10 16 20 -3 24 -107 24 -86 0 -102 -2
-98 -14z"/>
<path d="M765 718 c-139 -17 -216 -31 -221 -39 -13 -21 10 -25 73 -14 37 7
106 16 153 19 l85 6 -43 -39 c-50 -46 -129 -100 -201 -138 -49 -25 -58 -43
-22 -43 10 0 56 24 103 53 l85 54 44 -22 c24 -13 64 -29 89 -36 25 -7 50 -17
57 -22 7 -5 17 -6 22 -3 20 13 -2 36 -43 47 -56 15 -136 50 -136 59 0 5 18 23
40 40 50 40 68 69 49 81 -16 10 -38 10 -134 -3z"/>
<path d="M1300 490 c0 -5 11 -10 25 -10 14 0 25 5 25 10 0 6 -11 10 -25 10
-14 0 -25 -4 -25 -10z"/>
<path d="M1315 250 c3 -5 13 -10 21 -10 8 0 14 5 14 10 0 6 -9 10 -21 10 -11
0 -17 -4 -14 -10z"/>
</g>
</svg>
