<?xml version="1.0" standalone="no"?>
<!DOCTYPE svg PUBLIC "-//W3C//DTD SVG 20010904//EN"
 "http://www.w3.org/TR/2001/REC-SVG-20010904/DTD/svg10.dtd">
<svg version="1.0" xmlns="http://www.w3.org/2000/svg"
 width="135.000000pt" height="135.000000pt" viewBox="0 0 135.000000 135.000000"
 preserveAspectRatio="xMidYMid meet">
<metadata>
Created by potrace 1.16, written by Peter Selinger 2001-2019
</metadata>
<g transform="translate(0.000000,135.000000) scale(0.100000,-0.100000)"
fill="#000000" stroke="none">
<path d="M0 675 c0 -443 3 -675 10 -675 6 0 10 13 10 30 l0 30 668 3 667 2
-667 3 -668 2 0 79 c0 75 1 80 22 84 l23 4 -22 8 c-22 7 -23 12 -23 111 l0
104 25 0 c14 0 25 5 25 10 0 6 -11 10 -25 10 l-25 0 0 159 c0 156 0 159 23
166 l22 8 -23 4 c-21 4 -22 9 -22 94 0 88 0 89 25 89 14 0 25 5 25 10 0 6 -11
10 -25 10 l-25 0 0 165 c0 103 -4 165 -10 165 -7 0 -10 -232 -10 -675z"/>
<path d="M450 1177 c0 -18 31 -28 148 -50 58 -11 72 -11 76 -1 5 14 -20 23
-124 44 -30 6 -65 13 -77 16 -17 5 -23 2 -23 -9z"/>
<path d="M829 1188 c-1 -6 -12 -318 -13 -390 -1 -107 17 -100 26 8 7 96 12
104 73 104 43 0 74 14 61 27 -4 4 -33 6 -64 5 l-57 -4 3 73 c4 86 -6 179 -19
179 -5 0 -9 -1 -10 -2z"/>
<path d="M475 1036 c-43 -7 -70 -16 -70 -23 0 -17 2 -17 115 -4 52 6 126 12
164 14 45 1 71 6 74 15 5 16 -181 15 -283 -2z"/>
<path d="M1295 1010 c3 -5 17 -10 31 -10 13 0 24 5 24 10 0 6 -14 10 -31 10
-17 0 -28 -4 -24 -10z"/>
<path d="M512 916 c-33 -38 -49 -103 -33 -134 15 -29 65 -45 118 -39 60 6 103
49 103 101 0 42 -18 62 -73 77 -23 7 -46 16 -51 21 -18 15 -34 8 -64 -26z
m141 -38 c47 -24 -6 -108 -70 -108 -53 0 -73 15 -73 56 0 61 12 72 72 66 29
-2 61 -9 71 -14z"/>
<path d="M1310 810 c0 -5 9 -10 20 -10 11 0 20 5 20 10 0 6 -9 10 -20 10 -11
0 -20 -4 -20 -10z"/>
<path d="M589 633 c-69 -3 -77 -6 -83 -26 -8 -29 -8 -191 0 -211 7 -19 46 -21
125 -6 31 6 111 14 180 18 98 6 124 10 127 22 2 13 -15 14 -130 8 -73 -4 -157
-12 -187 -18 -96 -18 -91 -21 -90 73 0 45 3 89 7 97 7 15 25 16 270 19 30 1
42 5 42 16 0 15 -50 17 -261 8z"/>
<path d="M1295 470 c3 -5 17 -10 31 -10 13 0 24 5 24 10 0 6 -14 10 -31 10
-17 0 -28 -4 -24 -10z"/>
<path d="M1310 240 c0 -5 9 -10 20 -10 11 0 20 5 20 10 0 6 -9 10 -20 10 -11
0 -20 -4 -20 -10z"/>
</g>
</svg>
