<?xml version="1.0" standalone="no"?>
<!DOCTYPE svg PUBLIC "-//W3C//DTD SVG 20010904//EN"
 "http://www.w3.org/TR/2001/REC-SVG-20010904/DTD/svg10.dtd">
<svg version="1.0" xmlns="http://www.w3.org/2000/svg"
 width="135.000000pt" height="135.000000pt" viewBox="0 0 135.000000 135.000000"
 preserveAspectRatio="xMidYMid meet">
<metadata>
Created by potrace 1.16, written by Peter Selinger 2001-2019
</metadata>
<g transform="translate(0.000000,135.000000) scale(0.100000,-0.100000)"
fill="#000000" stroke="none">
<path d="M4 675 c0 -374 1 -661 3 -637 l4 42 664 0 664 0 4 -42 c2 -24 3 263
3 637 0 374 -2 607 -3 518 l-3 -162 -33 -4 -32 -4 33 -1 32 -2 0 -94 c0 -90
-1 -95 -22 -99 l-23 -4 23 -2 c22 -1 22 -2 22 -161 l0 -160 -31 0 c-17 0 -28
-4 -24 -10 3 -5 17 -10 31 -10 24 0 24 0 24 -110 0 -103 -1 -110 -20 -110 -11
0 -20 -4 -20 -10 0 -5 9 -10 20 -10 18 0 20 -7 20 -75 l0 -75 -665 0 -665 0 0
74 c0 68 2 74 22 81 l23 8 -22 4 c-22 4 -23 8 -23 114 l0 109 25 0 c14 0 25 5
25 10 0 6 -11 10 -25 10 l-25 0 0 159 c0 158 0 160 23 164 l22 4 -22 2 c-22 1
-23 5 -23 95 l0 95 28 4 27 4 -27 2 -28 1 -3 163 c-1 89 -3 -144 -3 -518z"/>
<path d="M820 1205 c-10 -12 -11 -52 -5 -173 10 -210 17 -264 34 -270 12 -4
13 13 7 102 l-7 106 38 1 c21 1 46 1 56 0 20 -3 23 24 3 32 -7 3 -32 3 -55 0
l-41 -6 0 106 c0 106 -7 130 -30 102z"/>
<path d="M475 1153 c-114 -6 -103 16 -98 -210 3 -109 9 -202 13 -207 5 -5 62
-3 131 5 93 9 124 10 127 1 5 -17 32 -15 32 2 0 31 -28 39 -113 32 -45 -3 -99
-9 -119 -12 l-38 -7 0 90 0 91 118 17 c138 20 142 21 142 35 0 14 -61 12 -160
-5 -46 -8 -87 -11 -91 -7 -4 4 -10 37 -14 75 l-7 67 69 1 c101 1 176 12 181
27 4 12 -22 13 -173 5z"/>
<path d="M830 670 c-14 -4 -46 -8 -72 -9 -55 -1 -71 -17 -31 -32 21 -8 43 -6
92 6 35 9 66 13 70 10 3 -4 8 -58 9 -121 3 -82 7 -114 15 -111 15 5 21 204 8
240 -11 29 -39 34 -91 17z"/>
<path d="M545 644 c-33 -8 -64 -19 -69 -24 -18 -18 20 -21 85 -5 82 19 79 19
79 -8 0 -33 -18 -47 -61 -47 -47 0 -84 -14 -92 -34 -8 -19 20 -116 38 -135 11
-11 20 -11 46 -2 17 6 45 11 60 11 16 0 29 5 29 10 0 17 -43 28 -75 19 -42
-12 -42 -13 -54 22 -20 59 -16 66 45 74 66 8 94 31 94 78 0 59 -21 66 -125 41z"/>
</g>
</svg>
