<?xml version="1.0" standalone="no"?>
<!DOCTYPE svg PUBLIC "-//W3C//DTD SVG 20010904//EN"
 "http://www.w3.org/TR/2001/REC-SVG-20010904/DTD/svg10.dtd">
<svg version="1.0" xmlns="http://www.w3.org/2000/svg"
 width="135.000000pt" height="135.000000pt" viewBox="0 0 135.000000 135.000000"
 preserveAspectRatio="xMidYMid meet">
<metadata>
Created by potrace 1.16, written by Peter Selinger 2001-2019
</metadata>
<g transform="translate(0.000000,135.000000) scale(0.100000,-0.100000)"
fill="#000000" stroke="none">
<path d="M0 715 l0 -635 678 2 677 3 -667 2 -668 3 0 75 c0 68 2 75 20 75 11
0 20 5 20 10 0 6 -9 10 -20 10 -19 0 -20 7 -20 110 l0 110 25 0 c14 0 25 5 25
10 0 6 -11 10 -25 10 l-25 0 0 159 c0 158 0 160 23 164 l22 4 -22 2 c-22 1
-23 5 -23 95 l0 95 28 4 27 4 -27 2 -28 1 0 160 c0 100 -4 160 -10 160 -7 0
-10 -218 -10 -635z"/>
<path d="M858 1223 c-3 -4 -2 -73 2 -153 4 -80 6 -182 4 -227 -2 -80 8 -112
27 -82 5 8 9 64 9 126 l0 112 47 3 c70 5 69 28 -1 28 l-56 0 -1 85 c-1 47 -2
90 -3 97 -1 14 -22 22 -28 11z"/>
<path d="M655 1184 c-44 -7 -123 -19 -176 -25 l-95 -12 -12 -76 c-17 -109 -16
-137 9 -154 17 -13 27 -13 67 -2 26 8 97 23 157 35 139 27 160 33 154 45 -5
11 -13 11 -86 1 l-53 -7 0 81 0 80 38 1 c59 2 97 13 97 28 0 20 -8 20 -100 5z
m-65 -83 c0 -21 -3 -59 -6 -84 l-6 -45 -67 -11 c-36 -6 -78 -14 -93 -17 -25
-6 -28 -4 -28 21 0 15 5 56 12 90 l11 63 71 9 c113 16 106 18 106 -26z"/>
<path d="M1313 1023 c9 -2 23 -2 30 0 6 3 -1 5 -18 5 -16 0 -22 -2 -12 -5z"/>
<path d="M587 923 c-4 -3 -7 -30 -7 -59 l0 -52 -72 -12 c-97 -15 -104 -18 -90
-32 9 -9 39 -8 124 5 62 9 142 19 176 21 68 6 86 12 77 27 -4 5 -44 6 -96 2
l-89 -6 0 57 c0 52 -7 66 -23 49z"/>
<path d="M1318 823 c6 -2 18 -2 25 0 6 3 1 5 -13 5 -14 0 -19 -2 -12 -5z"/>
<path d="M825 688 c-38 -6 -76 -12 -82 -14 -16 -4 -18 -199 -4 -237 10 -25 12
-25 93 -20 79 5 118 18 101 33 -4 4 -43 4 -85 1 -83 -6 -88 -4 -88 44 0 25 29
35 104 35 56 0 86 10 86 27 0 11 -9 13 -37 9 -21 -3 -63 -7 -93 -8 l-55 -3 -3
46 -3 46 83 9 c63 7 83 13 83 24 0 19 -13 20 -100 8z"/>
<path d="M560 671 c-58 -7 -80 -16 -80 -32 0 -10 71 -6 143 7 26 5 27 4 27
-40 l0 -46 -58 0 c-32 0 -63 -5 -70 -12 -15 -15 -16 -154 -1 -164 9 -5 40 -1
157 22 12 2 22 11 22 19 0 8 -1 15 -2 15 -13 0 -124 -21 -139 -25 -19 -6 -20
-2 -17 52 l3 58 62 0 c35 1 67 5 73 11 5 5 6 35 2 74 -7 64 -8 65 -37 66 -16
1 -55 -1 -85 -5z"/>
<path d="M1300 490 c0 -5 11 -10 25 -10 14 0 25 5 25 10 0 6 -11 10 -25 10
-14 0 -25 -4 -25 -10z"/>
<path d="M1310 250 c0 -5 9 -10 20 -10 11 0 20 5 20 10 0 6 -9 10 -20 10 -11
0 -20 -4 -20 -10z"/>
</g>
</svg>
