<?xml version="1.0" standalone="no"?>
<!DOCTYPE svg PUBLIC "-//W3C//DTD SVG 20010904//EN"
 "http://www.w3.org/TR/2001/REC-SVG-20010904/DTD/svg10.dtd">
<svg version="1.0" xmlns="http://www.w3.org/2000/svg"
 width="135.000000pt" height="135.000000pt" viewBox="0 0 135.000000 135.000000"
 preserveAspectRatio="xMidYMid meet">
<metadata>
Created by potrace 1.16, written by Peter Selinger 2001-2019
</metadata>
<g transform="translate(0.000000,135.000000) scale(0.100000,-0.100000)"
fill="#000000" stroke="none">
<path d="M3 675 c-1 -374 1 -674 4 -667 7 18 1329 18 1336 0 3 -7 5 293 4 667
-1 374 -3 598 -4 498 l-3 -183 -25 0 c-14 0 -25 -4 -25 -10 0 -5 11 -10 25
-10 25 0 25 -1 25 -89 0 -83 -1 -89 -22 -96 l-23 -8 23 -4 c22 -4 22 -6 22
-164 l0 -159 -25 0 c-14 0 -25 -4 -25 -10 0 -5 11 -10 25 -10 l25 0 0 -109 c0
-106 -1 -110 -22 -114 l-23 -4 23 -2 c21 -1 22 -5 22 -81 l0 -80 -665 0 -665
0 0 79 c0 75 1 80 22 84 l23 4 -22 2 c-22 1 -23 4 -23 111 l0 110 31 0 c17 0
28 4 24 10 -3 6 -17 10 -31 10 l-24 0 0 160 c0 153 1 160 20 160 11 0 20 5 20
10 0 6 -9 10 -20 10 -19 0 -20 7 -20 90 l0 90 31 0 c17 0 28 4 24 10 -3 6 -17
10 -30 10 l-25 0 -3 183 c-1 100 -3 -124 -4 -498z"/>
<path d="M818 1075 c-3 -3 -3 -26 -1 -50 l5 -44 -38 -6 c-84 -14 -94 -17 -94
-31 0 -16 13 -16 82 -5 l47 8 6 -56 c8 -73 13 -87 26 -74 13 13 -2 255 -17
260 -5 2 -13 1 -16 -2z"/>
<path d="M608 1035 c-3 -3 -47 -7 -97 -8 -96 -2 -130 -20 -48 -25 59 -4 61
-18 15 -108 -23 -46 -29 -67 -22 -74 15 -15 75 90 82 142 4 36 7 38 41 38 20
0 46 3 59 6 33 9 29 -20 -13 -99 -38 -72 -42 -87 -22 -87 22 0 89 142 85 181
-3 31 -6 34 -38 37 -20 2 -38 0 -42 -3z"/>
<path d="M736 692 c-7 -12 -4 -14 45 -35 45 -18 73 -7 38 16 -33 21 -75 31
-83 19z"/>
<path d="M517 664 c-15 -15 8 -24 64 -24 60 0 60 0 57 -27 -3 -26 -7 -28 -58
-33 l-55 -5 0 -75 0 -75 60 0 c47 0 60 3 60 15 0 12 -11 14 -47 12 l-48 -3 0
50 0 51 49 0 c54 0 65 9 76 58 10 50 -6 62 -85 62 -36 0 -70 -3 -73 -6z"/>
<path d="M717 614 c-16 -16 10 -24 79 -24 59 0 74 3 74 15 0 12 -15 15 -73 15
-41 0 -77 -3 -80 -6z"/>
<path d="M765 521 c-29 -57 -10 -101 43 -101 43 0 72 26 72 64 0 39 -12 51
-62 60 -34 6 -38 4 -53 -23z m83 -35 c4 -20 -13 -36 -41 -36 -23 0 -33 26 -16
46 16 20 53 14 57 -10z"/>
</g>
</svg>
