<?xml version="1.0" standalone="no"?>
<!DOCTYPE svg PUBLIC "-//W3C//DTD SVG 20010904//EN"
 "http://www.w3.org/TR/2001/REC-SVG-20010904/DTD/svg10.dtd">
<svg version="1.0" xmlns="http://www.w3.org/2000/svg"
 width="135.000000pt" height="135.000000pt" viewBox="0 0 135.000000 135.000000"
 preserveAspectRatio="xMidYMid meet">
<metadata>
Created by potrace 1.16, written by Peter Selinger 2001-2019
</metadata>
<g transform="translate(0.000000,135.000000) scale(0.100000,-0.100000)"
fill="#000000" stroke="none">
<path d="M766 1062 c-3 -5 1 -33 9 -63 8 -30 18 -109 21 -177 5 -82 11 -121
18 -119 6 2 12 31 14 65 l3 62 43 0 c24 0 49 6 55 13 16 20 5 25 -45 19 -48
-5 -64 5 -64 41 0 14 10 17 61 17 80 0 77 24 -4 28 -56 3 -56 3 -67 40 -5 20
-10 42 -10 48 0 16 -27 37 -34 26z"/>
<path d="M515 969 c-38 -11 -83 -17 -99 -14 -36 6 -196 -16 -196 -27 0 -17 33
-20 98 -10 36 6 68 9 70 7 3 -3 -20 -48 -50 -102 -36 -62 -52 -102 -46 -108
12 -13 36 19 89 120 l42 80 89 21 c48 11 88 19 88 16 0 -9 -83 -168 -101 -194
-34 -47 -20 -66 19 -25 30 32 125 226 118 243 -7 18 -35 17 -121 -7z"/>
<path d="M760 640 c-78 -27 -104 -39 -100 -47 7 -12 49 -7 103 12 26 10 49 16
51 14 2 -2 0 -26 -4 -52 -5 -35 -22 -70 -59 -123 -28 -40 -51 -79 -51 -85 0
-22 26 -1 72 58 45 60 47 61 64 42 22 -24 121 -72 134 -64 16 10 11 35 -6 35
-22 0 -74 26 -105 53 -26 22 -26 25 -17 80 6 31 7 64 4 72 -6 16 -46 18 -86 5z"/>
<path d="M463 504 c6 -96 10 -111 31 -132 23 -24 25 -24 95 -11 40 7 74 16 77
21 13 21 -11 25 -73 12 -47 -10 -70 -11 -77 -4 -6 6 -15 56 -21 112 -7 72 -14
103 -24 106 -12 4 -13 -13 -8 -104z"/>
</g>
</svg>
