<?xml version="1.0" standalone="no"?>
<!DOCTYPE svg PUBLIC "-//W3C//DTD SVG 20010904//EN"
 "http://www.w3.org/TR/2001/REC-SVG-20010904/DTD/svg10.dtd">
<svg version="1.0" xmlns="http://www.w3.org/2000/svg"
 width="135.000000pt" height="135.000000pt" viewBox="0 0 135.000000 135.000000"
 preserveAspectRatio="xMidYMid meet">
<metadata>
Created by potrace 1.16, written by Peter Selinger 2001-2019
</metadata>
<g transform="translate(0.000000,135.000000) scale(0.100000,-0.100000)"
fill="#000000" stroke="none">
<path d="M4 675 c0 -374 1 -663 3 -642 l4 37 664 0 664 0 4 -37 c2 -21 3 268
3 642 0 374 -2 605 -3 513 l-3 -167 -28 -4 -27 -4 28 -2 27 -1 0 -94 c0 -90
-1 -95 -22 -99 l-23 -4 23 -2 c22 -1 22 -2 22 -165 l0 -165 -27 -4 -28 -4 28
-2 27 -1 0 -109 c0 -106 -1 -110 -22 -114 l-23 -4 23 -8 c20 -7 22 -13 22 -81
l0 -74 -665 0 -665 0 0 75 c0 68 2 75 20 75 11 0 20 5 20 10 0 6 -9 10 -20 10
-19 0 -20 7 -20 109 l0 110 33 4 32 4 -32 1 -33 2 0 164 c0 163 0 165 23 169
l22 4 -22 2 c-22 1 -23 5 -23 95 l0 95 33 4 32 4 -32 1 -33 2 -3 168 c-1 92
-3 -139 -3 -513z"/>
<path d="M861 1256 c-6 -8 -9 -25 -6 -38 3 -13 2 -76 -3 -139 -12 -135 -5
-312 12 -306 7 2 11 40 12 103 0 54 4 160 7 234 8 136 2 175 -22 146z"/>
<path d="M744 1219 c-3 -6 -9 -80 -12 -164 l-5 -152 -60 -7 c-66 -7 -72 -9
-62 -26 4 -7 26 -9 64 -4 l57 6 9 -38 c20 -79 28 -24 29 179 1 195 -2 234 -20
206z"/>
<path d="M395 1211 l-80 -6 -3 -92 c-2 -81 -1 -93 16 -102 20 -10 250 15 266
29 23 22 -13 25 -121 10 -65 -9 -121 -15 -125 -13 -9 5 -10 69 -2 110 l6 30
111 7 c62 4 113 9 115 11 2 2 1 8 -3 14 -6 11 -41 12 -180 2z"/>
<path d="M485 957 c-166 -10 -197 -15 -192 -30 3 -8 29 -11 86 -9 l81 2 0 -69
c0 -52 4 -70 15 -75 12 -4 15 7 15 68 0 83 2 86 91 86 31 0 49 5 52 14 8 21
-5 22 -148 13z"/>
<path d="M457 683 c-20 -19 9 -23 182 -23 l188 0 7 -62 c10 -103 20 -151 32
-155 20 -7 23 22 7 93 -8 38 -12 83 -10 99 8 56 11 55 -202 55 -109 0 -201 -3
-204 -7z"/>
</g>
</svg>
