<?xml version="1.0" standalone="no"?>
<!DOCTYPE svg PUBLIC "-//W3C//DTD SVG 20010904//EN"
 "http://www.w3.org/TR/2001/REC-SVG-20010904/DTD/svg10.dtd">
<svg version="1.0" xmlns="http://www.w3.org/2000/svg"
 width="135.000000pt" height="135.000000pt" viewBox="0 0 135.000000 135.000000"
 preserveAspectRatio="xMidYMid meet">
<metadata>
Created by potrace 1.16, written by Peter Selinger 2001-2019
</metadata>
<g transform="translate(0.000000,135.000000) scale(0.100000,-0.100000)"
fill="#000000" stroke="none">
<path d="M0 675 c0 -443 3 -675 10 -675 6 0 10 13 10 30 l0 30 668 3 667 2
-667 3 -668 2 0 80 c0 73 2 80 20 80 11 0 20 5 20 10 0 6 -9 10 -20 10 -19 0
-20 7 -20 105 l0 105 25 0 c14 0 25 5 25 10 0 6 -11 10 -25 10 l-25 0 0 160
c0 153 1 160 20 160 11 0 20 5 20 10 0 6 -9 10 -20 10 -19 0 -20 7 -20 90 0
89 0 90 25 90 14 0 25 5 25 10 0 6 -11 10 -25 10 l-25 0 0 165 c0 103 -4 165
-10 165 -7 0 -10 -232 -10 -675z"/>
<path d="M887 1223 c-4 -3 -7 -45 -7 -93 0 -82 -1 -86 -22 -87 -13 -1 -38 -5
-56 -8 l-34 -6 3 78 c3 64 1 78 -11 78 -13 0 -15 -26 -14 -175 1 -181 13 -256
36 -217 7 13 6 38 -1 81 -6 34 -11 77 -11 94 0 29 3 31 48 38 26 3 53 12 61
18 12 9 13 2 7 -48 -9 -82 3 -206 20 -206 11 0 14 33 14 169 0 175 -8 291 -20
291 -4 0 -10 -3 -13 -7z"/>
<path d="M394 1178 c-8 -13 23 -38 47 -38 9 0 47 -11 84 -25 40 -15 72 -22 77
-17 13 13 -8 26 -82 51 -114 39 -120 40 -126 29z"/>
<path d="M445 1066 c-89 -12 -104 -32 -22 -29 137 5 251 19 255 31 5 15 -117
15 -233 -2z"/>
<path d="M1300 1010 c0 -5 11 -10 25 -10 14 0 25 5 25 10 0 6 -11 10 -25 10
-14 0 -25 -4 -25 -10z"/>
<path d="M466 959 c-19 -22 -26 -42 -26 -73 0 -53 21 -83 65 -92 75 -14 135
28 135 93 0 54 -23 83 -65 83 -19 0 -37 5 -40 10 -12 19 -43 10 -69 -21z m132
-32 c22 -17 14 -64 -14 -86 -51 -40 -114 -16 -114 44 0 49 22 66 73 59 23 -4
48 -11 55 -17z"/>
<path d="M1310 810 c0 -5 9 -10 20 -10 11 0 20 5 20 10 0 6 -9 10 -20 10 -11
0 -20 -4 -20 -10z"/>
<path d="M559 686 c-16 -17 -19 -36 -19 -133 l0 -113 183 0 c132 0 188 4 199
13 12 9 17 39 22 119 8 146 18 139 -196 136 -156 -2 -172 -4 -189 -22z m354
-20 c2 -6 2 -51 -2 -101 l-6 -90 -167 -3 -168 -2 0 93 c0 51 4 97 10 103 14
14 328 14 333 0z"/>
<path d="M1300 470 c0 -5 11 -10 25 -10 14 0 25 5 25 10 0 6 -11 10 -25 10
-14 0 -25 -4 -25 -10z"/>
<path d="M1310 240 c0 -5 9 -10 20 -10 11 0 20 5 20 10 0 6 -9 10 -20 10 -11
0 -20 -4 -20 -10z"/>
</g>
</svg>
