<?xml version="1.0" standalone="no"?>
<!DOCTYPE svg PUBLIC "-//W3C//DTD SVG 20010904//EN"
 "http://www.w3.org/TR/2001/REC-SVG-20010904/DTD/svg10.dtd">
<svg version="1.0" xmlns="http://www.w3.org/2000/svg"
 width="135.000000pt" height="135.000000pt" viewBox="0 0 135.000000 135.000000"
 preserveAspectRatio="xMidYMid meet">
<metadata>
Created by potrace 1.16, written by Peter Selinger 2001-2019
</metadata>
<g transform="translate(0.000000,135.000000) scale(0.100000,-0.100000)"
fill="#000000" stroke="none">
<path d="M3 675 c-1 -374 1 -674 4 -667 4 9 148 12 674 12 439 0 669 3 669 10
0 7 -230 10 -670 10 l-670 0 0 79 c0 75 1 80 22 84 l23 4 -22 2 c-22 1 -23 4
-23 111 l0 110 31 0 c17 0 28 4 24 10 -3 6 -17 10 -31 10 l-24 0 0 160 c0 153
1 160 20 160 11 0 20 5 20 10 0 6 -9 10 -20 10 -19 0 -20 7 -20 90 l0 90 31 0
c17 0 28 4 24 10 -3 6 -17 10 -30 10 l-25 0 -3 183 c-1 100 -3 -124 -4 -498z"/>
<path d="M846 1088 c-8 -24 -20 -193 -21 -277 0 -122 20 -119 29 4 3 52 9 138
12 190 5 69 4 95 -5 95 -6 0 -13 -6 -15 -12z"/>
<path d="M525 1054 c-33 -7 -77 -13 -97 -13 -37 -1 -60 -18 -40 -30 5 -3 11
-62 13 -134 4 -138 11 -154 56 -136 14 5 39 9 58 9 43 0 65 9 65 26 0 14 -15
14 -112 -1 -36 -6 -40 10 -36 135 l3 95 79 16 c72 14 101 29 79 42 -4 2 -35
-2 -68 -9z"/>
<path d="M742 1048 c-7 -7 -12 -35 -12 -64 0 -58 -7 -64 -87 -64 -31 0 -43 -4
-43 -14 0 -16 30 -29 51 -22 68 21 68 21 71 -46 2 -49 7 -63 20 -66 13 -3 15
3 12 35 -3 21 -1 83 4 138 9 101 6 125 -16 103z"/>
<path d="M1300 980 c0 -5 11 -10 25 -10 14 0 25 5 25 10 0 6 -11 10 -25 10
-14 0 -25 -4 -25 -10z"/>
<path d="M1310 780 c0 -5 9 -10 20 -10 11 0 20 5 20 10 0 6 -9 10 -20 10 -11
0 -20 -4 -20 -10z"/>
<path d="M733 634 c-2 -7 -3 -65 -1 -129 3 -127 8 -136 62 -129 17 2 52 6 79
9 34 5 47 11 47 22 0 14 -10 15 -75 9 -73 -7 -75 -6 -80 17 -4 13 -5 41 -3 62
3 36 5 38 42 42 45 4 79 20 71 33 -3 5 -30 6 -60 3 -51 -5 -55 -4 -55 15 0 24
26 35 73 30 23 -2 32 1 32 12 0 21 -124 25 -132 4z"/>
<path d="M545 624 c-11 -3 -30 -7 -42 -10 -13 -2 -23 -12 -23 -20 0 -13 7 -15
33 -10 17 4 53 10 80 13 45 6 47 5 47 -20 0 -32 -7 -36 -64 -39 -56 -2 -70
-15 -56 -52 5 -15 10 -45 10 -67 0 -27 5 -42 16 -46 20 -7 164 25 164 37 0 19
-22 20 -79 5 -32 -8 -61 -15 -64 -15 -3 0 -7 23 -9 50 l-3 50 35 6 c73 11 81
19 78 72 l-3 47 -50 2 c-27 0 -59 -1 -70 -3z"/>
<path d="M1300 440 c0 -5 11 -10 25 -10 14 0 25 5 25 10 0 6 -11 10 -25 10
-14 0 -25 -4 -25 -10z"/>
<path d="M1318 203 c6 -2 18 -2 25 0 6 3 1 5 -13 5 -14 0 -19 -2 -12 -5z"/>
</g>
</svg>
