<?xml version="1.0" standalone="no"?>
<!DOCTYPE svg PUBLIC "-//W3C//DTD SVG 20010904//EN"
 "http://www.w3.org/TR/2001/REC-SVG-20010904/DTD/svg10.dtd">
<svg version="1.0" xmlns="http://www.w3.org/2000/svg"
 width="135.000000pt" height="135.000000pt" viewBox="0 0 135.000000 135.000000"
 preserveAspectRatio="xMidYMid meet">
<metadata>
Created by potrace 1.16, written by Peter Selinger 2001-2019
</metadata>
<g transform="translate(0.000000,135.000000) scale(0.100000,-0.100000)"
fill="#000000" stroke="none">
<path d="M706 883 l7 -160 -77 -12 c-42 -6 -81 -11 -86 -11 -5 0 -10 17 -12
38 -5 56 -31 50 -32 -8 l-1 -45 -47 -10 c-54 -12 -68 -22 -44 -31 15 -6 160
20 263 46 l32 8 3 -62 c5 -102 23 -70 26 46 l3 107 42 11 c23 6 48 14 55 18
18 9 11 28 -8 25 -8 -2 -31 -5 -51 -9 l-37 -6 -8 103 c-6 70 -13 104 -22 107
-11 3 -12 -25 -6 -155z"/>
<path d="M558 984 c-4 -3 -41 -11 -83 -17 -41 -7 -76 -17 -75 -22 0 -12 67
-13 124 -3 l40 7 -79 -79 c-62 -62 -77 -82 -67 -92 9 -9 22 -1 57 34 l45 46
56 -29 c53 -28 74 -30 74 -8 0 5 -20 18 -44 29 -24 10 -47 23 -51 30 -4 6 9
29 29 50 20 22 36 45 36 50 0 11 -53 14 -62 4z"/>
<path d="M570 528 c-36 -5 -69 -13 -74 -18 -18 -18 25 -22 105 -10 45 6 83 9
86 6 7 -6 -70 -61 -149 -106 -59 -34 -76 -57 -38 -53 10 1 46 19 80 39 59 34
62 35 81 18 24 -21 150 -47 164 -33 14 14 -9 26 -69 34 -28 3 -60 13 -70 21
-19 14 -19 15 17 52 20 21 37 43 37 50 0 14 -72 14 -170 0z"/>
<path d="M810 10 c0 -5 14 -10 32 -10 36 0 35 4 -4 14 -17 4 -28 2 -28 -4z"/>
</g>
</svg>
