<?xml version="1.0" standalone="no"?>
<!DOCTYPE svg PUBLIC "-//W3C//DTD SVG 20010904//EN"
 "http://www.w3.org/TR/2001/REC-SVG-20010904/DTD/svg10.dtd">
<svg version="1.0" xmlns="http://www.w3.org/2000/svg"
 width="135.000000pt" height="135.000000pt" viewBox="0 0 135.000000 135.000000"
 preserveAspectRatio="xMidYMid meet">
<metadata>
Created by potrace 1.16, written by Peter Selinger 2001-2019
</metadata>
<g transform="translate(0.000000,135.000000) scale(0.100000,-0.100000)"
fill="#000000" stroke="none">
<path d="M4 675 c0 -374 1 -663 3 -643 l4 38 672 3 672 2 -672 3 -673 2 0 75
c0 68 2 75 20 75 11 0 20 5 20 10 0 6 -9 10 -20 10 -19 0 -20 7 -20 109 l0
110 33 4 32 4 -32 1 -33 2 0 164 c0 163 0 165 23 169 l22 4 -22 2 c-22 1 -23
5 -23 95 l0 95 33 4 32 4 -32 1 -33 2 -3 168 c-1 92 -3 -139 -3 -513z"/>
<path d="M817 1233 c-4 -3 -7 -28 -7 -55 l0 -48 -40 0 -40 0 0 46 c0 32 -4 44
-12 42 -16 -6 -19 -317 -3 -320 6 -2 11 24 13 60 l3 62 38 0 39 0 8 -77 c10
-83 29 -103 29 -28 -3 314 -6 341 -28 318z m-7 -158 c0 -22 -4 -25 -40 -25
-36 0 -40 3 -40 25 0 23 4 25 40 25 36 0 40 -2 40 -25z"/>
<path d="M529 1195 c-3 -2 -33 -5 -67 -6 -35 -1 -67 -7 -72 -14 -16 -19 3
-234 21 -246 15 -9 34 -11 119 -9 81 1 90 15 90 149 0 70 -4 111 -12 119 -12
12 -70 17 -79 7z m61 -119 c0 -125 -1 -126 -64 -125 -100 2 -100 3 -107 104
-3 50 -4 92 -2 95 2 2 38 7 81 11 42 3 80 7 85 7 4 1 7 -40 7 -92z"/>
<path d="M1313 1013 c9 -2 23 -2 30 0 6 3 -1 5 -18 5 -16 0 -22 -2 -12 -5z"/>
<path d="M1318 813 c6 -2 18 -2 25 0 6 3 1 5 -13 5 -14 0 -19 -2 -12 -5z"/>
<path d="M695 801 c-8 -15 5 -19 82 -26 l72 -7 -2 -119 c-1 -119 2 -137 22
-124 16 9 15 257 -1 273 -14 14 -164 17 -173 3z"/>
<path d="M485 791 c-61 -13 -24 -26 64 -22 96 3 106 -1 96 -47 -5 -27 -8 -28
-77 -30 -45 -1 -75 -7 -80 -14 -4 -7 -8 -45 -8 -85 0 -94 11 -107 76 -87 26 8
60 14 76 14 19 0 28 4 25 13 -4 14 -64 16 -114 3 l-33 -8 0 66 0 65 78 3 77 3
9 48 c14 72 4 82 -85 84 -41 0 -87 -2 -104 -6z"/>
<path d="M1313 473 c9 -2 23 -2 30 0 6 3 -1 5 -18 5 -16 0 -22 -2 -12 -5z"/>
<path d="M1310 240 c0 -5 9 -10 20 -10 11 0 20 5 20 10 0 6 -9 10 -20 10 -11
0 -20 -4 -20 -10z"/>
</g>
</svg>
