<?xml version="1.0" standalone="no"?>
<!DOCTYPE svg PUBLIC "-//W3C//DTD SVG 20010904//EN"
 "http://www.w3.org/TR/2001/REC-SVG-20010904/DTD/svg10.dtd">
<svg version="1.0" xmlns="http://www.w3.org/2000/svg"
 width="135.000000pt" height="135.000000pt" viewBox="0 0 135.000000 135.000000"
 preserveAspectRatio="xMidYMid meet">
<metadata>
Created by potrace 1.16, written by Peter Selinger 2001-2019
</metadata>
<g transform="translate(0.000000,135.000000) scale(0.100000,-0.100000)"
fill="#000000" stroke="none">
<path d="M0 675 c0 -443 3 -675 10 -675 6 0 10 11 10 25 l0 25 668 3 667 2
-667 3 -668 2 0 75 c0 68 2 75 20 75 11 0 20 5 20 10 0 6 -9 10 -20 10 -19 0
-20 7 -20 110 l0 110 25 0 c14 0 25 5 25 10 0 6 -11 10 -25 10 l-25 0 0 159
c0 158 0 160 23 164 l22 4 -22 2 c-22 1 -23 5 -23 96 0 95 0 95 25 95 14 0 25
5 25 10 0 6 -11 10 -25 10 l-25 0 0 170 c0 107 -4 170 -10 170 -7 0 -10 -232
-10 -675z"/>
<path d="M915 1170 c-13 -20 6 -421 19 -417 15 5 15 419 -1 424 -6 2 -14 -1
-18 -7z"/>
<path d="M831 1132 c-6 -11 -11 -34 -11 -50 0 -34 -17 -42 -88 -42 -31 0 -42
-4 -39 -12 2 -9 25 -13 66 -13 60 0 62 0 59 -25 -3 -22 -9 -26 -52 -30 -72 -7
-73 -30 -2 -30 53 0 56 -1 56 -26 0 -18 5 -25 16 -22 14 3 17 21 20 123 3 126
-5 165 -25 127z"/>
<path d="M472 1127 c-51 -7 -81 -14 -79 -21 4 -13 76 -14 166 -3 l64 8 -7 -63
c-4 -34 -10 -65 -12 -68 -3 -3 -44 -9 -90 -15 -106 -13 -107 -31 -1 -28 42 1
77 -3 77 -8 0 -5 -16 -41 -36 -80 -21 -44 -32 -75 -26 -81 30 -30 121 199 122
308 0 68 -11 71 -178 51z"/>
<path d="M1300 1000 c0 -5 11 -10 25 -10 14 0 25 5 25 10 0 6 -11 10 -25 10
-14 0 -25 -4 -25 -10z"/>
<path d="M1318 793 c6 -2 18 -2 25 0 6 3 1 5 -13 5 -14 0 -19 -2 -12 -5z"/>
<path d="M557 579 c-52 -109 -63 -150 -36 -133 5 3 23 33 41 67 30 61 31 62
46 39 8 -13 36 -37 61 -54 25 -18 50 -38 54 -45 12 -20 22 -9 56 63 l31 66 39
-31 c41 -33 137 -71 177 -71 26 0 43 18 22 24 -94 25 -159 52 -188 76 -33 29
-34 31 -22 63 15 42 15 47 -1 47 -7 0 -32 -43 -56 -95 -24 -52 -45 -95 -48
-95 -14 0 -63 34 -92 64 l-34 35 16 42 c15 39 15 59 -1 59 -4 0 -33 -55 -65
-121z"/>
<path d="M1300 460 c0 -5 11 -10 25 -10 14 0 25 5 25 10 0 6 -11 10 -25 10
-14 0 -25 -4 -25 -10z"/>
<path d="M1310 220 c0 -5 9 -10 20 -10 11 0 20 5 20 10 0 6 -9 10 -20 10 -11
0 -20 -4 -20 -10z"/>
</g>
</svg>
