<?xml version="1.0" standalone="no"?>
<!DOCTYPE svg PUBLIC "-//W3C//DTD SVG 20010904//EN"
 "http://www.w3.org/TR/2001/REC-SVG-20010904/DTD/svg10.dtd">
<svg version="1.0" xmlns="http://www.w3.org/2000/svg"
 width="135.000000pt" height="135.000000pt" viewBox="0 0 135.000000 135.000000"
 preserveAspectRatio="xMidYMid meet">
<metadata>
Created by potrace 1.16, written by Peter Selinger 2001-2019
</metadata>
<g transform="translate(0.000000,135.000000) scale(0.100000,-0.100000)"
fill="#000000" stroke="none">
<path d="M3 675 c-1 -374 1 -674 4 -667 4 9 148 12 674 12 439 0 669 3 669 10
0 7 -230 10 -670 10 l-670 0 0 79 c0 75 1 80 22 84 l23 4 -22 2 c-22 1 -23 4
-23 111 l0 110 25 0 c14 0 25 5 25 10 0 6 -11 10 -25 10 l-25 0 0 160 c0 153
1 160 20 160 11 0 20 5 20 10 0 6 -9 10 -20 10 -19 0 -20 7 -20 90 0 89 0 90
25 90 14 0 25 5 25 10 0 6 -11 10 -25 10 l-25 0 -3 183 c-1 100 -3 -124 -4
-498z"/>
<path d="M812 943 c2 -112 7 -177 13 -175 16 3 13 344 -3 350 -10 3 -12 -34
-10 -175z"/>
<path d="M498 1023 c-3 -48 -3 -94 0 -100 2 -8 21 -13 42 -13 34 0 39 -3 45
-29 3 -16 1 -48 -5 -70 -11 -43 -11 -42 -87 -45 -28 -1 -36 -11 -20 -24 9 -8
51 -8 147 -1 74 6 137 12 139 14 1 2 0 9 -4 16 -6 8 -29 10 -78 6 l-69 -6 6
37 c3 20 6 54 6 75 0 34 2 37 30 37 21 0 30 5 30 16 0 14 -10 16 -75 12 l-74
-5 -3 80 c-4 113 -24 113 -30 0z"/>
<path d="M1295 980 c-4 -6 7 -10 24 -10 17 0 31 5 31 10 0 6 -11 10 -24 10
-14 0 -28 -4 -31 -10z"/>
<path d="M1310 780 c0 -5 9 -10 20 -10 11 0 20 5 20 10 0 6 -9 10 -20 10 -11
0 -20 -4 -20 -10z"/>
<path d="M739 593 l-43 -88 -9 55 c-5 30 -12 62 -16 70 -13 24 -26 12 -23 -20
3 -29 2 -30 -37 -30 -38 0 -40 2 -43 33 -2 17 -7 32 -13 32 -12 0 -19 -145 -7
-157 5 -5 32 -11 62 -15 39 -5 56 -3 64 8 6 8 20 14 31 14 12 0 27 14 41 38
17 31 23 35 33 24 16 -20 129 -69 141 -62 19 12 9 21 -55 49 -83 36 -89 44
-70 88 13 33 12 48 -5 48 -4 0 -26 -39 -51 -87z m-79 -62 c0 -27 -15 -34 -56
-27 -25 5 -34 12 -34 26 0 17 7 20 45 20 38 0 45 -3 45 -19z"/>
<path d="M1295 440 c-4 -6 7 -10 24 -10 17 0 31 5 31 10 0 6 -11 10 -24 10
-14 0 -28 -4 -31 -10z"/>
<path d="M1318 203 c6 -2 18 -2 25 0 6 3 1 5 -13 5 -14 0 -19 -2 -12 -5z"/>
</g>
</svg>
