<?xml version="1.0" standalone="no"?>
<!DOCTYPE svg PUBLIC "-//W3C//DTD SVG 20010904//EN"
 "http://www.w3.org/TR/2001/REC-SVG-20010904/DTD/svg10.dtd">
<svg version="1.0" xmlns="http://www.w3.org/2000/svg"
 width="135.000000pt" height="135.000000pt" viewBox="0 0 135.000000 135.000000"
 preserveAspectRatio="xMidYMid meet">
<metadata>
Created by potrace 1.16, written by Peter Selinger 2001-2019
</metadata>
<g transform="translate(0.000000,135.000000) scale(0.100000,-0.100000)"
fill="#000000" stroke="none">
<path d="M4 675 c-1 -374 1 -670 3 -657 l4 22 664 0 664 0 4 -22 c2 -13 4 283
3 657 0 374 -2 600 -3 503 l-3 -178 -25 0 c-14 0 -25 -4 -25 -10 0 -5 11 -10
25 -10 25 0 25 -1 25 -89 0 -85 -1 -90 -22 -94 l-23 -4 23 -8 c22 -7 22 -11
22 -161 l0 -154 -25 0 c-14 0 -25 -4 -25 -10 0 -5 11 -10 25 -10 l25 0 0 -109
c0 -104 -1 -109 -22 -116 l-23 -8 23 -4 c20 -4 22 -10 22 -79 l0 -74 -665 0
-665 0 0 75 c0 68 2 75 20 75 11 0 20 5 20 10 0 6 -9 10 -20 10 -19 0 -20 7
-20 110 l0 110 31 0 c17 0 28 4 24 10 -3 6 -17 10 -31 10 l-24 0 0 155 c0 148
1 155 20 155 11 0 20 5 20 10 0 6 -9 10 -20 10 -19 0 -20 7 -20 90 0 89 0 90
24 90 14 0 28 5 31 10 4 6 -6 10 -24 10 l-31 0 -3 178 c-1 97 -3 -129 -3 -503z"/>
<path d="M835 1148 c-3 -8 -4 -103 -3 -212 2 -149 6 -200 16 -204 15 -5 18
413 2 423 -6 3 -12 0 -15 -7z"/>
<path d="M727 1124 c-4 -4 -7 -29 -7 -55 0 -44 -2 -48 -29 -54 -16 -3 -45 -3
-64 0 -44 9 -59 -11 -20 -26 15 -6 45 -9 65 -7 l37 3 3 -85 c2 -68 6 -85 18
-85 13 0 15 24 18 149 2 137 -3 178 -21 160z"/>
<path d="M476 1099 c-9 -13 -16 -28 -16 -33 0 -6 -27 -63 -60 -128 -34 -65
-58 -123 -55 -129 11 -16 24 0 59 69 58 113 56 113 96 43 42 -76 75 -110 92
-93 9 9 6 18 -14 39 -14 16 -43 57 -63 92 l-37 63 16 41 c18 47 7 71 -18 36z"/>
<path d="M702 729 c5 -16 98 -35 124 -25 29 11 3 24 -65 32 -52 6 -63 4 -59
-7z"/>
<path d="M517 711 c-56 -9 -41 -26 23 -26 52 0 55 -1 55 -25 0 -23 -5 -26 -60
-33 -33 -5 -66 -13 -72 -19 -19 -15 -17 -152 1 -167 10 -9 31 -9 82 -1 92 14
104 19 104 36 0 12 -7 14 -27 10 -16 -3 -46 -8 -68 -12 -22 -3 -48 -8 -57 -11
-16 -4 -18 4 -18 61 l0 65 58 6 c75 8 86 15 90 59 5 63 -14 73 -111 57z"/>
<path d="M750 658 c-61 -11 -83 -24 -57 -34 26 -10 155 16 161 32 6 16 -19 17
-104 2z"/>
<path d="M727 599 c-9 -6 -15 -14 -13 -18 3 -5 1 -23 -4 -41 -12 -41 10 -87
45 -96 84 -21 160 51 120 112 -28 44 -107 67 -148 43z m118 -80 c0 -31 -3 -35
-37 -43 -45 -11 -68 4 -68 45 0 41 33 62 74 45 26 -10 31 -18 31 -47z"/>
</g>
</svg>
