<?xml version="1.0" standalone="no"?>
<!DOCTYPE svg PUBLIC "-//W3C//DTD SVG 20010904//EN"
 "http://www.w3.org/TR/2001/REC-SVG-20010904/DTD/svg10.dtd">
<svg version="1.0" xmlns="http://www.w3.org/2000/svg"
 width="135.000000pt" height="135.000000pt" viewBox="0 0 135.000000 135.000000"
 preserveAspectRatio="xMidYMid meet">
<metadata>
Created by potrace 1.16, written by Peter Selinger 2001-2019
</metadata>
<g transform="translate(0.000000,135.000000) scale(0.100000,-0.100000)"
fill="#000000" stroke="none">
<path d="M4 675 c0 -374 1 -661 3 -637 l4 42 664 0 664 0 4 -42 c2 -24 3 263
3 637 0 374 -2 607 -3 518 l-3 -162 -28 -4 -27 -4 28 -2 27 -1 0 -94 c0 -90
-1 -95 -22 -99 l-23 -4 23 -2 c22 -1 22 -2 22 -161 l0 -160 -25 0 c-14 0 -25
-4 -25 -10 0 -5 11 -10 25 -10 l25 0 0 -109 c0 -106 -1 -110 -22 -114 l-23 -4
23 -8 c20 -7 22 -13 22 -81 l0 -74 -665 0 -665 0 0 75 c0 68 2 75 20 75 11 0
20 5 20 10 0 6 -9 10 -20 10 -19 0 -20 7 -20 110 0 110 0 110 24 110 14 0 28
5 31 10 4 6 -7 10 -24 10 l-31 0 0 159 c0 158 0 160 23 164 l22 4 -22 2 c-22
1 -23 5 -23 95 l0 95 33 4 32 4 -32 1 -33 2 -3 163 c-1 89 -3 -144 -3 -518z"/>
<path d="M415 1240 c-11 -17 5 -30 38 -31 18 0 66 -6 107 -14 41 -7 79 -11 83
-8 22 13 -23 31 -106 42 -50 7 -97 14 -104 16 -7 2 -15 0 -18 -5z"/>
<path d="M877 1193 c-4 -3 -7 -41 -7 -84 l0 -78 -55 -3 c-30 -2 -55 -7 -55
-13 0 -5 25 -11 55 -13 51 -3 55 -5 55 -27 0 -22 -4 -25 -36 -25 -39 0 -77
-16 -69 -30 3 -5 30 -6 60 -3 l54 6 3 -59 c2 -44 7 -59 18 -59 18 0 18 17 6
243 -8 142 -12 162 -29 145z"/>
<path d="M520 1123 c-72 -8 -127 -19 -132 -26 -4 -7 -3 -13 2 -15 12 -4 311
28 322 34 4 3 8 9 8 15 0 12 -45 10 -200 -8z"/>
<path d="M493 1008 c-39 -45 -53 -73 -53 -111 0 -82 50 -124 136 -114 36 4 54
13 85 43 60 59 65 131 12 180 -22 20 -36 24 -93 24 -56 0 -70 -3 -87 -22z
m166 -34 c26 -33 26 -60 1 -101 -38 -63 -121 -83 -165 -38 -33 32 -32 75 1
125 26 39 28 40 85 40 50 0 60 -3 78 -26z"/>
<path d="M630 642 c-39 -39 -49 -56 -55 -96 -6 -39 -4 -52 12 -74 51 -68 141
-90 225 -54 53 23 72 47 89 113 11 41 10 50 -7 80 -30 50 -87 79 -158 79 -57
0 -60 -2 -106 -48z m190 -3 c49 -28 62 -56 48 -106 -12 -47 -33 -71 -77 -89
-96 -40 -201 18 -185 102 10 52 60 107 91 99 13 -3 23 -1 23 5 0 18 61 11 100
-11z"/>
</g>
</svg>
