<?xml version="1.0" standalone="no"?>
<!DOCTYPE svg PUBLIC "-//W3C//DTD SVG 20010904//EN"
 "http://www.w3.org/TR/2001/REC-SVG-20010904/DTD/svg10.dtd">
<svg version="1.0" xmlns="http://www.w3.org/2000/svg"
 width="135.000000pt" height="135.000000pt" viewBox="0 0 135.000000 135.000000"
 preserveAspectRatio="xMidYMid meet">
<metadata>
Created by potrace 1.16, written by Peter Selinger 2001-2019
</metadata>
<g transform="translate(0.000000,135.000000) scale(0.100000,-0.100000)"
fill="#000000" stroke="none">
<path d="M1340 1185 l0 -165 -25 0 c-14 0 -25 -4 -25 -10 0 -5 11 -10 25 -10
25 0 25 -1 25 -90 0 -83 -1 -90 -20 -90 -11 0 -20 -4 -20 -10 0 -5 9 -10 20
-10 19 0 20 -7 20 -160 l0 -160 -25 0 c-14 0 -25 -4 -25 -10 0 -5 11 -10 25
-10 l25 0 0 -105 c0 -98 -1 -105 -20 -105 -11 0 -20 -4 -20 -10 0 -5 9 -10 20
-10 18 0 20 -7 20 -80 l0 -80 -672 -3 -673 -2 672 -3 672 -2 4 -32 c2 -18 5
272 5 645 1 372 0 677 -3 677 -3 0 -5 -74 -5 -165z"/>
<path d="M853 1162 c-6 -4 -13 -27 -15 -51 l-3 -44 -57 -1 c-76 -1 -79 -19 -5
-30 51 -7 57 -11 57 -32 0 -22 -4 -24 -47 -24 -27 0 -54 -4 -62 -9 -26 -17 -1
-28 53 -23 l55 4 3 -96 c2 -53 7 -97 13 -99 8 -2 30 401 22 410 -2 1 -8 -1
-14 -5z"/>
<path d="M527 1149 c-59 -4 -139 -13 -178 -20 -84 -15 -88 -35 -5 -31 l56 3 0
-129 c0 -106 3 -131 15 -136 13 -5 15 14 15 133 l0 139 46 7 c25 3 48 4 51 1
3 -3 1 -69 -3 -148 l-9 -143 -98 -15 c-101 -16 -132 -36 -49 -33 176 7 323 19
325 28 1 6 -29 11 -72 13 l-74 3 6 97 c4 53 7 121 7 150 l0 52 39 0 c39 0 62
15 45 29 -5 4 -58 4 -117 0z"/>
<path d="M0 1010 c0 -5 13 -10 30 -10 17 0 30 5 30 10 0 6 -13 10 -30 10 -17
0 -30 -4 -30 -10z"/>
<path d="M0 810 c0 -5 11 -10 25 -10 14 0 25 5 25 10 0 6 -11 10 -25 10 -14 0
-25 -4 -25 -10z"/>
<path d="M785 658 c-8 -29 -33 -87 -55 -128 l-39 -75 -1 101 c0 67 -4 106 -13
119 -18 24 -41 11 -27 -15 5 -10 10 -32 10 -49 l0 -31 -80 0 -80 0 0 39 c0 38
-14 61 -28 46 -12 -12 -20 -219 -9 -232 6 -9 41 -13 108 -13 83 0 100 3 108
18 6 9 11 11 11 5 1 -35 32 -5 63 62 20 41 39 75 44 75 4 0 28 -20 53 -44 40
-40 129 -96 151 -96 5 0 9 9 9 19 0 14 -11 23 -37 32 -21 7 -66 37 -101 68
-51 45 -62 60 -58 78 4 13 9 34 12 48 5 18 2 25 -9 25 -10 0 -21 -19 -32 -52z
m-127 -155 l-3 -47 -87 -3 -87 -2 6 37 c8 63 6 62 93 62 l81 0 -3 -47z"/>
<path d="M0 470 c0 -5 13 -10 30 -10 17 0 30 5 30 10 0 6 -13 10 -30 10 -17 0
-30 -4 -30 -10z"/>
<path d="M0 240 c0 -5 11 -10 25 -10 14 0 25 5 25 10 0 6 -11 10 -25 10 -14 0
-25 -4 -25 -10z"/>
</g>
</svg>
