<?xml version="1.0" standalone="no"?>
<!DOCTYPE svg PUBLIC "-//W3C//DTD SVG 20010904//EN"
 "http://www.w3.org/TR/2001/REC-SVG-20010904/DTD/svg10.dtd">
<svg version="1.0" xmlns="http://www.w3.org/2000/svg"
 width="135.000000pt" height="135.000000pt" viewBox="0 0 135.000000 135.000000"
 preserveAspectRatio="xMidYMid meet">
<metadata>
Created by potrace 1.16, written by Peter Selinger 2001-2019
</metadata>
<g transform="translate(0.000000,135.000000) scale(0.100000,-0.100000)"
fill="#000000" stroke="none">
<path d="M1340 1195 l0 -155 -25 0 c-14 0 -25 -4 -25 -10 0 -5 11 -10 25 -10
25 0 25 0 25 -94 0 -90 -1 -95 -22 -99 l-23 -4 23 -2 c22 -1 22 -2 22 -161 l0
-160 -25 0 c-14 0 -25 -4 -25 -10 0 -5 11 -10 25 -10 l25 0 0 -110 c0 -103 -1
-110 -20 -110 -11 0 -20 -4 -20 -10 0 -5 9 -10 20 -10 18 0 20 -7 20 -75 l0
-75 -670 0 c-589 0 -670 -2 -670 -15 0 -13 82 -15 675 -15 l675 0 0 645 c0
355 -2 645 -5 645 -3 0 -5 -70 -5 -155z"/>
<path d="M907 1294 c-4 -4 -7 -95 -7 -203 0 -202 -6 -275 -21 -265 -13 8 -202
-16 -213 -26 -18 -18 23 -21 119 -10 54 6 100 8 102 6 3 -2 7 -23 10 -45 4
-26 11 -41 20 -41 11 0 14 15 12 73 -1 39 -1 169 0 287 1 197 -4 242 -22 224z"/>
<path d="M672 1220 c0 -34 -2 -63 -4 -65 -2 -2 -38 -7 -81 -11 l-77 -7 0 57
c0 78 -24 72 -28 -7 -3 -62 6 -56 -105 -71 l-38 -5 7 70 c6 59 4 69 -9 69 -9
0 -18 -9 -22 -20 -12 -38 -10 -284 2 -306 l12 -21 108 24 c59 14 139 28 176
32 40 4 72 13 77 20 10 17 19 137 17 213 -2 38 -8 64 -19 74 -15 15 -16 12
-16 -46z m0 -165 l-7 -60 -75 -7 c-41 -3 -78 -4 -83 -1 -8 5 0 103 9 112 6 7
159 27 161 21 2 -3 0 -32 -5 -65z m-198 -22 l-3 -68 -62 -12 c-34 -7 -63 -12
-64 -11 -1 2 -5 31 -8 66 -8 71 -9 69 76 82 28 4 55 8 58 9 4 0 5 -29 3 -66z"/>
<path d="M0 1030 c0 -5 13 -10 30 -10 17 0 30 5 30 10 0 6 -13 10 -30 10 -17
0 -30 -4 -30 -10z"/>
<path d="M670 894 c-58 -8 -163 -21 -235 -30 -123 -15 -158 -25 -142 -40 6 -7
168 9 240 22 27 6 27 5 27 -53 0 -72 8 -103 26 -103 11 0 14 18 14 79 0 91 -6
86 106 96 76 7 101 16 90 34 -4 6 -10 10 -14 10 -4 -1 -54 -8 -112 -15z"/>
<path d="M13 823 c9 -2 23 -2 30 0 6 3 -1 5 -18 5 -17 0 -22 -2 -12 -5z"/>
<path d="M490 599 c-54 -9 -80 -23 -67 -35 3 -4 40 -1 82 5 118 17 115 18 115
-34 l0 -45 -59 0 c-76 0 -118 -9 -125 -26 -10 -25 6 -135 22 -150 8 -9 22 -12
31 -8 9 3 46 9 83 11 60 5 103 24 81 36 -4 2 -46 0 -92 -4 -47 -5 -85 -8 -86
-6 -2 1 -5 26 -7 54 l-5 53 34 6 c19 4 50 4 69 1 62 -10 81 4 86 65 6 76 -3
88 -60 87 -26 -1 -72 -5 -102 -10z"/>
<path d="M783 593 c-3 -10 -15 -38 -25 -63 -11 -25 -29 -70 -39 -99 -11 -30
-26 -65 -34 -78 -14 -21 -14 -24 1 -30 19 -7 28 4 55 80 12 31 25 57 29 57 4
0 25 -14 46 -31 38 -31 171 -99 193 -99 6 0 11 6 11 14 0 7 -30 27 -67 43 -38
17 -91 49 -120 71 l-52 42 14 35 c17 40 19 75 5 75 -6 0 -13 -8 -17 -17z"/>
<path d="M0 490 c0 -5 13 -10 30 -10 17 0 30 5 30 10 0 6 -13 10 -30 10 -17 0
-30 -4 -30 -10z"/>
<path d="M0 250 c0 -5 11 -10 25 -10 14 0 25 5 25 10 0 6 -11 10 -25 10 -14 0
-25 -4 -25 -10z"/>
</g>
</svg>
