<?xml version="1.0" standalone="no"?>
<!DOCTYPE svg PUBLIC "-//W3C//DTD SVG 20010904//EN"
 "http://www.w3.org/TR/2001/REC-SVG-20010904/DTD/svg10.dtd">
<svg version="1.0" xmlns="http://www.w3.org/2000/svg"
 width="135.000000pt" height="135.000000pt" viewBox="0 0 135.000000 135.000000"
 preserveAspectRatio="xMidYMid meet">
<metadata>
Created by potrace 1.16, written by Peter Selinger 2001-2019
</metadata>
<g transform="translate(0.000000,135.000000) scale(0.100000,-0.100000)"
fill="#000000" stroke="none">
<path d="M845 1080 c-4 -6 -4 -47 0 -90 l7 -78 -59 -12 c-81 -17 -85 -18 -77
-31 7 -12 81 -7 117 6 14 6 17 1 17 -26 0 -49 -9 -57 -75 -72 -33 -7 -58 -18
-55 -23 6 -11 54 -11 93 -1 l27 7 0 -101 c0 -76 3 -100 13 -97 26 9 34 495 8
521 -5 5 -12 4 -16 -3z"/>
<path d="M495 1010 c-38 -16 -78 -30 -87 -30 -10 0 -18 -7 -18 -15 0 -22 31
-18 116 16 87 34 94 32 94 -38 0 -40 -3 -44 -37 -59 -21 -8 -62 -23 -91 -32
-46 -14 -52 -19 -47 -37 3 -11 11 -60 16 -110 13 -115 18 -120 94 -100 33 8
66 15 75 15 21 0 57 26 48 35 -3 4 -41 0 -83 -9 -43 -9 -81 -16 -85 -16 -5 0
-11 26 -15 58 -3 31 -8 73 -10 93 -4 32 -2 37 18 42 29 6 118 40 135 50 15 10
16 104 2 141 -12 34 -36 33 -125 -4z"/>
<path d="M612 490 c-22 -14 -42 -40 -59 -77 -25 -53 -25 -59 -12 -97 20 -57
66 -86 136 -86 71 0 115 20 147 66 45 67 29 141 -41 189 -48 32 -123 34 -171
5z m168 -48 c52 -50 54 -87 7 -138 -26 -29 -42 -37 -79 -41 -59 -7 -92 1 -118
29 -43 46 -9 159 53 177 66 19 94 13 137 -27z"/>
</g>
</svg>
