<?xml version="1.0" standalone="no"?>
<!DOCTYPE svg PUBLIC "-//W3C//DTD SVG 20010904//EN"
 "http://www.w3.org/TR/2001/REC-SVG-20010904/DTD/svg10.dtd">
<svg version="1.0" xmlns="http://www.w3.org/2000/svg"
 width="135.000000pt" height="135.000000pt" viewBox="0 0 135.000000 135.000000"
 preserveAspectRatio="xMidYMid meet">
<metadata>
Created by potrace 1.16, written by Peter Selinger 2001-2019
</metadata>
<g transform="translate(0.000000,135.000000) scale(0.100000,-0.100000)"
fill="#000000" stroke="none">
<path d="M0 715 l0 -635 678 2 677 3 -667 2 -668 3 0 74 c0 68 2 74 23 81 l22
8 -23 4 c-21 4 -22 8 -22 114 l0 109 25 0 c14 0 25 5 25 10 0 6 -11 10 -25 10
l-25 0 0 159 c0 158 0 160 23 164 l22 4 -22 2 c-22 1 -23 5 -23 95 l0 95 28 4
27 4 -27 2 -28 1 0 160 c0 100 -4 160 -10 160 -7 0 -10 -218 -10 -635z"/>
<path d="M867 1233 c-4 -3 -7 -37 -7 -75 l0 -68 -45 0 c-44 0 -45 1 -45 33 -1
109 -34 97 -36 -14 -3 -126 6 -209 22 -209 9 0 14 12 14 36 l0 35 43 -3 42 -3
5 -54 c3 -31 10 -56 18 -59 9 -3 12 40 12 192 0 179 -4 209 -23 189z m-7 -203
c0 -29 -1 -30 -50 -30 -46 0 -50 2 -50 23 0 33 7 37 57 37 41 0 43 -1 43 -30z"/>
<path d="M460 1135 c-69 -7 -136 -12 -150 -11 l-25 1 -3 -115 c-3 -152 -1
-155 97 -139 57 8 79 8 96 -1 16 -9 28 -9 42 -2 11 6 43 14 71 18 28 3 56 12
62 19 17 21 -4 26 -55 15 -25 -6 -57 -7 -70 -4 -24 6 -25 9 -25 100 l0 94 33
0 c58 0 107 12 107 26 0 16 -9 16 -180 -1z m10 -128 l0 -94 -75 -9 c-42 -6
-78 -8 -80 -5 -7 6 -6 109 1 153 7 40 12 42 117 46 l37 2 0 -93z"/>
<path d="M1303 1023 c9 -2 25 -2 35 0 9 3 1 5 -18 5 -19 0 -27 -2 -17 -5z"/>
<path d="M1318 823 c6 -2 18 -2 25 0 6 3 1 5 -13 5 -14 0 -19 -2 -12 -5z"/>
<path d="M760 794 c-122 -10 -246 -26 -254 -35 -20 -19 7 -21 126 -10 68 7
142 13 166 15 l43 4 -3 -47 -3 -46 -129 -8 c-71 -5 -145 -14 -165 -21 l-36
-11 1 -77 c1 -88 9 -124 26 -131 7 -2 40 -1 73 4 33 4 116 13 185 19 118 10
155 20 131 34 -6 4 -92 0 -192 -9 -100 -9 -183 -14 -184 -13 -1 2 -5 35 -9 75
-5 52 -4 73 5 79 7 4 80 12 161 18 172 13 171 12 166 104 -3 64 -3 64 -108 56z"/>
<path d="M1295 490 c3 -5 17 -10 31 -10 13 0 24 5 24 10 0 6 -14 10 -31 10
-17 0 -28 -4 -24 -10z"/>
<path d="M1310 250 c0 -5 9 -10 20 -10 11 0 20 5 20 10 0 6 -9 10 -20 10 -11
0 -20 -4 -20 -10z"/>
</g>
</svg>
