<?xml version="1.0" standalone="no"?>
<!DOCTYPE svg PUBLIC "-//W3C//DTD SVG 20010904//EN"
 "http://www.w3.org/TR/2001/REC-SVG-20010904/DTD/svg10.dtd">
<svg version="1.0" xmlns="http://www.w3.org/2000/svg"
 width="135.000000pt" height="135.000000pt" viewBox="0 0 135.000000 135.000000"
 preserveAspectRatio="xMidYMid meet">
<metadata>
Created by potrace 1.16, written by Peter Selinger 2001-2019
</metadata>
<g transform="translate(0.000000,135.000000) scale(0.100000,-0.100000)"
fill="#000000" stroke="none">
<path d="M779 1053 c0 -5 -1 -88 -2 -186 l-2 -178 -92 -5 -92 -5 -3 38 c-4 49
-22 45 -26 -6 l-3 -39 -77 -11 c-42 -6 -81 -16 -86 -21 -19 -19 27 -22 113 -6
49 9 111 16 137 16 27 0 66 4 86 9 37 9 38 8 44 -25 3 -19 12 -34 20 -34 12 0
14 38 14 214 0 118 -3 221 -6 230 -6 16 -24 22 -25 9z"/>
<path d="M615 1004 c-33 -8 -68 -13 -77 -11 -21 6 -165 -21 -191 -35 -39 -21
-1 -29 64 -13 35 8 68 15 73 15 11 0 -17 -42 -80 -121 -52 -64 -65 -89 -45
-89 5 0 28 21 50 46 38 43 42 46 59 31 9 -8 32 -19 50 -24 l34 -8 -21 -27
c-25 -31 -26 -38 -7 -38 8 0 32 21 52 48 21 26 41 51 45 55 4 5 25 -1 47 -12
48 -24 62 -26 62 -8 0 8 -18 22 -40 32 -22 10 -40 19 -40 21 0 1 16 26 35 56
38 57 42 92 10 95 -11 1 -47 -5 -80 -13z m54 -46 c-7 -13 -33 -50 -58 -83
l-46 -61 -47 23 c-27 13 -48 25 -48 28 0 3 14 24 31 48 26 35 38 44 82 53 29
6 62 12 75 13 21 1 22 -1 11 -21z"/>
<path d="M615 508 c-77 -10 -141 -21 -143 -23 -2 -2 -1 -9 3 -15 5 -8 23 -9
55 -5 l48 7 5 -39 c3 -21 5 -49 3 -63 -2 -22 -8 -25 -49 -28 -35 -2 -47 -7
-47 -19 0 -14 12 -15 93 -9 175 12 277 28 277 44 0 12 -14 13 -78 7 l-78 -7 4
36 c2 19 -1 49 -6 65 -11 30 -10 30 31 33 28 2 42 8 42 17 0 20 -5 20 -160 -1z
m57 -93 l3 -65 -30 0 c-30 0 -30 0 -29 58 2 76 1 72 28 72 23 0 24 -4 28 -65z"/>
<path d="M183 3 c9 -2 23 -2 30 0 6 3 -1 5 -18 5 -16 0 -22 -2 -12 -5z"/>
</g>
</svg>
