<?xml version="1.0" standalone="no"?>
<!DOCTYPE svg PUBLIC "-//W3C//DTD SVG 20010904//EN"
 "http://www.w3.org/TR/2001/REC-SVG-20010904/DTD/svg10.dtd">
<svg version="1.0" xmlns="http://www.w3.org/2000/svg"
 width="135.000000pt" height="135.000000pt" viewBox="0 0 135.000000 135.000000"
 preserveAspectRatio="xMidYMid meet">
<metadata>
Created by potrace 1.16, written by Peter Selinger 2001-2019
</metadata>
<g transform="translate(0.000000,135.000000) scale(0.100000,-0.100000)"
fill="#000000" stroke="none">
<path d="M4 675 c-1 -374 1 -668 3 -652 l4 27 664 0 664 0 4 -27 c2 -16 4 278
3 652 0 374 -2 602 -3 508 l-3 -173 -31 0 c-18 0 -28 -4 -24 -10 3 -5 17 -10
31 -10 24 0 24 -1 24 -94 0 -90 -1 -95 -22 -99 l-23 -4 23 -2 c22 -1 22 -2 22
-161 l0 -160 -31 0 c-17 0 -28 -4 -24 -10 3 -5 17 -10 31 -10 24 0 24 0 24
-110 0 -103 -1 -110 -20 -110 -11 0 -20 -4 -20 -10 0 -5 9 -10 20 -10 18 0 20
-7 20 -75 l0 -75 -665 0 -665 0 0 74 c0 68 2 74 23 81 l22 8 -23 4 c-21 4 -22
8 -22 114 l0 109 25 0 c14 0 25 5 25 10 0 6 -11 10 -25 10 l-25 0 0 159 c0
158 0 160 23 164 l22 4 -22 2 c-22 1 -23 5 -23 96 0 95 0 95 25 95 14 0 25 5
25 10 0 6 -11 10 -25 10 l-25 0 -3 173 c-1 94 -3 -134 -3 -508z"/>
<path d="M528 1195 c-51 -37 -62 -53 -72 -101 -6 -27 -2 -38 26 -69 41 -47 82
-65 151 -65 81 0 150 24 186 65 58 67 56 124 -7 172 -42 32 -46 33 -140 33
-95 0 -98 -1 -144 -35z m264 -21 c44 -31 49 -61 19 -110 -23 -38 -69 -60 -142
-69 -77 -9 -117 1 -155 41 -30 30 -32 36 -23 66 10 35 43 67 70 68 9 0 30 7
45 15 16 8 55 15 88 15 48 0 67 -5 98 -26z"/>
<path d="M850 899 c-47 -4 -150 -15 -230 -24 -80 -8 -181 -19 -225 -23 -124
-11 -94 -28 43 -24 l117 4 3 -64 c3 -64 16 -95 28 -65 3 9 4 43 2 76 l-3 60
55 6 c30 4 67 9 82 11 l28 6 -6 -59 c-5 -61 4 -113 21 -113 6 0 10 34 9 84
l-1 85 76 6 c85 7 126 17 126 31 0 12 -25 13 -125 3z"/>
<path d="M720 637 c0 -17 138 -43 153 -28 14 14 -20 28 -90 36 -52 6 -63 4
-63 -8z"/>
<path d="M513 618 c-55 -7 -73 -14 -73 -25 0 -13 11 -15 71 -9 39 4 77 10 84
12 13 6 26 -38 16 -54 -7 -11 -140 -34 -151 -27 -26 16 -54 -141 -31 -169 23
-28 251 1 251 31 0 12 -7 14 -32 8 -56 -12 -189 -21 -195 -12 -2 4 -2 30 2 57
7 54 -4 48 128 66 40 5 50 11 58 32 6 15 7 41 2 62 -10 41 -19 43 -130 28z"/>
<path d="M757 563 c-40 -3 -57 -8 -54 -16 3 -8 31 -11 92 -10 96 3 120 7 110
23 -6 10 -28 10 -148 3z"/>
<path d="M795 503 c-17 -14 -45 -70 -45 -92 0 -38 35 -61 93 -61 43 0 58 5 75
23 31 33 30 91 -1 112 -27 17 -107 29 -122 18z m105 -48 c18 -22 4 -64 -24
-71 -36 -9 -78 -1 -89 17 -17 28 21 68 64 69 21 0 42 -7 49 -15z"/>
</g>
</svg>
