<?xml version="1.0" standalone="no"?>
<!DOCTYPE svg PUBLIC "-//W3C//DTD SVG 20010904//EN"
 "http://www.w3.org/TR/2001/REC-SVG-20010904/DTD/svg10.dtd">
<svg version="1.0" xmlns="http://www.w3.org/2000/svg"
 width="135.000000pt" height="135.000000pt" viewBox="0 0 135.000000 135.000000"
 preserveAspectRatio="xMidYMid meet">
<metadata>
Created by potrace 1.16, written by Peter Selinger 2001-2019
</metadata>
<g transform="translate(0.000000,135.000000) scale(0.100000,-0.100000)"
fill="#000000" stroke="none">
<path d="M0 675 c0 -443 3 -675 10 -675 6 0 10 7 10 15 0 13 81 15 665 15 437
0 665 3 665 10 0 7 -228 10 -665 10 l-665 0 0 74 c0 69 2 75 22 79 l23 4 -22
8 c-22 7 -23 12 -23 111 l0 104 25 0 c14 0 25 5 25 10 0 6 -11 10 -25 10 l-25
0 0 159 c0 156 0 159 23 166 l22 8 -23 4 c-21 4 -22 9 -22 94 0 88 0 89 25 89
14 0 25 5 25 10 0 6 -11 10 -25 10 l-25 0 0 180 c0 113 -4 180 -10 180 -7 0
-10 -232 -10 -675z"/>
<path d="M572 1180 c-34 -4 -64 -9 -67 -12 -2 -2 -8 -61 -11 -131 -6 -112 -5
-127 9 -133 10 -3 87 -2 172 3 114 7 159 13 169 23 9 10 16 53 20 122 8 139 8
138 -127 137 -56 -1 -130 -5 -165 -9z m261 -27 c2 -5 2 -52 -1 -105 l-4 -97
-42 -6 c-22 -3 -92 -7 -153 -9 l-113 -3 0 32 c0 18 3 66 6 108 l7 76 66 4
c137 7 230 7 234 0z"/>
<path d="M1295 980 c3 -5 17 -10 31 -10 13 0 24 5 24 10 0 6 -14 10 -31 10
-17 0 -28 -4 -24 -10z"/>
<path d="M483 822 c-47 -2 -63 -7 -63 -17 0 -12 22 -15 120 -15 l119 0 3 -72
c2 -40 8 -73 13 -73 6 0 11 33 13 73 l3 72 77 0 c106 0 182 10 182 24 0 12
-292 16 -467 8z"/>
<path d="M1310 780 c0 -5 9 -10 20 -10 11 0 20 5 20 10 0 6 -9 10 -20 10 -11
0 -20 -4 -20 -10z"/>
<path d="M746 621 c-89 -9 -86 -31 4 -31 84 0 84 -1 -9 -99 -34 -34 -61 -67
-61 -72 0 -20 27 -6 71 37 l47 46 67 -46 c43 -29 78 -46 97 -46 37 0 33 21 -5
31 -34 9 -127 77 -127 92 0 7 9 23 20 37 11 14 20 33 20 43 0 18 -10 19 -124
8z"/>
<path d="M473 538 c6 -104 11 -115 49 -120 52 -8 128 3 128 18 0 11 -17 14
-69 14 l-68 0 -7 38 c-3 20 -6 58 -6 85 0 37 -4 47 -16 47 -15 0 -16 -10 -11
-82z"/>
<path d="M1295 440 c3 -5 17 -10 31 -10 13 0 24 5 24 10 0 6 -14 10 -31 10
-17 0 -28 -4 -24 -10z"/>
<path d="M1310 210 c0 -5 9 -10 20 -10 11 0 20 5 20 10 0 6 -9 10 -20 10 -11
0 -20 -4 -20 -10z"/>
</g>
</svg>
