<?xml version="1.0" standalone="no"?>
<!DOCTYPE svg PUBLIC "-//W3C//DTD SVG 20010904//EN"
 "http://www.w3.org/TR/2001/REC-SVG-20010904/DTD/svg10.dtd">
<svg version="1.0" xmlns="http://www.w3.org/2000/svg"
 width="135.000000pt" height="135.000000pt" viewBox="0 0 135.000000 135.000000"
 preserveAspectRatio="xMidYMid meet">
<metadata>
Created by potrace 1.16, written by Peter Selinger 2001-2019
</metadata>
<g transform="translate(0.000000,135.000000) scale(0.100000,-0.100000)"
fill="#000000" stroke="none">
<path d="M0 675 c0 -443 3 -675 10 -675 6 0 10 7 10 15 0 13 81 15 665 15 437
0 665 3 665 10 0 7 -228 10 -665 10 l-665 0 0 75 c0 68 2 75 20 75 11 0 20 5
20 10 0 6 -9 10 -20 10 -19 0 -20 7 -20 105 l0 105 25 0 c14 0 25 5 25 10 0 6
-11 10 -25 10 l-25 0 0 160 c0 153 1 160 20 160 11 0 20 5 20 10 0 6 -9 10
-20 10 -19 0 -20 7 -20 90 0 89 0 90 25 90 14 0 25 5 25 10 0 6 -11 10 -25 10
l-25 0 0 180 c0 113 -4 180 -10 180 -7 0 -10 -232 -10 -675z"/>
<path d="M922 1108 c3 -103 -12 -367 -22 -373 -4 -3 -47 -8 -94 -11 -120 -10
-110 -30 12 -27 l91 2 6 -37 c4 -20 7 -43 8 -50 1 -7 7 -13 12 -12 6 0 9 43 7
113 -2 61 1 166 8 232 13 138 6 245 -17 245 -11 0 -13 -17 -11 -82z"/>
<path d="M429 1173 c-29 -7 -40 -233 -13 -271 14 -21 23 -22 133 -22 163 0
161 -2 164 155 1 66 -2 126 -6 133 -6 9 -43 12 -135 11 -70 -1 -134 -3 -143
-6z m249 -140 l-3 -118 -117 -3 c-112 -3 -117 -2 -123 19 -7 22 3 197 12 211
2 5 56 8 119 8 l115 0 -3 -117z"/>
<path d="M1300 980 c0 -5 11 -10 25 -10 14 0 25 5 25 10 0 6 -11 10 -25 10
-14 0 -25 -4 -25 -10z"/>
<path d="M427 793 c-48 -3 -67 -8 -64 -16 3 -8 34 -12 105 -11 l102 1 0 -52
c0 -71 10 -115 26 -115 10 0 12 18 7 85 l-6 84 79 3 c46 2 78 7 77 13 -3 10
-195 15 -326 8z"/>
<path d="M1310 780 c0 -5 9 -10 20 -10 11 0 20 5 20 10 0 6 -9 10 -20 10 -11
0 -20 -4 -20 -10z"/>
<path d="M654 568 c-11 -17 18 -28 74 -28 47 0 71 15 40 25 -32 9 -109 12
-114 3z"/>
<path d="M633 488 c-73 -8 -93 -13 -93 -25 0 -13 11 -15 68 -9 37 3 124 9 195
13 96 5 127 9 127 20 0 16 -148 16 -297 1z"/>
<path d="M1300 440 c0 -5 11 -10 25 -10 14 0 25 5 25 10 0 6 -11 10 -25 10
-14 0 -25 -4 -25 -10z"/>
<path d="M652 400 c-39 -24 -54 -52 -50 -93 4 -47 54 -77 127 -77 97 0 154 46
138 112 -14 55 -156 94 -215 58z m163 -44 c54 -35 16 -87 -69 -94 -97 -8 -146
40 -94 95 19 20 29 23 80 19 32 -2 70 -11 83 -20z"/>
<path d="M1310 210 c0 -5 9 -10 20 -10 11 0 20 5 20 10 0 6 -9 10 -20 10 -11
0 -20 -4 -20 -10z"/>
</g>
</svg>
