<?xml version="1.0" standalone="no"?>
<!DOCTYPE svg PUBLIC "-//W3C//DTD SVG 20010904//EN"
 "http://www.w3.org/TR/2001/REC-SVG-20010904/DTD/svg10.dtd">
<svg version="1.0" xmlns="http://www.w3.org/2000/svg"
 width="135.000000pt" height="135.000000pt" viewBox="0 0 135.000000 135.000000"
 preserveAspectRatio="xMidYMid meet">
<metadata>
Created by potrace 1.16, written by Peter Selinger 2001-2019
</metadata>
<g transform="translate(0.000000,135.000000) scale(0.100000,-0.100000)"
fill="#000000" stroke="none">
<path d="M0 705 l0 -645 675 0 675 0 0 645 c0 423 -3 645 -10 645 -7 0 -10
-217 -10 -630 l0 -630 -650 0 -650 0 0 630 c0 553 -2 630 -15 630 -13 0 -15
-78 -15 -645z"/>
<path d="M835 1230 c-3 -5 -3 -19 0 -31 4 -11 4 -42 0 -69 l-7 -48 -114 -17
c-63 -10 -117 -16 -119 -13 -2 2 2 25 10 51 8 26 12 54 9 61 -9 22 -48 27
-126 16 -108 -16 -118 -19 -118 -36 0 -12 6 -15 23 -10 12 3 59 9 105 12 73 6
82 5 82 -10 0 -21 -85 -230 -111 -272 -22 -37 -24 -54 -5 -54 12 0 65 97 95
175 11 30 14 31 114 43 56 7 114 15 128 18 l26 6 7 -113 c7 -113 11 -133 26
-124 13 8 7 418 -7 422 -6 2 -14 -1 -18 -7z"/>
<path d="M776 673 c-30 -95 -69 -193 -77 -193 -15 0 -130 72 -135 84 -3 7 2
29 11 49 8 20 15 44 15 53 0 34 -25 4 -56 -68 -17 -41 -44 -94 -58 -116 -26
-42 -33 -76 -18 -86 5 -3 25 25 44 62 19 37 38 67 42 66 20 -3 146 -80 145
-89 -7 -64 24 -29 58 64 l27 78 31 -31 c35 -35 151 -116 165 -116 22 0 8 32
-21 48 -18 9 -60 40 -94 69 -34 29 -65 50 -67 47 -7 -6 25 88 34 102 4 6 5 14
1 18 -17 16 -33 2 -47 -41z"/>
</g>
</svg>
