<?xml version="1.0" standalone="no"?>
<!DOCTYPE svg PUBLIC "-//W3C//DTD SVG 20010904//EN"
 "http://www.w3.org/TR/2001/REC-SVG-20010904/DTD/svg10.dtd">
<svg version="1.0" xmlns="http://www.w3.org/2000/svg"
 width="135.000000pt" height="135.000000pt" viewBox="0 0 135.000000 135.000000"
 preserveAspectRatio="xMidYMid meet">
<metadata>
Created by potrace 1.16, written by Peter Selinger 2001-2019
</metadata>
<g transform="translate(0.000000,135.000000) scale(0.100000,-0.100000)"
fill="#000000" stroke="none">
<path d="M381 1013 c0 -32 8 -80 17 -108 l17 -50 45 1 c54 1 206 13 238 20 12
2 22 10 22 18 0 15 -98 13 -199 -5 -30 -5 -61 -9 -68 -9 -19 0 -34 43 -41 119
-9 85 -32 96 -31 14z"/>
<path d="M867 974 c-3 -42 -3 -107 0 -144 l6 -68 -49 -7 c-66 -9 -76 -13 -71
-28 4 -13 23 -14 79 -3 l37 7 3 -48 c2 -33 7 -48 17 -48 12 0 14 34 12 200 -1
109 -5 203 -7 207 -14 22 -22 1 -27 -68z"/>
<path d="M665 799 c-44 -5 -125 -12 -179 -17 -71 -5 -101 -11 -104 -21 -4 -12
15 -13 111 -9 l116 5 3 -51 c2 -37 7 -51 18 -51 12 0 14 12 12 58 l-4 57 52 0
c54 0 95 15 85 31 -4 5 -12 8 -18 8 -7 -1 -48 -6 -92 -10z"/>
<path d="M790 581 c-37 -5 -45 -9 -43 -26 1 -11 5 -65 9 -120 9 -137 10 -138
95 -133 99 5 102 9 91 146 -5 63 -14 118 -22 127 -13 15 -46 17 -130 6z m110
-40 c5 -11 10 -60 10 -109 0 -73 -3 -91 -16 -96 -22 -9 -94 -7 -95 2 0 4 -2
18 -4 32 -1 14 -6 60 -10 102 l-7 77 34 4 c68 8 77 7 88 -12z"/>
<path d="M610 560 c-14 -4 -42 -8 -63 -9 -26 -1 -37 -5 -34 -13 4 -15 72 -16
130 -4 37 8 39 7 35 -15 -3 -21 -12 -25 -74 -38 l-72 -14 -6 -45 c-9 -68 -7
-106 7 -125 11 -16 18 -15 94 10 45 16 83 34 83 41 0 18 -31 15 -94 -9 -31
-12 -59 -19 -62 -16 -4 3 -3 31 0 61 l7 55 57 11 c97 19 93 16 90 68 -3 46 -4
47 -38 49 -19 1 -46 -2 -60 -7z"/>
</g>
</svg>
