<?xml version="1.0" standalone="no"?>
<!DOCTYPE svg PUBLIC "-//W3C//DTD SVG 20010904//EN"
 "http://www.w3.org/TR/2001/REC-SVG-20010904/DTD/svg10.dtd">
<svg version="1.0" xmlns="http://www.w3.org/2000/svg"
 width="135.000000pt" height="135.000000pt" viewBox="0 0 135.000000 135.000000"
 preserveAspectRatio="xMidYMid meet">
<metadata>
Created by potrace 1.16, written by Peter Selinger 2001-2019
</metadata>
<g transform="translate(0.000000,135.000000) scale(0.100000,-0.100000)"
fill="#000000" stroke="none">
<path d="M0 675 c0 -443 3 -675 10 -675 6 0 10 13 10 30 l0 30 668 3 667 2
-667 3 -668 2 0 79 c0 75 1 80 22 84 l23 4 -22 8 c-22 7 -23 12 -23 111 l0
104 25 0 c14 0 25 5 25 10 0 6 -11 10 -25 10 l-25 0 0 159 c0 156 0 159 23
166 l22 8 -23 4 c-21 4 -22 9 -22 94 0 88 0 89 25 89 14 0 25 5 25 10 0 6 -11
10 -25 10 l-25 0 0 165 c0 103 -4 165 -10 165 -7 0 -10 -232 -10 -675z"/>
<path d="M807 1174 c-8 -9 -7 -292 2 -387 3 -37 10 -66 16 -65 12 3 8 451 -4
456 -4 1 -10 -1 -14 -4z"/>
<path d="M585 1158 c-49 -5 -123 -12 -164 -16 -49 -5 -76 -12 -79 -21 -4 -11
9 -13 61 -9 l66 4 3 -83 3 -82 -44 -3 c-27 -2 -46 -8 -49 -17 -4 -12 14 -13
109 -7 154 10 220 19 219 31 0 6 -22 10 -49 10 l-48 0 13 50 c8 28 11 65 8 83
-5 27 -3 32 14 32 11 0 27 3 36 6 19 7 22 35 4 33 -7 -1 -53 -6 -103 -11z m10
-135 l-7 -63 -39 0 c-49 0 -53 10 -44 95 l6 64 42 3 c50 4 52 -3 42 -99z"/>
<path d="M1290 1010 c0 -5 14 -10 30 -10 17 0 30 5 30 10 0 6 -13 10 -30 10
-16 0 -30 -4 -30 -10z"/>
<path d="M530 859 c-58 -5 -115 -14 -128 -19 -30 -13 -18 -33 16 -26 15 3 53
8 84 11 l57 6 3 -63 c2 -49 7 -63 19 -66 15 -3 16 5 12 61 l-5 64 47 6 c26 4
61 7 76 7 19 0 29 5 29 15 0 17 -37 18 -210 4z"/>
<path d="M1305 810 c3 -5 15 -10 26 -10 10 0 19 5 19 10 0 6 -12 10 -26 10
-14 0 -23 -4 -19 -10z"/>
<path d="M659 613 c-18 -27 -50 -69 -71 -94 -21 -25 -38 -51 -38 -57 0 -13 30
-17 30 -4 0 4 22 31 48 61 l48 54 40 -26 c21 -14 66 -33 99 -42 33 -9 76 -25
97 -36 24 -12 39 -15 43 -8 12 19 -16 37 -103 65 -48 15 -102 37 -119 48 -29
19 -32 25 -27 54 9 46 -9 40 -47 -15z"/>
<path d="M1290 470 c0 -5 14 -10 30 -10 17 0 30 5 30 10 0 6 -13 10 -30 10
-16 0 -30 -4 -30 -10z"/>
<path d="M1305 240 c-4 -6 5 -10 19 -10 14 0 26 5 26 10 0 6 -9 10 -19 10 -11
0 -23 -4 -26 -10z"/>
</g>
</svg>
