<?xml version="1.0" standalone="no"?>
<!DOCTYPE svg PUBLIC "-//W3C//DTD SVG 20010904//EN"
 "http://www.w3.org/TR/2001/REC-SVG-20010904/DTD/svg10.dtd">
<svg version="1.0" xmlns="http://www.w3.org/2000/svg"
 width="135.000000pt" height="135.000000pt" viewBox="0 0 135.000000 135.000000"
 preserveAspectRatio="xMidYMid meet">
<metadata>
Created by potrace 1.16, written by Peter Selinger 2001-2019
</metadata>
<g transform="translate(0.000000,135.000000) scale(0.100000,-0.100000)"
fill="#000000" stroke="none">
<path d="M744 1017 c-2 -7 -3 -93 -2 -192 2 -132 6 -179 16 -183 9 -3 12 19
12 90 l0 93 53 20 c28 11 55 21 60 23 11 5 9 -86 -4 -173 -9 -55 -9 -79 -1
-87 18 -18 29 26 41 177 6 77 14 164 18 194 5 43 3 53 -8 49 -15 -5 -27 -38
-28 -84 -1 -28 -7 -34 -60 -58 -32 -14 -61 -26 -65 -26 -3 0 -6 38 -6 85 0 52
-4 85 -10 85 -6 0 -13 -6 -16 -13z"/>
<path d="M361 952 c-41 -10 -76 -23 -79 -29 -5 -17 26 -16 108 2 36 8 80 14
99 15 33 0 34 0 28 -37 -4 -21 -31 -88 -62 -149 -56 -114 -64 -138 -42 -132
18 5 128 231 134 277 4 26 1 46 -7 56 -16 19 -82 18 -179 -3z"/>
<path d="M635 479 c-38 -10 -90 -18 -115 -17 -34 2 -45 -1 -45 -12 0 -22 84
-24 153 -5 31 9 89 19 129 22 l73 6 0 -77 c0 -58 3 -76 14 -76 7 0 16 14 20
30 7 37 -3 120 -17 138 -14 18 -131 14 -212 -9z"/>
</g>
</svg>
