<?xml version="1.0" standalone="no"?>
<!DOCTYPE svg PUBLIC "-//W3C//DTD SVG 20010904//EN"
 "http://www.w3.org/TR/2001/REC-SVG-20010904/DTD/svg10.dtd">
<svg version="1.0" xmlns="http://www.w3.org/2000/svg"
 width="135.000000pt" height="135.000000pt" viewBox="0 0 135.000000 135.000000"
 preserveAspectRatio="xMidYMid meet">
<metadata>
Created by potrace 1.16, written by Peter Selinger 2001-2019
</metadata>
<g transform="translate(0.000000,135.000000) scale(0.100000,-0.100000)"
fill="#000000" stroke="none">
<path d="M12 1180 c-5 -335 -3 -1172 2 -1178 3 -3 6 4 6 16 l0 22 665 0 c437
0 665 3 665 10 0 7 -228 10 -665 10 l-665 0 0 75 c0 68 2 75 20 75 11 0 20 5
20 10 0 6 -9 10 -20 10 -19 0 -20 7 -20 110 l0 110 31 0 c17 0 28 4 24 10 -3
6 -17 10 -31 10 l-24 0 0 155 c0 148 1 155 20 155 11 0 20 5 20 10 0 6 -9 10
-20 10 -19 0 -20 7 -20 90 0 89 0 90 24 90 14 0 28 5 31 10 4 6 -6 10 -24 10
l-31 0 -3 178 -2 177 -3 -175z"/>
<path d="M563 1191 c-36 -9 -51 -19 -100 -65 -30 -27 -33 -35 -33 -86 0 -44 5
-61 19 -74 27 -24 88 -45 133 -46 l37 0 -6 -72 c-3 -40 -9 -77 -13 -81 -4 -4
-60 -11 -124 -15 -64 -4 -117 -11 -119 -17 -3 -15 108 -18 213 -5 52 6 163 15
245 18 205 9 195 27 -15 25 -182 -1 -166 -11 -154 93 l6 51 69 12 c99 18 149
66 149 143 0 75 -71 120 -195 124 -44 2 -95 -1 -112 -5z m179 -31 c21 -6 51
-22 68 -36 40 -34 40 -72 0 -118 -26 -29 -41 -36 -99 -46 -80 -15 -161 -10
-213 13 -37 15 -38 18 -38 65 0 45 3 52 37 78 65 50 161 67 245 44z"/>
<path d="M1300 990 c0 -5 11 -10 25 -10 14 0 25 5 25 10 0 6 -11 10 -25 10
-14 0 -25 -4 -25 -10z"/>
<path d="M1315 790 c3 -5 13 -10 21 -10 8 0 14 5 14 10 0 6 -9 10 -21 10 -11
0 -17 -4 -14 -10z"/>
<path d="M467 613 c-20 -19 9 -23 183 -23 174 0 190 -1 190 -17 1 -10 5 -65
10 -122 9 -98 20 -135 34 -113 10 16 -11 251 -24 267 -10 12 -45 15 -200 15
-102 0 -190 -3 -193 -7z"/>
<path d="M1300 460 c0 -5 11 -10 25 -10 14 0 25 5 25 10 0 6 -11 10 -25 10
-14 0 -25 -4 -25 -10z"/>
<path d="M1315 220 c-3 -5 3 -10 14 -10 12 0 21 5 21 10 0 6 -6 10 -14 10 -8
0 -18 -4 -21 -10z"/>
</g>
</svg>
