<?xml version="1.0" standalone="no"?>
<!DOCTYPE svg PUBLIC "-//W3C//DTD SVG 20010904//EN"
 "http://www.w3.org/TR/2001/REC-SVG-20010904/DTD/svg10.dtd">
<svg version="1.0" xmlns="http://www.w3.org/2000/svg"
 width="135.000000pt" height="135.000000pt" viewBox="0 0 135.000000 135.000000"
 preserveAspectRatio="xMidYMid meet">
<metadata>
Created by potrace 1.16, written by Peter Selinger 2001-2019
</metadata>
<g transform="translate(0.000000,135.000000) scale(0.100000,-0.100000)"
fill="#000000" stroke="none">
<path d="M12 1175 c-5 -346 -3 -1167 2 -1173 3 -3 6 2 6 11 0 16 51 17 665 17
437 0 665 3 665 10 0 7 -228 10 -665 10 l-665 0 0 75 c0 68 2 75 20 75 11 0
20 5 20 10 0 6 -9 10 -20 10 -19 0 -20 7 -20 105 0 105 0 105 24 105 14 0 28
4 31 10 4 6 -7 10 -24 10 l-31 0 0 160 c0 153 1 160 20 160 11 0 20 5 20 10 0
6 -9 10 -20 10 -19 0 -20 7 -20 90 0 89 0 90 24 90 14 0 28 5 31 10 4 6 -6 10
-24 10 l-31 0 -3 183 -2 182 -3 -180z"/>
<path d="M938 1158 c0 -2 -6 -102 -13 -223 -11 -207 -8 -253 14 -229 15 14 26
454 12 454 -6 0 -12 -1 -13 -2z"/>
<path d="M470 1078 c-36 -5 -69 -14 -75 -19 -6 -6 -10 -63 -10 -130 0 -104 2
-122 18 -134 10 -7 60 -16 112 -20 155 -11 173 10 155 180 -16 142 -11 135
-78 134 -31 -1 -86 -6 -122 -11z m164 -70 c3 -29 6 -85 6 -124 0 -71 0 -72
-30 -77 -16 -4 -65 -4 -109 0 l-79 6 -6 68 c-4 38 -4 89 -1 113 l7 45 57 6
c31 4 61 8 66 10 6 2 26 4 46 4 l36 1 7 -52z"/>
<path d="M805 1025 l-6 -55 -42 0 c-44 0 -77 -14 -64 -26 4 -4 30 -7 57 -5
l50 2 0 -55 c0 -30 5 -58 11 -61 6 -4 12 -5 13 -4 2 2 6 61 9 132 5 102 3 127
-7 127 -9 0 -16 -20 -21 -55z"/>
<path d="M1300 980 c0 -5 11 -10 25 -10 14 0 25 5 25 10 0 6 -11 10 -25 10
-14 0 -25 -4 -25 -10z"/>
<path d="M1315 780 c3 -5 13 -10 21 -10 8 0 14 5 14 10 0 6 -9 10 -21 10 -11
0 -17 -4 -14 -10z"/>
<path d="M567 701 c-21 -3 -37 -10 -37 -16 0 -6 54 -9 148 -6 180 4 192 1 192
-44 0 -42 4 -41 -190 -54 -80 -5 -157 -14 -172 -20 -27 -10 -28 -14 -28 -79 0
-101 21 -120 144 -137 76 -10 286 5 286 21 0 10 -35 12 -162 11 -162 -1 -211
7 -230 36 -4 7 -8 35 -8 63 0 40 4 53 18 59 9 4 83 11 163 15 177 11 198 15
210 48 13 33 1 90 -22 102 -19 11 -249 11 -312 1z"/>
<path d="M1300 440 c0 -5 11 -10 25 -10 14 0 25 5 25 10 0 6 -11 10 -25 10
-14 0 -25 -4 -25 -10z"/>
<path d="M1315 210 c-3 -5 3 -10 14 -10 12 0 21 5 21 10 0 6 -6 10 -14 10 -8
0 -18 -4 -21 -10z"/>
</g>
</svg>
