<?xml version="1.0" standalone="no"?>
<!DOCTYPE svg PUBLIC "-//W3C//DTD SVG 20010904//EN"
 "http://www.w3.org/TR/2001/REC-SVG-20010904/DTD/svg10.dtd">
<svg version="1.0" xmlns="http://www.w3.org/2000/svg"
 width="135.000000pt" height="135.000000pt" viewBox="0 0 135.000000 135.000000"
 preserveAspectRatio="xMidYMid meet">
<metadata>
Created by potrace 1.16, written by Peter Selinger 2001-2019
</metadata>
<g transform="translate(0.000000,135.000000) scale(0.100000,-0.100000)"
fill="#000000" stroke="none">
<path d="M0 675 c0 -443 3 -675 10 -675 6 0 10 5 10 10 0 7 228 10 665 10 437
0 665 3 665 10 0 7 -228 10 -665 10 l-665 0 0 79 c0 75 1 80 22 84 l23 4 -22
2 c-22 1 -23 4 -23 111 l0 110 25 0 c14 0 25 5 25 10 0 6 -11 10 -25 10 l-25
0 0 159 c0 158 0 160 23 164 l22 4 -23 8 c-21 7 -22 13 -22 96 0 88 0 89 25
89 14 0 25 5 25 10 0 6 -11 10 -25 10 l-25 0 0 180 c0 113 -4 180 -10 180 -7
0 -10 -232 -10 -675z"/>
<path d="M630 1099 c-98 -16 -163 -25 -192 -28 -11 -1 3 -164 15 -178 13 -18
46 -16 182 7 64 11 130 20 145 20 43 0 86 18 73 31 -8 8 -55 4 -159 -12 -82
-12 -165 -24 -186 -26 l-36 -5 -4 66 c-3 63 -2 66 22 70 14 3 89 15 168 27
103 16 142 25 142 35 0 18 -25 17 -170 -7z"/>
<path d="M1290 980 c0 -5 14 -10 30 -10 17 0 30 5 30 10 0 6 -13 10 -30 10
-16 0 -30 -4 -30 -10z"/>
<path d="M708 835 c-3 -3 -3 -28 0 -55 4 -46 3 -49 -22 -56 -37 -9 -56 1 -56
30 0 37 -18 78 -31 70 -11 -6 -7 -62 6 -97 5 -11 -8 -15 -61 -20 -73 -7 -80
-10 -69 -27 8 -12 7 -12 235 16 204 26 215 28 215 44 0 8 -6 14 -14 12 -7 -2
-49 -6 -92 -9 l-79 -6 0 40 c0 37 -19 71 -32 58z"/>
<path d="M1305 780 c-4 -6 5 -10 19 -10 14 0 26 5 26 10 0 6 -9 10 -19 10 -11
0 -23 -4 -26 -10z"/>
<path d="M685 594 c-118 -16 -132 -21 -118 -35 8 -8 42 -8 120 2 59 7 110 12
113 11 3 -1 5 -10 5 -19 0 -24 -55 -42 -128 -42 -88 -1 -97 -9 -97 -85 0 -82
10 -91 93 -83 174 17 257 36 257 58 0 8 -12 9 -37 5 -49 -9 -164 -25 -230 -33
l-53 -5 0 43 c0 24 4 49 8 55 4 6 41 14 82 18 41 3 86 7 99 9 28 4 43 36 39
82 -4 37 -15 38 -153 19z"/>
<path d="M1290 440 c0 -5 14 -10 30 -10 17 0 30 5 30 10 0 6 -13 10 -30 10
-16 0 -30 -4 -30 -10z"/>
<path d="M1313 203 c9 -2 23 -2 30 0 6 3 -1 5 -18 5 -16 0 -22 -2 -12 -5z"/>
</g>
</svg>
