<?xml version="1.0" standalone="no"?>
<!DOCTYPE svg PUBLIC "-//W3C//DTD SVG 20010904//EN"
 "http://www.w3.org/TR/2001/REC-SVG-20010904/DTD/svg10.dtd">
<svg version="1.0" xmlns="http://www.w3.org/2000/svg"
 width="135.000000pt" height="135.000000pt" viewBox="0 0 135.000000 135.000000"
 preserveAspectRatio="xMidYMid meet">
<metadata>
Created by potrace 1.16, written by Peter Selinger 2001-2019
</metadata>
<g transform="translate(0.000000,135.000000) scale(0.100000,-0.100000)"
fill="#000000" stroke="none">
<path d="M0 675 c0 -443 3 -675 10 -675 6 0 10 9 10 20 0 20 7 20 665 20 437
0 665 3 665 10 0 7 -228 10 -665 10 l-665 0 0 75 c0 68 2 75 20 75 11 0 20 5
20 10 0 6 -9 10 -20 10 -19 0 -20 7 -20 110 l0 110 25 0 c14 0 25 5 25 10 0 6
-11 10 -25 10 l-25 0 0 155 c0 148 1 155 20 155 11 0 20 5 20 10 0 6 -9 10
-20 10 -19 0 -20 7 -20 90 0 89 0 90 25 90 14 0 25 5 25 10 0 6 -11 10 -25 10
l-25 0 0 175 c0 110 -4 175 -10 175 -7 0 -10 -232 -10 -675z"/>
<path d="M964 1068 c-5 -7 -12 -44 -16 -83 -10 -95 -27 -628 -21 -638 15 -25
24 27 32 193 6 102 10 217 10 255 1 39 5 115 10 170 9 95 4 133 -15 103z"/>
<path d="M1300 990 c0 -5 11 -10 25 -10 14 0 25 5 25 10 0 6 -11 10 -25 10
-14 0 -25 -4 -25 -10z"/>
<path d="M444 973 c-31 -6 -47 -28 -84 -112 -30 -70 -32 -80 -28 -166 4 -107
24 -150 81 -179 101 -49 176 33 207 230 15 91 -1 160 -45 202 -35 32 -66 38
-131 25z m102 -41 c34 -27 44 -56 44 -129 0 -89 -30 -196 -65 -233 -33 -34
-50 -39 -92 -28 -46 12 -66 55 -71 154 -4 73 -2 87 26 149 18 41 38 72 50 76
11 4 23 12 27 18 10 17 57 13 81 -7z"/>
<path d="M827 963 c-4 -3 -7 -20 -7 -37 0 -48 -10 -55 -80 -58 -36 -2 -65 -8
-67 -14 -6 -18 39 -25 91 -15 l47 9 -3 -47 c-3 -50 -9 -54 -90 -66 -24 -4 -38
-11 -38 -20 0 -17 5 -17 72 -6 l47 8 3 -115 c2 -78 7 -117 15 -119 16 -6 22
49 26 285 4 187 2 214 -16 195z"/>
<path d="M1310 790 c0 -5 9 -10 20 -10 11 0 20 5 20 10 0 6 -9 10 -20 10 -11
0 -20 -4 -20 -10z"/>
<path d="M1300 460 c0 -5 11 -10 25 -10 14 0 25 5 25 10 0 6 -11 10 -25 10
-14 0 -25 -4 -25 -10z"/>
<path d="M1310 220 c0 -5 9 -10 20 -10 11 0 20 5 20 10 0 6 -9 10 -20 10 -11
0 -20 -4 -20 -10z"/>
</g>
</svg>
