<?xml version="1.0" standalone="no"?>
<!DOCTYPE svg PUBLIC "-//W3C//DTD SVG 20010904//EN"
 "http://www.w3.org/TR/2001/REC-SVG-20010904/DTD/svg10.dtd">
<svg version="1.0" xmlns="http://www.w3.org/2000/svg"
 width="135.000000pt" height="135.000000pt" viewBox="0 0 135.000000 135.000000"
 preserveAspectRatio="xMidYMid meet">
<metadata>
Created by potrace 1.16, written by Peter Selinger 2001-2019
</metadata>
<g transform="translate(0.000000,135.000000) scale(0.100000,-0.100000)"
fill="#000000" stroke="none">
<path d="M12 1170 c-5 -348 -3 -1162 2 -1168 3 -3 6 0 6 6 0 9 165 12 665 12
437 0 665 3 665 10 0 7 -228 10 -665 10 l-665 0 0 79 c0 75 1 80 23 84 l22 4
-22 2 c-22 1 -23 4 -23 111 l0 110 31 0 c17 0 28 4 24 10 -3 6 -17 10 -31 10
l-24 0 0 160 c0 153 1 160 20 160 11 0 20 5 20 10 0 6 -9 10 -20 10 -19 0 -20
7 -20 90 l0 90 31 0 c17 0 28 4 24 10 -3 6 -17 10 -30 10 l-25 0 -3 183 -2
182 -3 -185z"/>
<path d="M897 1053 c-4 -3 -7 -82 -7 -174 0 -156 5 -189 28 -176 10 7 3 357
-7 357 -4 0 -11 -3 -14 -7z"/>
<path d="M784 1036 c-10 -26 -9 -341 1 -346 6 -3 11 27 13 78 3 79 4 82 27 82
34 0 55 10 55 26 0 9 -11 13 -36 11 l-37 -2 2 83 c2 54 -1 82 -9 82 -6 0 -13
-6 -16 -14z"/>
<path d="M520 1028 c-82 -10 -85 -11 -75 -28 7 -12 61 -10 168 7 32 5 37 3 37
-14 0 -11 -5 -34 -11 -52 -9 -26 -16 -31 -42 -31 -18 -1 -59 -6 -92 -13 l-59
-13 3 -99 c1 -55 6 -104 11 -109 5 -5 24 -9 42 -8 41 1 180 32 192 43 20 18
-29 21 -94 5 -37 -9 -80 -16 -94 -16 -26 0 -26 1 -26 75 0 89 4 92 112 103
l73 7 9 62 c14 97 6 101 -154 81z"/>
<path d="M1300 980 c0 -5 11 -10 25 -10 14 0 25 5 25 10 0 6 -11 10 -25 10
-14 0 -25 -4 -25 -10z"/>
<path d="M1315 780 c-3 -5 3 -10 14 -10 12 0 21 5 21 10 0 6 -6 10 -14 10 -8
0 -18 -4 -21 -10z"/>
<path d="M868 604 c-3 -3 -66 -11 -139 -17 -106 -10 -134 -15 -134 -27 0 -12
10 -14 44 -12 52 5 61 -5 61 -70 0 -45 11 -65 28 -54 4 2 5 32 2 65 -6 66 -3
71 50 71 34 0 40 -13 40 -96 l0 -64 -89 0 c-84 0 -121 -11 -93 -29 16 -10 314
7 325 18 16 16 -17 24 -71 18 l-47 -5 0 84 c0 74 2 84 18 84 24 0 57 18 57 30
0 11 -43 14 -52 4z"/>
<path d="M1300 440 c0 -5 11 -10 25 -10 14 0 25 5 25 10 0 6 -11 10 -25 10
-14 0 -25 -4 -25 -10z"/>
<path d="M1318 203 c6 -2 18 -2 25 0 6 3 1 5 -13 5 -14 0 -19 -2 -12 -5z"/>
</g>
</svg>
