<?xml version="1.0" standalone="no"?>
<!DOCTYPE svg PUBLIC "-//W3C//DTD SVG 20010904//EN"
 "http://www.w3.org/TR/2001/REC-SVG-20010904/DTD/svg10.dtd">
<svg version="1.0" xmlns="http://www.w3.org/2000/svg"
 width="135.000000pt" height="135.000000pt" viewBox="0 0 135.000000 135.000000"
 preserveAspectRatio="xMidYMid meet">
<metadata>
Created by potrace 1.16, written by Peter Selinger 2001-2019
</metadata>
<g transform="translate(0.000000,135.000000) scale(0.100000,-0.100000)"
fill="#000000" stroke="none">
<path d="M0 675 c0 -443 3 -675 10 -675 6 0 10 16 10 35 l0 35 668 3 667 2
-667 3 -668 2 0 74 c0 68 2 74 23 81 l22 8 -22 4 c-22 4 -23 8 -23 113 l0 109
28 4 27 4 -27 2 -28 1 0 164 c0 163 0 165 23 169 l22 4 -22 2 c-22 1 -23 5
-23 95 l0 95 28 4 27 4 -27 2 -28 1 0 165 c0 103 -4 165 -10 165 -7 0 -10
-232 -10 -675z"/>
<path d="M954 1209 c-4 -7 -9 -42 -11 -78 -4 -88 -6 -91 -53 -91 l-40 0 0 75
c0 60 -3 75 -15 75 -12 0 -15 -16 -17 -72 -4 -172 -3 -260 5 -265 14 -9 29 53
24 105 l-6 52 45 0 44 0 0 -42 c0 -24 3 -79 6 -124 l7 -81 -159 -6 c-169 -6
-194 -10 -194 -34 0 -11 6 -14 23 -9 12 3 88 9 169 12 l147 7 10 -26 c7 -18 7
-36 1 -52 -9 -23 -15 -25 -67 -25 -75 0 -292 -35 -307 -50 -14 -15 -9 -145 7
-179 12 -25 14 -26 102 -24 88 2 278 19 323 29 12 2 22 9 22 16 0 8 -26 9 -92
4 -51 -4 -145 -11 -208 -15 -63 -5 -117 -7 -120 -4 -3 2 -6 37 -8 78 -4 64 -2
74 14 78 32 9 165 26 256 33 58 4 91 11 99 20 13 16 14 34 7 229 -3 72 0 181
5 243 7 78 7 116 0 123 -8 8 -13 7 -19 -2z"/>
<path d="M464 1199 c-12 -19 26 -39 75 -39 48 -1 113 -12 144 -25 25 -11 22
22 -4 35 -11 7 -55 14 -97 17 -43 3 -85 10 -94 14 -11 6 -19 5 -24 -2z"/>
<path d="M655 1103 c-103 -9 -211 -25 -220 -34 -18 -18 9 -28 50 -19 62 14
205 24 205 14 0 -5 -57 -54 -125 -108 -69 -55 -125 -103 -125 -108 0 -21 37
-4 99 47 38 30 73 55 80 55 6 0 31 -16 57 -35 45 -34 74 -44 74 -25 0 5 -12
17 -26 27 -14 10 -37 28 -52 39 l-27 22 53 47 c28 26 52 55 52 66 0 20 -2 20
-95 12z"/>
<path d="M1303 1013 c9 -2 25 -2 35 0 9 3 1 5 -18 5 -19 0 -27 -2 -17 -5z"/>
<path d="M1318 813 c6 -2 18 -2 25 0 6 3 1 5 -13 5 -14 0 -19 -2 -12 -5z"/>
<path d="M1303 473 c9 -2 25 -2 35 0 9 3 1 5 -18 5 -19 0 -27 -2 -17 -5z"/>
<path d="M1310 240 c0 -5 9 -10 20 -10 11 0 20 5 20 10 0 6 -9 10 -20 10 -11
0 -20 -4 -20 -10z"/>
</g>
</svg>
