<?xml version="1.0" standalone="no"?>
<!DOCTYPE svg PUBLIC "-//W3C//DTD SVG 20010904//EN"
 "http://www.w3.org/TR/2001/REC-SVG-20010904/DTD/svg10.dtd">
<svg version="1.0" xmlns="http://www.w3.org/2000/svg"
 width="135.000000pt" height="135.000000pt" viewBox="0 0 135.000000 135.000000"
 preserveAspectRatio="xMidYMid meet">
<metadata>
Created by potrace 1.16, written by Peter Selinger 2001-2019
</metadata>
<g transform="translate(0.000000,135.000000) scale(0.100000,-0.100000)"
fill="#000000" stroke="none">
<path d="M4 675 c-1 -374 1 -665 3 -647 l4 32 664 0 664 0 4 -32 c2 -18 4 273
3 647 0 374 -2 605 -3 513 l-3 -168 -31 0 c-18 0 -28 -4 -24 -10 3 -5 17 -10
31 -10 24 0 24 -1 24 -90 0 -83 -1 -90 -20 -90 -11 0 -20 -4 -20 -10 0 -5 9
-10 20 -10 19 0 20 -7 20 -160 l0 -160 -31 0 c-17 0 -28 -4 -24 -10 3 -5 17
-10 31 -10 24 0 24 0 24 -105 0 -98 -1 -105 -20 -105 -11 0 -20 -4 -20 -10 0
-5 9 -10 20 -10 18 0 20 -7 20 -80 l0 -80 -665 0 -665 0 0 79 c0 75 1 80 22
84 l23 4 -23 8 c-21 7 -22 12 -22 111 l0 104 25 0 c14 0 25 5 25 10 0 6 -11
10 -25 10 l-25 0 0 159 c0 156 0 159 23 166 l22 8 -23 4 c-21 4 -22 9 -22 94
0 88 0 89 25 89 14 0 25 5 25 10 0 6 -11 10 -25 10 l-25 0 -3 168 c-1 92 -3
-139 -3 -513z"/>
<path d="M926 1198 c-2 -7 -9 -94 -15 -193 -6 -99 -14 -214 -16 -256 -4 -60
-2 -79 10 -89 21 -17 23 -8 29 165 3 83 9 203 12 268 5 86 4 117 -5 117 -6 0
-13 -6 -15 -12z"/>
<path d="M510 1189 c-25 -4 -66 -8 -92 -8 -65 -1 -71 -16 -66 -158 6 -152 2
-149 149 -128 109 16 141 27 126 42 -4 3 -58 -1 -120 -9 -61 -9 -113 -15 -115
-13 -1 1 -5 31 -8 66 l-6 64 33 0 c155 2 179 5 179 22 0 14 -12 15 -106 10
l-105 -6 3 37 3 37 70 7 c128 13 178 23 183 36 4 14 -54 15 -128 1z"/>
<path d="M826 1151 c-3 -4 -10 -64 -16 -132 -6 -68 -13 -147 -16 -176 l-5 -51
-59 -7 c-39 -5 -61 -12 -64 -22 -6 -14 2 -15 56 -9 59 6 64 5 73 -16 18 -40
27 -15 31 82 2 52 8 139 14 194 5 54 10 109 10 122 0 24 -14 32 -24 15z"/>
<path d="M605 839 c-49 -5 -127 -12 -173 -16 -108 -10 -107 -28 3 -28 l85 1 0
-36 c0 -51 10 -80 27 -80 12 0 13 10 7 56 -8 68 -2 74 82 74 39 0 66 5 73 13
10 13 5 29 -8 26 -3 -1 -46 -6 -96 -10z"/>
<path d="M550 593 c-95 -8 -120 -15 -120 -29 0 -13 10 -14 53 -10 28 3 75 7
102 8 l50 3 0 -125 c0 -114 2 -125 19 -128 16 -3 18 0 12 24 -4 15 -4 72 0
126 l7 98 108 0 108 0 5 -52 c3 -29 7 -82 9 -118 2 -49 7 -65 17 -65 10 0 15
10 14 28 0 15 -1 67 -2 115 -1 53 -7 95 -14 104 -11 13 -42 17 -173 20 -88 2
-176 3 -195 1z"/>
</g>
</svg>
