<?xml version="1.0" standalone="no"?>
<!DOCTYPE svg PUBLIC "-//W3C//DTD SVG 20010904//EN"
 "http://www.w3.org/TR/2001/REC-SVG-20010904/DTD/svg10.dtd">
<svg version="1.0" xmlns="http://www.w3.org/2000/svg"
 width="135.000000pt" height="135.000000pt" viewBox="0 0 135.000000 135.000000"
 preserveAspectRatio="xMidYMid meet">
<metadata>
Created by potrace 1.16, written by Peter Selinger 2001-2019
</metadata>
<g transform="translate(0.000000,135.000000) scale(0.100000,-0.100000)"
fill="#000000" stroke="none">
<path d="M765 908 l8 -165 -109 -17 c-164 -25 -279 -50 -282 -61 -5 -17 37
-17 111 -1 65 14 251 46 270 46 4 0 7 -21 7 -46 0 -32 4 -44 13 -42 27 10 17
436 -11 446 -12 4 -13 -25 -7 -160z"/>
<path d="M550 998 c-14 -6 -56 -13 -95 -17 -53 -4 -70 -10 -70 -21 0 -24 68
-24 146 0 75 22 90 21 82 -9 -6 -23 -65 -40 -166 -48 l-69 -6 7 -36 c4 -20 13
-51 20 -68 16 -37 35 -41 122 -24 26 5 65 12 86 16 23 4 37 11 37 20 0 18 3
18 -109 -1 -53 -9 -97 -12 -102 -7 -5 5 -11 22 -15 39 l-6 30 79 11 c103 15
131 27 144 60 22 60 -23 90 -91 61z"/>
<path d="M542 583 c2 -10 14 -23 28 -30 l25 -12 -35 -14 c-19 -8 -48 -19 -64
-24 -34 -11 -47 -33 -19 -33 10 0 58 14 106 30 49 17 96 30 105 30 25 -1 -110
-124 -164 -150 -44 -22 -53 -42 -22 -48 9 -2 45 19 81 46 l65 50 53 -25 c49
-24 155 -46 172 -36 17 10 -17 33 -49 33 -33 0 -107 24 -132 43 -10 8 -6 17
17 41 16 17 31 40 33 51 3 18 -3 20 -52 21 -35 1 -72 9 -98 23 -50 25 -54 26
-50 4z"/>
<path d="M1188 3 c6 -2 18 -2 25 0 6 3 1 5 -13 5 -14 0 -19 -2 -12 -5z"/>
</g>
</svg>
