<?xml version="1.0" standalone="no"?>
<!DOCTYPE svg PUBLIC "-//W3C//DTD SVG 20010904//EN"
 "http://www.w3.org/TR/2001/REC-SVG-20010904/DTD/svg10.dtd">
<svg version="1.0" xmlns="http://www.w3.org/2000/svg"
 width="135.000000pt" height="135.000000pt" viewBox="0 0 135.000000 135.000000"
 preserveAspectRatio="xMidYMid meet">
<metadata>
Created by potrace 1.16, written by Peter Selinger 2001-2019
</metadata>
<g transform="translate(0.000000,135.000000) scale(0.100000,-0.100000)"
fill="#000000" stroke="none">
<path d="M4 675 c0 -374 1 -663 3 -643 l4 38 672 3 672 2 -672 3 -673 2 0 75
c0 68 2 75 20 75 11 0 20 5 20 10 0 6 -9 10 -20 10 -19 0 -20 7 -20 109 l0
110 28 4 27 4 -27 2 -28 1 0 164 c0 163 0 165 23 169 l22 4 -22 2 c-22 1 -23
5 -23 95 l0 95 28 4 27 4 -27 2 -28 1 -3 168 c-1 92 -3 -139 -3 -513z"/>
<path d="M675 1269 c-136 -13 -228 -32 -233 -48 -5 -15 -2 -15 173 9 39 5 93
9 121 10 59 0 64 -6 64 -75 0 -50 11 -46 -175 -65 -55 -6 -122 -16 -150 -23
-43 -11 -51 -17 -56 -43 -12 -53 -9 -114 6 -150 l15 -35 81 7 82 7 -7 -54
c-13 -100 -9 -95 -89 -104 -40 -5 -87 -9 -106 -9 -19 -1 -36 -7 -38 -13 -7
-20 42 -26 114 -14 170 27 203 31 254 31 30 0 84 3 121 6 53 5 65 10 61 21 -5
13 -27 14 -137 8 -72 -3 -138 -8 -146 -11 -13 -3 -14 6 -6 71 l10 74 55 6 c87
9 124 19 129 34 5 14 -24 13 -193 -9 -38 -5 -93 -11 -121 -15 l-51 -5 -6 36
c-4 20 -4 56 0 80 5 41 7 43 52 54 25 6 106 17 180 25 73 7 138 18 143 23 6 6
9 42 6 82 -3 56 -8 75 -23 86 -10 8 -24 13 -29 13 -6 -1 -52 -6 -101 -10z"/>
<path d="M1303 1013 c9 -2 25 -2 35 0 9 3 1 5 -18 5 -19 0 -27 -2 -17 -5z"/>
<path d="M1318 813 c6 -2 18 -2 25 0 6 3 1 5 -13 5 -14 0 -19 -2 -12 -5z"/>
<path d="M490 585 c-17 -21 -9 -217 10 -240 10 -13 25 -15 59 -12 25 3 108 10
184 16 141 12 187 22 187 42 0 8 -14 9 -47 4 -27 -4 -97 -11 -158 -16 -60 -5
-131 -11 -157 -15 l-46 -6 -7 57 c-4 31 -5 84 -2 116 5 62 -2 79 -23 54z"/>
<path d="M1303 473 c9 -2 25 -2 35 0 9 3 1 5 -18 5 -19 0 -27 -2 -17 -5z"/>
<path d="M1310 240 c0 -5 9 -10 20 -10 11 0 20 5 20 10 0 6 -9 10 -20 10 -11
0 -20 -4 -20 -10z"/>
</g>
</svg>
