<?xml version="1.0" standalone="no"?>
<!DOCTYPE svg PUBLIC "-//W3C//DTD SVG 20010904//EN"
 "http://www.w3.org/TR/2001/REC-SVG-20010904/DTD/svg10.dtd">
<svg version="1.0" xmlns="http://www.w3.org/2000/svg"
 width="135.000000pt" height="135.000000pt" viewBox="0 0 135.000000 135.000000"
 preserveAspectRatio="xMidYMid meet">
<metadata>
Created by potrace 1.16, written by Peter Selinger 2001-2019
</metadata>
<g transform="translate(0.000000,135.000000) scale(0.100000,-0.100000)"
fill="#000000" stroke="none">
<path d="M524 1018 c-46 -41 -84 -119 -84 -175 0 -83 82 -133 192 -118 98 14
148 81 134 178 -9 57 -45 103 -101 128 -61 28 -98 24 -141 -13z m124 -13 c69
-28 106 -107 83 -177 -16 -49 -55 -68 -140 -68 -64 0 -75 3 -98 26 -22 22 -25
32 -20 70 7 63 54 136 97 151 19 7 36 12 37 12 2 1 20 -6 41 -14z"/>
<path d="M720 655 c-91 -8 -197 -18 -237 -24 -40 -6 -92 -8 -117 -5 -38 6 -46
4 -46 -9 0 -26 76 -31 207 -13 65 9 174 19 243 22 69 4 135 11 148 15 28 11
20 30 -11 28 -12 -1 -96 -7 -187 -14z"/>
<path d="M733 523 c-46 -130 -80 -193 -104 -193 -9 0 -39 19 -65 43 l-48 43
17 42 c9 24 17 49 17 57 0 25 -27 17 -34 -10 -3 -13 -33 -71 -66 -129 -33 -57
-60 -107 -60 -110 0 -3 7 -6 15 -6 8 0 31 29 52 63 l37 64 52 -42 c29 -24 58
-45 65 -47 12 -4 12 -8 0 -22 -11 -13 -12 -19 -2 -29 14 -14 26 -1 73 80 l30
53 41 -35 c22 -19 45 -35 51 -35 6 0 24 -7 40 -15 16 -9 31 -13 34 -11 12 13
-11 35 -60 59 -30 15 -63 36 -73 47 -18 20 -18 22 2 79 12 33 19 62 16 65 -11
11 -24 6 -30 -11z"/>
<path d="M640 10 l-245 -6 344 -2 c189 -1 342 0 340 2 -10 9 -213 12 -439 6z"/>
</g>
</svg>
