<?xml version="1.0" standalone="no"?>
<!DOCTYPE svg PUBLIC "-//W3C//DTD SVG 20010904//EN"
 "http://www.w3.org/TR/2001/REC-SVG-20010904/DTD/svg10.dtd">
<svg version="1.0" xmlns="http://www.w3.org/2000/svg"
 width="135.000000pt" height="135.000000pt" viewBox="0 0 135.000000 135.000000"
 preserveAspectRatio="xMidYMid meet">
<metadata>
Created by potrace 1.16, written by Peter Selinger 2001-2019
</metadata>
<g transform="translate(0.000000,135.000000) scale(0.100000,-0.100000)"
fill="#000000" stroke="none">
<path d="M4 675 c-1 -374 1 -670 3 -657 l4 22 670 0 c439 0 669 3 669 10 0 7
-230 10 -670 10 l-670 0 0 75 c0 68 2 75 20 75 11 0 20 5 20 10 0 6 -9 10 -20
10 -19 0 -20 7 -20 110 l0 110 25 0 c14 0 25 5 25 10 0 6 -11 10 -25 10 l-25
0 0 155 c0 148 1 155 20 155 11 0 20 5 20 10 0 6 -9 10 -20 10 -19 0 -20 7
-20 90 0 89 0 90 25 90 14 0 25 5 25 10 0 6 -11 10 -25 10 l-25 0 -3 178 c-1
97 -3 -129 -3 -503z"/>
<path d="M806 1056 c-4 -70 -3 -123 4 -140 5 -15 10 -54 10 -86 0 -55 9 -78
28 -66 4 2 4 42 -1 88 -5 46 -8 136 -7 201 2 96 -1 117 -13 117 -11 0 -16 -24
-21 -114z"/>
<path d="M481 1003 c-80 -119 -106 -173 -84 -173 5 0 33 36 61 79 l52 80 52
-55 c66 -70 115 -101 131 -84 9 10 9 14 -3 18 -23 8 -150 133 -150 148 0 6 11
32 25 55 28 50 30 59 13 59 -7 0 -51 -57 -97 -127z"/>
<path d="M1295 990 c3 -5 17 -10 31 -10 13 0 24 5 24 10 0 6 -14 10 -31 10
-17 0 -28 -4 -24 -10z"/>
<path d="M1310 790 c0 -5 9 -10 20 -10 11 0 20 5 20 10 0 6 -9 10 -20 10 -11
0 -20 -4 -20 -10z"/>
<path d="M521 736 c-51 -11 -73 -27 -53 -40 4 -2 39 2 76 11 78 17 92 11 81
-36 -6 -28 -10 -31 -45 -31 -22 0 -62 -5 -89 -11 l-50 -10 6 -67 c8 -93 16
-106 61 -98 21 3 58 6 85 6 41 0 47 3 47 21 0 17 -5 20 -27 15 -16 -3 -50 -6
-78 -8 l-50 -3 -3 57 -3 56 68 7 c88 8 91 10 103 40 15 39 12 70 -8 88 -21 19
-43 19 -121 3z"/>
<path d="M686 724 c-10 -26 -7 -211 4 -239 8 -22 14 -25 33 -19 12 5 46 8 75
9 71 0 76 10 70 142 -5 106 -15 136 -37 110 -8 -11 -9 -22 -1 -43 17 -44 7
-54 -54 -54 -50 0 -56 2 -62 24 -3 13 -5 32 -4 42 5 44 -11 62 -24 28z m154
-169 l0 -45 -37 0 c-21 0 -48 -3 -60 -6 -24 -7 -31 10 -25 64 l4 32 59 0 59 0
0 -45z"/>
<path d="M1295 460 c-4 -6 7 -10 24 -10 17 0 31 5 31 10 0 6 -11 10 -24 10
-14 0 -28 -4 -31 -10z"/>
<path d="M1310 220 c0 -5 9 -10 20 -10 11 0 20 5 20 10 0 6 -9 10 -20 10 -11
0 -20 -4 -20 -10z"/>
</g>
</svg>
