<?xml version="1.0" standalone="no"?>
<!DOCTYPE svg PUBLIC "-//W3C//DTD SVG 20010904//EN"
 "http://www.w3.org/TR/2001/REC-SVG-20010904/DTD/svg10.dtd">
<svg version="1.0" xmlns="http://www.w3.org/2000/svg"
 width="135.000000pt" height="135.000000pt" viewBox="0 0 135.000000 135.000000"
 preserveAspectRatio="xMidYMid meet">
<metadata>
Created by potrace 1.16, written by Peter Selinger 2001-2019
</metadata>
<g transform="translate(0.000000,135.000000) scale(0.100000,-0.100000)"
fill="#000000" stroke="none">
<path d="M3 675 c-1 -374 1 -674 4 -667 7 18 1329 18 1336 0 3 -7 5 293 4 667
-1 374 -3 598 -4 498 l-3 -183 -25 0 c-14 0 -25 -4 -25 -10 0 -5 11 -10 25
-10 25 0 25 -1 25 -89 0 -83 -1 -89 -22 -96 l-23 -8 23 -4 c22 -4 22 -6 22
-164 l0 -159 -25 0 c-14 0 -25 -4 -25 -10 0 -5 11 -10 25 -10 l25 0 0 -109 c0
-106 -1 -110 -22 -114 l-23 -4 23 -2 c21 -1 22 -5 22 -81 l0 -80 -665 0 -665
0 0 79 c0 75 1 80 22 84 l23 4 -22 2 c-22 1 -23 4 -23 111 l0 110 25 0 c14 0
25 5 25 10 0 6 -11 10 -25 10 l-25 0 0 160 c0 153 1 160 20 160 11 0 20 5 20
10 0 6 -9 10 -20 10 -19 0 -20 7 -20 90 0 89 0 90 25 90 14 0 25 5 25 10 0 6
-11 10 -25 10 l-25 0 -3 183 c-1 100 -3 -124 -4 -498z"/>
<path d="M811 908 c1 -181 7 -223 29 -223 8 0 14 7 12 15 -2 8 -6 45 -9 82 -6
67 -6 68 19 68 48 0 88 12 88 27 0 12 -10 13 -53 8 l-53 -7 -2 88 c-1 48 -5
91 -8 95 -18 30 -24 -7 -23 -153z"/>
<path d="M501 1031 c-14 -26 -14 -164 0 -178 6 -6 30 -8 55 -5 l44 5 0 -65 0
-65 -57 -9 c-83 -13 -67 -30 25 -26 150 5 202 12 202 29 0 14 -11 15 -70 10
l-70 -6 0 69 0 69 47 3 c29 2 48 8 51 17 4 12 -13 13 -103 8 l-108 -7 6 80 c6
80 -3 108 -22 71z"/>
<path d="M621 591 c-11 -7 -12 -24 -7 -76 10 -94 19 -109 64 -101 21 3 74 6
118 6 65 0 83 3 88 16 5 13 -9 15 -111 13 -65 -1 -118 3 -120 7 -2 5 -6 39
-10 76 -6 54 -11 66 -22 59z"/>
</g>
</svg>
