<?xml version="1.0" standalone="no"?>
<!DOCTYPE svg PUBLIC "-//W3C//DTD SVG 20010904//EN"
 "http://www.w3.org/TR/2001/REC-SVG-20010904/DTD/svg10.dtd">
<svg version="1.0" xmlns="http://www.w3.org/2000/svg"
 width="135.000000pt" height="135.000000pt" viewBox="0 0 135.000000 135.000000"
 preserveAspectRatio="xMidYMid meet">
<metadata>
Created by potrace 1.16, written by Peter Selinger 2001-2019
</metadata>
<g transform="translate(0.000000,135.000000) scale(0.100000,-0.100000)"
fill="#000000" stroke="none">
<path d="M855 1058 c-2 -7 -6 -33 -7 -58 l-3 -45 -77 -3 -77 -4 -3 54 c-3 59
-22 72 -26 18 -6 -80 -6 -80 -75 -80 l-62 0 3 56 c3 44 1 55 -10 52 -16 -5
-26 -73 -27 -183 -1 -94 7 -107 53 -93 17 5 93 12 169 15 75 3 144 11 152 17
18 14 25 258 7 264 -7 2 -14 -2 -17 -10z m-11 -154 c3 -9 6 -29 6 -45 0 -34
-20 -42 -101 -37 -53 3 -54 3 -57 36 -6 57 0 62 77 62 54 0 70 -4 75 -16z
m-186 -41 l3 -41 -43 -7 c-24 -3 -55 -8 -70 -11 -28 -6 -28 -5 -28 51 l0 56
68 -3 67 -3 3 -42z"/>
<path d="M675 715 c-126 -7 -243 -18 -258 -24 -38 -15 -25 -35 17 -27 17 4
147 13 288 21 142 7 262 16 268 20 20 13 -2 25 -43 24 -23 -1 -145 -7 -272
-14z"/>
<path d="M617 620 c-90 -7 -108 -13 -91 -30 7 -7 56 -7 151 1 78 7 148 9 157
6 21 -8 21 -43 -1 -51 -9 -4 -73 -9 -142 -12 -69 -3 -143 -10 -165 -16 l-39
-10 6 -85 c3 -55 10 -90 20 -100 12 -12 41 -13 181 -7 108 4 172 11 184 20 9
7 15 14 12 17 -3 2 -84 1 -180 -4 -96 -4 -176 -6 -178 -4 -2 1 -6 35 -9 74 -6
71 -6 71 19 71 59 0 295 23 316 31 17 7 22 16 22 47 0 21 -5 43 -12 50 -13 13
-104 14 -251 2z"/>
<path d="M478 3 c23 -2 61 -2 85 0 23 2 4 4 -43 4 -47 0 -66 -2 -42 -4z"/>
</g>
</svg>
