<?xml version="1.0" standalone="no"?>
<!DOCTYPE svg PUBLIC "-//W3C//DTD SVG 20010904//EN"
 "http://www.w3.org/TR/2001/REC-SVG-20010904/DTD/svg10.dtd">
<svg version="1.0" xmlns="http://www.w3.org/2000/svg"
 width="135.000000pt" height="135.000000pt" viewBox="0 0 135.000000 135.000000"
 preserveAspectRatio="xMidYMid meet">
<metadata>
Created by potrace 1.16, written by Peter Selinger 2001-2019
</metadata>
<g transform="translate(0.000000,135.000000) scale(0.100000,-0.100000)"
fill="#000000" stroke="none">
<path d="M906 1085 c-10 -26 -7 -353 3 -360 5 -3 12 -2 14 2 3 5 6 89 8 187 3
127 1 180 -7 183 -6 2 -14 -3 -18 -12z"/>
<path d="M817 1054 c-4 -4 -7 -31 -7 -61 0 -52 -1 -53 -29 -53 -32 0 -51 -18
-32 -30 7 -4 23 -5 37 -2 25 5 25 6 28 -73 1 -19 6 -30 16 -30 13 0 15 19 12
120 -3 113 -9 145 -25 129z"/>
<path d="M665 1013 c-22 -2 -88 -10 -147 -20 l-108 -17 0 -30 c1 -60 19 -159
32 -172 11 -11 23 -11 68 1 30 9 88 17 128 20 79 5 96 10 86 27 -4 7 -28 8
-65 4 l-59 -6 0 74 c0 82 3 86 70 86 20 0 43 6 49 14 15 17 1 22 -54 19z m-97
-120 l3 -71 -52 -12 c-57 -14 -68 -7 -69 40 0 14 -3 41 -6 61 l-6 36 48 11
c78 16 79 16 82 -65z"/>
<path d="M879 643 c0 -4 0 -32 1 -61 1 -35 -3 -53 -12 -56 -7 -3 -61 -7 -120
-11 l-107 -6 -3 63 c-5 110 -23 71 -26 -57 -2 -141 7 -171 53 -168 153 11 216
20 227 31 18 18 18 263 1 269 -7 3 -13 1 -14 -4z m-4 -195 c-4 -24 -9 -46 -12
-50 -2 -5 -35 -8 -72 -8 -37 0 -82 -5 -100 -11 -18 -6 -35 -9 -38 -5 -4 3 -8
30 -11 59 l-4 52 122 3 122 3 -7 -43z"/>
</g>
</svg>
