<?xml version="1.0" standalone="no"?>
<!DOCTYPE svg PUBLIC "-//W3C//DTD SVG 20010904//EN"
 "http://www.w3.org/TR/2001/REC-SVG-20010904/DTD/svg10.dtd">
<svg version="1.0" xmlns="http://www.w3.org/2000/svg"
 width="135.000000pt" height="135.000000pt" viewBox="0 0 135.000000 135.000000"
 preserveAspectRatio="xMidYMid meet">
<metadata>
Created by potrace 1.16, written by Peter Selinger 2001-2019
</metadata>
<g transform="translate(0.000000,135.000000) scale(0.100000,-0.100000)"
fill="#000000" stroke="none">
<path d="M1340 1175 l0 -175 -25 0 c-14 0 -25 -4 -25 -10 0 -5 11 -10 25 -10
25 0 25 -1 25 -90 0 -83 -1 -90 -20 -90 -11 0 -20 -4 -20 -10 0 -5 9 -10 20
-10 19 0 20 -7 20 -155 l0 -155 -25 0 c-14 0 -25 -4 -25 -10 0 -5 11 -10 25
-10 l25 0 0 -110 c0 -103 -1 -110 -20 -110 -11 0 -20 -4 -20 -10 0 -5 9 -10
20 -10 18 0 20 -7 20 -75 l0 -75 -670 0 c-440 0 -670 -3 -670 -10 0 -7 230
-10 669 -10 l670 0 4 -22 c2 -13 5 282 6 655 0 372 -1 677 -4 677 -3 0 -5 -79
-5 -175z"/>
<path d="M958 970 c-1 -82 -2 -165 -2 -182 -1 -23 4 -33 14 -33 13 0 16 28 18
183 3 161 2 182 -12 182 -14 0 -16 -20 -18 -150z"/>
<path d="M645 1099 c-4 -6 -4 -34 -1 -63 l7 -53 -62 -7 c-109 -11 -103 -14
-96 54 3 33 1 62 -3 65 -15 9 -30 -31 -30 -79 l0 -46 -58 0 -57 0 0 60 c0 33
-4 61 -10 62 -26 7 -38 -284 -13 -307 16 -15 326 -1 342 15 16 16 23 163 12
243 -9 65 -17 79 -31 56z m0 -214 l0 -60 -55 -7 c-92 -13 -100 -8 -100 62 l0
59 53 4 c106 8 102 10 102 -58z m-185 16 c0 -22 -4 -51 -10 -65 -8 -23 -15
-26 -58 -26 l-49 0 -6 57 c-3 31 -4 60 -1 65 3 4 32 8 65 8 l59 0 0 -39z"/>
<path d="M837 1053 c-4 -3 -7 -19 -7 -34 0 -28 -1 -28 -44 -23 -29 4 -46 2
-51 -6 -10 -17 13 -30 53 -30 29 0 32 -3 32 -29 0 -28 -2 -30 -47 -33 -70 -5
-69 -28 2 -28 55 0 56 0 53 -27 -2 -19 2 -28 12 -28 12 0 15 22 16 123 2 112
-1 133 -19 115z"/>
<path d="M0 990 c0 -5 13 -10 30 -10 17 0 30 5 30 10 0 6 -13 10 -30 10 -17 0
-30 -4 -30 -10z"/>
<path d="M0 790 c0 -5 11 -10 25 -10 14 0 25 5 25 10 0 6 -11 10 -25 10 -14 0
-25 -4 -25 -10z"/>
<path d="M505 669 c-4 -6 -5 -13 -2 -15 2 -3 90 -6 193 -7 l189 -2 3 -52 3
-53 -178 -2 c-141 -2 -178 -6 -178 -16 0 -11 35 -14 178 -12 l177 1 -6 -43
c-4 -24 -11 -53 -15 -66 -21 -56 3 -74 25 -19 15 35 29 124 28 175 -2 129 10
122 -222 122 -123 0 -191 -4 -195 -11z"/>
<path d="M0 460 c0 -5 13 -10 30 -10 17 0 30 5 30 10 0 6 -13 10 -30 10 -17 0
-30 -4 -30 -10z"/>
<path d="M0 220 c0 -5 11 -10 25 -10 14 0 25 5 25 10 0 6 -11 10 -25 10 -14 0
-25 -4 -25 -10z"/>
</g>
</svg>
