<?xml version="1.0" standalone="no"?>
<!DOCTYPE svg PUBLIC "-//W3C//DTD SVG 20010904//EN"
 "http://www.w3.org/TR/2001/REC-SVG-20010904/DTD/svg10.dtd">
<svg version="1.0" xmlns="http://www.w3.org/2000/svg"
 width="135.000000pt" height="135.000000pt" viewBox="0 0 135.000000 135.000000"
 preserveAspectRatio="xMidYMid meet">
<metadata>
Created by potrace 1.16, written by Peter Selinger 2001-2019
</metadata>
<g transform="translate(0.000000,135.000000) scale(0.100000,-0.100000)"
fill="#000000" stroke="none">
<path d="M807 1044 c-4 -4 -7 -42 -7 -84 l0 -77 -57 -6 c-32 -4 -91 -9 -130
-13 l-73 -7 0 61 c0 68 -6 92 -24 92 -13 0 -12 -69 3 -240 l6 -75 58 3 57 2 0
-55 0 -54 -132 -3 c-109 -2 -133 -6 -136 -18 -2 -13 19 -15 150 -13 214 4 450
23 445 37 -4 13 -83 14 -211 4 l-88 -7 6 51 c4 29 9 55 12 60 3 4 31 8 63 8
85 0 86 4 84 178 -1 132 -8 174 -26 156z m-1 -210 c-3 -9 -6 -33 -6 -54 l0
-37 -112 -8 c-61 -4 -117 -9 -125 -12 -10 -4 -13 8 -13 50 l0 55 88 7 c48 3
96 7 107 9 53 8 67 6 61 -10z"/>
<path d="M559 469 c-61 -7 -83 -15 -74 -30 4 -5 36 -6 76 -3 l69 7 -1 -54 c0
-30 -4 -78 -8 -106 -4 -29 -4 -58 0 -64 15 -25 27 5 33 83 11 131 13 136 51
144 18 3 47 3 64 -1 l31 -7 0 -71 c0 -83 8 -119 24 -114 16 5 12 193 -5 213
-10 12 -32 15 -108 12 -53 -2 -121 -6 -152 -9z"/>
</g>
</svg>
