<?xml version="1.0" standalone="no"?>
<!DOCTYPE svg PUBLIC "-//W3C//DTD SVG 20010904//EN"
 "http://www.w3.org/TR/2001/REC-SVG-20010904/DTD/svg10.dtd">
<svg version="1.0" xmlns="http://www.w3.org/2000/svg"
 width="135.000000pt" height="135.000000pt" viewBox="0 0 135.000000 135.000000"
 preserveAspectRatio="xMidYMid meet">
<metadata>
Created by potrace 1.16, written by Peter Selinger 2001-2019
</metadata>
<g transform="translate(0.000000,135.000000) scale(0.100000,-0.100000)"
fill="#000000" stroke="none">
<path d="M815 1018 c4 -40 11 -130 14 -201 8 -174 26 -167 26 11 0 168 -10
248 -32 256 -14 6 -15 -2 -8 -66z"/>
<path d="M717 1023 c-4 -3 -4 -23 -1 -44 6 -37 5 -38 -32 -48 -22 -6 -47 -11
-56 -11 -10 0 -18 -7 -18 -15 0 -17 30 -19 78 -6 29 9 32 8 32 -13 0 -18 -9
-25 -47 -37 -71 -21 -54 -44 19 -26 26 7 27 5 30 -35 2 -29 8 -43 17 -43 12 0
14 22 12 120 -3 150 -10 183 -34 158z"/>
<path d="M430 979 c-52 -11 -98 -23 -102 -28 -10 -9 13 -222 25 -238 10 -14
152 -17 197 -4 33 9 48 66 49 182 1 121 -2 123 -169 88z m137 -106 c-3 -54 -8
-105 -12 -114 -8 -20 -47 -29 -126 -29 l-59 0 -1 48 c0 26 -4 71 -8 99 l-7 52
70 15 c39 9 80 17 91 19 60 13 58 16 52 -90z"/>
<path d="M612 615 c-57 -7 -108 -17 -113 -22 -5 -5 -11 -50 -13 -100 -4 -91 4
-157 22 -175 5 -5 54 -1 125 12 63 11 133 20 155 20 36 0 74 22 55 33 -10 5
-137 -8 -236 -26 -42 -7 -79 -11 -82 -9 -3 3 -5 32 -5 64 l0 58 134 0 c146 0
199 7 193 24 -3 8 -52 10 -165 7 l-162 -3 0 35 c0 41 -4 39 178 58 86 9 122
17 122 26 0 16 -63 15 -208 -2z"/>
<path d="M178 3 c12 -2 30 -2 40 0 9 3 -1 5 -23 4 -22 0 -30 -2 -17 -4z"/>
</g>
</svg>
