<?xml version="1.0" standalone="no"?>
<!DOCTYPE svg PUBLIC "-//W3C//DTD SVG 20010904//EN"
 "http://www.w3.org/TR/2001/REC-SVG-20010904/DTD/svg10.dtd">
<svg version="1.0" xmlns="http://www.w3.org/2000/svg"
 width="135.000000pt" height="135.000000pt" viewBox="0 0 135.000000 135.000000"
 preserveAspectRatio="xMidYMid meet">
<metadata>
Created by potrace 1.16, written by Peter Selinger 2001-2019
</metadata>
<g transform="translate(0.000000,135.000000) scale(0.100000,-0.100000)"
fill="#000000" stroke="none">
<path d="M849 1048 c-1 -7 -1 -34 1 -59 2 -46 1 -47 -35 -53 -20 -4 -38 -6
-39 -4 -2 2 -7 25 -12 51 -5 27 -13 47 -19 45 -10 -3 -8 -294 2 -311 12 -19
23 9 23 59 l0 54 40 0 40 0 0 -64 c0 -71 6 -96 24 -96 8 0 10 51 8 182 -3 191
-5 208 -22 208 -5 0 -11 -6 -11 -12z m-1 -160 c-2 -19 -10 -24 -40 -26 -32 -3
-38 0 -38 17 0 19 10 23 68 30 8 0 12 -7 10 -21z"/>
<path d="M502 955 c-38 -32 -58 -103 -42 -151 37 -111 205 -92 225 25 7 45
-20 109 -57 135 -34 24 -91 20 -126 -9z m104 -13 c24 -17 44 -59 44 -95 0 -73
-91 -116 -140 -67 -34 34 -19 147 22 163 20 8 62 8 74 -1z"/>
<path d="M820 571 l0 -39 -67 -4 c-38 -2 -83 -2 -100 0 -30 3 -33 6 -33 38 0
25 -4 34 -16 34 -15 0 -16 -11 -11 -96 3 -53 10 -101 15 -106 5 -5 60 -7 122
-6 l114 3 8 30 c13 45 -1 185 -18 185 -10 0 -14 -13 -14 -39z m0 -111 l0 -40
-94 0 -94 0 -4 35 -4 34 56 4 c30 2 74 4 98 5 l42 2 0 -40z"/>
</g>
</svg>
