<?xml version="1.0" standalone="no"?>
<!DOCTYPE svg PUBLIC "-//W3C//DTD SVG 20010904//EN"
 "http://www.w3.org/TR/2001/REC-SVG-20010904/DTD/svg10.dtd">
<svg version="1.0" xmlns="http://www.w3.org/2000/svg"
 width="135.000000pt" height="135.000000pt" viewBox="0 0 135.000000 135.000000"
 preserveAspectRatio="xMidYMid meet">
<metadata>
Created by potrace 1.16, written by Peter Selinger 2001-2019
</metadata>
<g transform="translate(0.000000,135.000000) scale(0.100000,-0.100000)"
fill="#000000" stroke="none">
<path d="M3 675 c0 -374 1 -672 4 -663 4 17 44 18 668 18 624 0 664 -1 668
-18 3 -9 4 289 4 663 -1 374 -3 598 -4 498 l-3 -183 -31 0 c-18 0 -28 -4 -24
-10 3 -5 17 -10 31 -10 24 0 24 -1 24 -90 0 -83 -1 -90 -20 -90 -11 0 -20 -4
-20 -10 0 -5 9 -10 20 -10 19 0 20 -7 20 -160 l0 -160 -31 0 c-17 0 -28 -4
-24 -10 3 -6 17 -10 31 -10 24 0 24 0 24 -105 0 -98 -1 -105 -20 -105 -11 0
-20 -4 -20 -10 0 -5 9 -10 20 -10 18 0 20 -7 20 -75 l0 -75 -665 0 -665 0 0
74 c0 69 2 75 22 79 l23 4 -22 8 c-22 7 -23 12 -23 111 l0 104 25 0 c14 0 25
5 25 10 0 6 -11 10 -25 10 l-25 0 0 159 c0 156 0 159 23 166 l22 8 -22 4 c-22
4 -23 9 -23 94 0 88 0 89 25 89 14 0 25 5 25 10 0 6 -11 10 -25 10 l-25 0 -3
183 c-1 100 -3 -124 -4 -498z"/>
<path d="M530 1066 c-19 -7 -70 -21 -112 -31 -49 -12 -78 -24 -78 -32 0 -18
22 -16 128 12 51 14 95 25 98 25 10 0 3 -87 -9 -110 -12 -23 -19 -25 -107 -30
l-95 -5 -3 -50 c-5 -73 7 -134 29 -156 18 -18 28 -19 107 -13 91 7 114 16 95
35 -9 9 -31 9 -89 0 -95 -16 -102 -11 -106 79 l-3 65 88 10 c55 7 93 17 103
27 22 22 32 151 14 173 -15 18 -14 18 -60 1z"/>
<path d="M873 1058 c-11 -14 -33 -238 -33 -331 0 -43 3 -58 13 -55 8 3 14 39
19 104 4 54 11 138 16 187 8 89 4 119 -15 95z"/>
<path d="M756 999 c-3 -8 -7 -32 -8 -54 l-3 -40 -50 -5 c-36 -4 -50 -9 -50
-20 0 -12 11 -14 48 -12 42 3 47 1 47 -17 0 -18 -6 -21 -39 -21 -22 0 -44 -6
-51 -15 -14 -17 -10 -18 52 -15 36 1 37 0 40 -37 2 -21 8 -38 13 -38 14 0 29
265 16 278 -7 7 -12 6 -15 -4z"/>
<path d="M738 563 c-22 -51 -80 -133 -94 -133 -8 0 -31 15 -51 33 l-36 34 18
31 c11 17 16 34 12 38 -11 11 -37 -17 -64 -70 -14 -28 -36 -65 -49 -83 -27
-36 -30 -53 -10 -53 8 0 29 22 46 49 l32 49 42 -31 c24 -18 42 -39 42 -47 -2
-31 24 -13 65 45 23 33 43 61 45 63 1 2 15 -9 30 -24 43 -40 111 -84 128 -84
27 0 17 19 -23 45 -22 13 -56 39 -76 56 -32 28 -36 37 -30 65 7 42 -11 54 -27
17z"/>
</g>
</svg>
