<?xml version="1.0" standalone="no"?>
<!DOCTYPE svg PUBLIC "-//W3C//DTD SVG 20010904//EN"
 "http://www.w3.org/TR/2001/REC-SVG-20010904/DTD/svg10.dtd">
<svg version="1.0" xmlns="http://www.w3.org/2000/svg"
 width="135.000000pt" height="135.000000pt" viewBox="0 0 135.000000 135.000000"
 preserveAspectRatio="xMidYMid meet">
<metadata>
Created by potrace 1.16, written by Peter Selinger 2001-2019
</metadata>
<g transform="translate(0.000000,135.000000) scale(0.100000,-0.100000)"
fill="#000000" stroke="none">
<path d="M860 1013 l0 -78 -113 -3 c-61 -2 -114 -5 -116 -7 -23 -23 128 -35
195 -16 l32 9 4 -64 c4 -65 12 -85 27 -68 14 15 -2 297 -16 302 -10 3 -13 -16
-13 -75z"/>
<path d="M565 1030 c-44 -10 -103 -19 -132 -19 l-52 -1 5 -72 c9 -141 13 -178
18 -187 4 -6 19 -6 39 0 18 5 70 12 117 16 64 6 85 12 85 22 0 12 -13 14 -60
12 -33 -1 -80 -6 -105 -11 -25 -5 -46 -7 -47 -6 -1 1 -5 46 -9 99 l-7 97 34 0
c37 0 206 34 215 43 7 7 -4 27 -14 26 -4 -1 -43 -9 -87 -19z"/>
<path d="M790 698 c-35 -5 -65 -10 -66 -11 -5 -6 23 -258 30 -264 4 -4 47 -8
94 -8 71 0 87 3 87 15 0 12 -14 15 -70 15 -38 0 -76 4 -82 8 -8 5 -13 29 -13
56 l0 48 59 12 c55 11 92 33 74 44 -5 3 -33 -1 -63 -9 -77 -20 -80 -19 -80 20
0 34 1 35 48 42 59 9 92 21 92 34 0 11 -19 11 -110 -2z"/>
<path d="M530 663 c-36 -8 -69 -19 -74 -24 -19 -18 25 -20 93 -5 92 21 91 21
91 -19 0 -42 -22 -55 -110 -63 -55 -5 -76 -17 -61 -37 5 -5 11 -43 13 -83 4
-78 15 -96 52 -82 12 4 42 10 69 14 46 7 61 21 32 32 -8 3 -36 1 -62 -4 -58
-13 -63 -8 -63 71 0 56 0 57 29 57 36 0 91 18 114 38 11 10 17 30 17 57 0 69
-20 76 -140 48z"/>
</g>
</svg>
