<?xml version="1.0" standalone="no"?>
<!DOCTYPE svg PUBLIC "-//W3C//DTD SVG 20010904//EN"
 "http://www.w3.org/TR/2001/REC-SVG-20010904/DTD/svg10.dtd">
<svg version="1.0" xmlns="http://www.w3.org/2000/svg"
 width="135.000000pt" height="135.000000pt" viewBox="0 0 135.000000 135.000000"
 preserveAspectRatio="xMidYMid meet">
<metadata>
Created by potrace 1.16, written by Peter Selinger 2001-2019
</metadata>
<g transform="translate(0.000000,135.000000) scale(0.100000,-0.100000)"
fill="#000000" stroke="none">
<path d="M20 720 c0 -413 -3 -630 -10 -630 -5 0 -10 -7 -10 -15 0 -13 82 -15
675 -15 593 0 675 2 675 15 0 13 -79 15 -650 15 l-650 0 0 630 c0 553 -2 630
-15 630 -13 0 -15 -77 -15 -630z"/>
<path d="M750 1183 c-239 -24 -331 -38 -328 -48 2 -5 26 -10 53 -10 83 1 409
37 420 46 22 21 -18 25 -145 12z"/>
<path d="M756 1123 c-9 -24 -5 -222 4 -228 18 -11 25 25 25 132 0 78 -4 113
-11 113 -7 0 -15 -8 -18 -17z"/>
<path d="M566 1112 c-2 -4 -2 -57 2 -117 6 -87 10 -110 22 -110 12 0 14 15 10
85 -2 47 -4 100 -4 118 0 30 -17 44 -30 24z"/>
<path d="M675 873 c-11 -2 -67 -7 -124 -11 -75 -5 -106 -11 -109 -21 -4 -11
14 -13 104 -7 60 3 171 9 247 12 106 5 137 10 137 20 0 11 -24 14 -117 13 -65
-1 -127 -3 -138 -6z"/>
<path d="M653 758 c-4 -7 -7 -61 -5 -119 2 -77 -1 -109 -10 -116 -18 -15 -110
-33 -168 -33 -27 0 -52 -5 -56 -11 -18 -29 46 -30 181 -4 67 13 245 27 385 30
49 1 65 5 65 16 0 16 -83 18 -257 4 l-108 -8 0 121 c0 114 -8 149 -27 120z"/>
</g>
</svg>
