<?xml version="1.0" standalone="no"?>
<!DOCTYPE svg PUBLIC "-//W3C//DTD SVG 20010904//EN"
 "http://www.w3.org/TR/2001/REC-SVG-20010904/DTD/svg10.dtd">
<svg version="1.0" xmlns="http://www.w3.org/2000/svg"
 width="135.000000pt" height="135.000000pt" viewBox="0 0 135.000000 135.000000"
 preserveAspectRatio="xMidYMid meet">
<metadata>
Created by potrace 1.16, written by Peter Selinger 2001-2019
</metadata>
<g transform="translate(0.000000,135.000000) scale(0.100000,-0.100000)"
fill="#000000" stroke="none">
<path d="M540 1068 c0 -11 39 -30 104 -52 10 -4 17 -8 15 -11 -2 -2 -47 -11
-99 -20 -52 -9 -99 -20 -103 -25 -20 -18 19 -20 117 -5 57 9 119 15 137 13
l32 -3 -89 -76 c-49 -42 -115 -93 -148 -114 -38 -24 -55 -40 -48 -47 13 -13
74 19 144 75 l55 45 44 -13 c178 -53 169 -51 169 -31 0 13 -59 37 -130 51 -19
4 -39 10 -43 12 -5 3 17 31 48 64 31 32 53 64 50 70 -4 6 -24 9 -45 8 -21 -2
-44 2 -52 8 -18 15 -127 63 -144 63 -8 0 -14 -6 -14 -12z"/>
<path d="M730 700 l0 -50 -54 0 -55 0 -8 41 c-11 53 -27 54 -31 2 -3 -47 -9
-50 -87 -55 -28 -2 -40 -8 -40 -18 0 -10 9 -14 30 -13 17 1 124 5 239 10 153
6 210 11 214 21 3 9 -19 12 -88 12 l-91 0 2 28 c4 51 -1 72 -16 72 -11 0 -15
-12 -15 -50z"/>
<path d="M767 554 c-4 -4 -7 -16 -7 -27 0 -11 -19 -53 -41 -94 -29 -53 -38
-78 -31 -85 8 -8 16 -2 29 22 10 17 25 42 34 53 l16 21 33 -27 c36 -31 92 -57
121 -57 30 0 22 27 -9 33 -15 3 -50 21 -77 39 -40 27 -49 38 -47 58 1 14 4 34
5 44 2 19 -14 32 -26 20z"/>
<path d="M504 538 c-14 -22 12 -30 73 -25 l65 6 -7 -88 c-4 -57 -3 -91 3 -95
17 -10 23 10 29 103 5 69 3 90 -8 97 -17 11 -149 12 -155 2z"/>
<path d="M193 3 c9 -2 25 -2 35 0 9 3 1 5 -18 5 -19 0 -27 -2 -17 -5z"/>
<path d="M558 3 c18 -2 45 -2 60 0 15 2 0 4 -33 4 -33 0 -45 -2 -27 -4z"/>
</g>
</svg>
