<?xml version="1.0" standalone="no"?>
<!DOCTYPE svg PUBLIC "-//W3C//DTD SVG 20010904//EN"
 "http://www.w3.org/TR/2001/REC-SVG-20010904/DTD/svg10.dtd">
<svg version="1.0" xmlns="http://www.w3.org/2000/svg"
 width="135.000000pt" height="135.000000pt" viewBox="0 0 135.000000 135.000000"
 preserveAspectRatio="xMidYMid meet">
<metadata>
Created by potrace 1.16, written by Peter Selinger 2001-2019
</metadata>
<g transform="translate(0.000000,135.000000) scale(0.100000,-0.100000)"
fill="#000000" stroke="none">
<path d="M705 1064 c-63 -14 -209 -34 -257 -34 -41 0 -60 -25 -25 -34 12 -3
63 1 112 9 146 23 169 25 159 15 -24 -23 -223 -164 -251 -178 -35 -17 -51 -42
-27 -42 21 0 69 26 132 71 l53 38 52 -16 c29 -8 59 -19 68 -23 24 -13 153 -29
163 -20 17 16 -5 27 -62 33 -33 2 -87 15 -122 28 l-63 23 24 18 c79 62 109 91
109 103 0 21 -10 22 -65 9z"/>
<path d="M835 729 c-261 -22 -470 -41 -474 -45 -3 -2 0 -9 6 -15 9 -9 63 -7
205 5 106 10 236 20 288 24 72 5 95 10 95 21 0 19 -4 19 -120 10z"/>
<path d="M574 580 c-39 -4 -81 -11 -93 -15 -26 -8 -22 -31 5 -28 115 15 276
25 306 19 35 -6 36 -9 43 -57 4 -28 5 -52 4 -54 -2 -2 -69 -6 -148 -9 -79 -3
-149 -10 -154 -15 -17 -17 31 -22 173 -19 l135 3 -3 -51 c-4 -55 7 -74 29 -48
10 12 10 39 2 132 -14 148 -18 153 -142 151 -47 -1 -118 -5 -157 -9z"/>
</g>
</svg>
