<?xml version="1.0" standalone="no"?>
<!DOCTYPE svg PUBLIC "-//W3C//DTD SVG 20010904//EN"
 "http://www.w3.org/TR/2001/REC-SVG-20010904/DTD/svg10.dtd">
<svg version="1.0" xmlns="http://www.w3.org/2000/svg"
 width="135.000000pt" height="135.000000pt" viewBox="0 0 135.000000 135.000000"
 preserveAspectRatio="xMidYMid meet">
<metadata>
Created by potrace 1.16, written by Peter Selinger 2001-2019
</metadata>
<g transform="translate(0.000000,135.000000) scale(0.100000,-0.100000)"
fill="#000000" stroke="none">
<path d="M1340 1170 l0 -180 -25 0 c-14 0 -25 -4 -25 -10 0 -5 11 -10 25 -10
25 0 25 -1 25 -90 0 -83 -1 -90 -20 -90 -11 0 -20 -4 -20 -10 0 -5 9 -10 20
-10 19 0 20 -7 20 -160 l0 -160 -25 0 c-14 0 -25 -4 -25 -10 0 -5 11 -10 25
-10 l25 0 0 -109 c0 -106 -1 -110 -22 -114 l-23 -4 23 -2 c21 -1 22 -5 22 -81
l0 -80 -670 0 c-440 0 -670 -3 -670 -10 0 -7 230 -10 669 -10 526 0 670 -3
674 -12 3 -7 6 292 6 665 1 372 -1 677 -4 677 -3 0 -5 -81 -5 -180z"/>
<path d="M850 1006 c0 -80 3 -76 -73 -96 l-28 -8 7 69 c6 59 4 69 -9 69 -23 0
-27 -21 -29 -161 l-3 -126 -86 -12 c-47 -6 -91 -11 -97 -11 -8 0 -10 19 -5 60
5 49 3 60 -9 60 -11 0 -17 -19 -24 -67 l-9 -67 -38 -9 c-38 -9 -47 -33 -11
-31 19 1 167 29 236 43 22 5 40 5 46 -1 21 -21 32 5 32 77 0 73 0 75 28 80 15
4 35 11 45 16 18 10 19 5 15 -92 -2 -71 0 -103 9 -106 6 -2 13 0 16 4 2 4 8
92 11 196 7 166 6 187 -8 187 -13 0 -16 -13 -16 -74z"/>
<path d="M496 1016 c-33 -6 -61 -17 -64 -25 -4 -12 6 -13 54 -8 33 4 70 10 83
13 l24 7 -5 -91 c-2 -51 -1 -92 3 -92 22 0 30 34 27 117 l-3 88 -30 1 c-16 1
-57 -3 -89 -10z"/>
<path d="M0 980 c0 -5 13 -10 30 -10 17 0 30 5 30 10 0 6 -13 10 -30 10 -17 0
-30 -4 -30 -10z"/>
<path d="M0 780 c0 -5 11 -10 25 -10 14 0 25 5 25 10 0 6 -11 10 -25 10 -14 0
-25 -4 -25 -10z"/>
<path d="M526 631 c-22 -3 -42 -12 -44 -20 -4 -12 9 -13 72 -8 60 5 78 4 82
-7 8 -21 -25 -137 -47 -164 -20 -26 -25 -52 -10 -52 42 0 107 183 83 235 -10
21 -18 25 -54 24 -24 -1 -61 -5 -82 -8z"/>
<path d="M777 633 c-2 -4 -10 -26 -17 -48 -7 -22 -28 -66 -46 -98 -19 -32 -34
-64 -34 -72 0 -25 26 -6 49 35 12 22 25 40 27 40 3 0 20 -11 38 -25 63 -48
171 -77 171 -45 0 9 -15 17 -43 22 -46 8 -97 35 -127 67 -16 19 -16 25 -5 66
9 32 10 49 3 56 -6 6 -13 7 -16 2z"/>
<path d="M0 440 c0 -5 13 -10 30 -10 17 0 30 5 30 10 0 6 -13 10 -30 10 -17 0
-30 -4 -30 -10z"/>
<path d="M13 203 c9 -2 23 -2 30 0 6 3 -1 5 -18 5 -17 0 -22 -2 -12 -5z"/>
</g>
</svg>
