<?xml version="1.0" standalone="no"?>
<!DOCTYPE svg PUBLIC "-//W3C//DTD SVG 20010904//EN"
 "http://www.w3.org/TR/2001/REC-SVG-20010904/DTD/svg10.dtd">
<svg version="1.0" xmlns="http://www.w3.org/2000/svg"
 width="135.000000pt" height="135.000000pt" viewBox="0 0 135.000000 135.000000"
 preserveAspectRatio="xMidYMid meet">
<metadata>
Created by potrace 1.16, written by Peter Selinger 2001-2019
</metadata>
<g transform="translate(0.000000,135.000000) scale(0.100000,-0.100000)"
fill="#000000" stroke="none">
<path d="M1340 1170 l0 -180 -25 0 c-14 0 -25 -4 -25 -10 0 -5 11 -10 25 -10
25 0 25 -1 25 -90 0 -83 -1 -90 -20 -90 -11 0 -20 -4 -20 -10 0 -5 9 -10 20
-10 19 0 20 -7 20 -160 l0 -160 -25 0 c-14 0 -25 -4 -25 -10 0 -5 11 -10 25
-10 l25 0 0 -105 c0 -98 -1 -105 -20 -105 -11 0 -20 -4 -20 -10 0 -5 9 -10 20
-10 18 0 20 -7 20 -75 l0 -75 -670 0 c-440 0 -670 -3 -670 -10 0 -7 230 -10
669 -10 629 0 670 -1 674 -17 3 -10 5 287 6 660 0 372 -1 677 -4 677 -3 0 -5
-81 -5 -180z"/>
<path d="M794 1079 c3 -17 6 -119 6 -226 0 -151 3 -194 13 -191 8 3 13 36 15
109 l3 104 54 -3 c46 -3 55 -1 55 13 0 14 -9 16 -55 13 l-55 -3 0 85 c0 100
-7 130 -27 130 -12 0 -14 -7 -9 -31z"/>
<path d="M487 1071 c-100 -9 -78 -26 33 -26 l95 0 0 -40 0 -40 -95 -5 -95 -5
-3 -62 c-2 -52 0 -65 18 -83 18 -18 29 -20 61 -15 39 7 39 7 39 -27 0 -49 -10
-57 -75 -60 -42 -2 -60 -7 -60 -17 0 -10 29 -13 145 -12 159 2 190 6 190 27 0
11 -17 13 -88 8 l-87 -7 3 45 c4 42 6 45 40 54 24 6 38 16 40 28 3 16 0 18
-19 12 -13 -4 -55 -11 -92 -15 -79 -8 -87 -1 -80 62 l5 37 78 0 c43 0 85 3 94
6 22 9 22 106 0 128 -16 16 -27 17 -147 7z"/>
<path d="M0 980 c0 -5 13 -10 30 -10 17 0 30 5 30 10 0 6 -13 10 -30 10 -17 0
-30 -4 -30 -10z"/>
<path d="M0 780 c0 -5 11 -10 25 -10 14 0 25 5 25 10 0 6 -11 10 -25 10 -14 0
-25 -4 -25 -10z"/>
<path d="M613 562 c-74 -2 -93 -6 -93 -17 0 -8 5 -15 10 -15 6 0 10 -28 10
-63 0 -96 -2 -95 183 -89 128 4 157 7 157 19 0 12 -24 14 -150 11 -169 -3
-164 -6 -154 73 l7 49 112 0 c118 0 145 4 145 24 0 12 -54 14 -227 8z"/>
<path d="M0 440 c0 -5 13 -10 30 -10 17 0 30 5 30 10 0 6 -13 10 -30 10 -17 0
-30 -4 -30 -10z"/>
<path d="M0 210 c0 -5 11 -10 25 -10 14 0 25 5 25 10 0 6 -11 10 -25 10 -14 0
-25 -4 -25 -10z"/>
</g>
</svg>
