<?xml version="1.0" standalone="no"?>
<!DOCTYPE svg PUBLIC "-//W3C//DTD SVG 20010904//EN"
 "http://www.w3.org/TR/2001/REC-SVG-20010904/DTD/svg10.dtd">
<svg version="1.0" xmlns="http://www.w3.org/2000/svg"
 width="135.000000pt" height="135.000000pt" viewBox="0 0 135.000000 135.000000"
 preserveAspectRatio="xMidYMid meet">
<metadata>
Created by potrace 1.16, written by Peter Selinger 2001-2019
</metadata>
<g transform="translate(0.000000,135.000000) scale(0.100000,-0.100000)"
fill="#000000" stroke="none">
<path d="M0 705 l0 -645 675 0 c593 0 675 2 675 15 0 13 -81 15 -665 15 l-665
0 0 630 c0 413 -3 630 -10 630 -7 0 -10 -222 -10 -645z"/>
<path d="M907 1223 c-7 -30 -7 -323 1 -411 4 -47 11 -81 17 -80 15 4 14 508
-2 508 -6 0 -14 -8 -16 -17z"/>
<path d="M526 1211 c-11 -17 29 -28 160 -45 74 -9 122 -12 128 -6 16 16 1 21
-111 36 -59 8 -122 17 -139 20 -19 3 -35 1 -38 -5z"/>
<path d="M745 1100 c-38 -4 -97 -13 -129 -19 -33 -6 -79 -11 -102 -11 -39 0
-72 -19 -57 -33 3 -4 22 -5 42 -2 20 2 88 11 151 20 63 8 133 16 155 18 28 1
40 7 40 17 0 18 -12 19 -100 10z"/>
<path d="M564 965 c-16 -21 -28 -53 -32 -80 -4 -40 -1 -47 26 -73 48 -45 115
-50 184 -15 57 28 67 112 19 165 -26 30 -34 32 -99 35 -71 3 -71 3 -98 -32z
m155 -10 c31 -16 41 -33 41 -73 0 -50 -33 -72 -107 -72 -56 0 -93 25 -93 63 0
37 36 85 67 90 53 8 64 7 92 -8z"/>
<path d="M845 669 c-11 -17 2 -22 63 -24 32 -1 63 -4 69 -8 14 -9 37 19 28 33
-8 13 -152 13 -160 -1z"/>
<path d="M597 663 c-3 -4 -4 -57 -2 -118 3 -99 5 -111 25 -127 15 -12 30 -16
44 -12 12 4 53 8 91 9 51 2 70 6 70 16 0 11 -21 14 -95 14 l-95 0 -6 103 c-6
93 -18 138 -32 115z"/>
<path d="M891 607 c-30 -7 -57 -18 -59 -26 -4 -12 6 -13 54 -6 33 4 71 9 85
10 57 4 62 36 6 34 -18 0 -56 -6 -86 -12z"/>
<path d="M925 538 c-67 -37 -82 -82 -40 -123 37 -38 95 -35 129 6 31 37 35 88
8 112 -21 19 -67 22 -97 5z m83 -46 c9 -58 -63 -96 -102 -53 -20 22 -14 41 22
64 38 24 76 18 80 -11z"/>
</g>
</svg>
