<?xml version="1.0" standalone="no"?>
<!DOCTYPE svg PUBLIC "-//W3C//DTD SVG 20010904//EN"
 "http://www.w3.org/TR/2001/REC-SVG-20010904/DTD/svg10.dtd">
<svg version="1.0" xmlns="http://www.w3.org/2000/svg"
 width="135.000000pt" height="135.000000pt" viewBox="0 0 135.000000 135.000000"
 preserveAspectRatio="xMidYMid meet">
<metadata>
Created by potrace 1.16, written by Peter Selinger 2001-2019
</metadata>
<g transform="translate(0.000000,135.000000) scale(0.100000,-0.100000)"
fill="#000000" stroke="none">
<path d="M4 675 c-1 -374 1 -665 3 -647 l4 32 664 0 664 0 4 -32 c2 -18 4 273
3 647 0 374 -2 605 -3 513 l-3 -168 -25 0 c-14 0 -25 -4 -25 -10 0 -5 11 -10
25 -10 25 0 25 -1 25 -89 0 -85 -1 -90 -22 -94 l-23 -4 23 -8 c22 -7 22 -10
22 -166 l0 -159 -25 0 c-14 0 -25 -4 -25 -10 0 -5 11 -10 25 -10 l25 0 0 -104
c0 -99 -1 -104 -22 -111 l-23 -8 23 -4 c21 -4 22 -9 22 -84 l0 -79 -665 0
-665 0 0 80 c0 73 2 80 20 80 11 0 20 5 20 10 0 6 -9 10 -20 10 -19 0 -20 7
-20 105 0 105 0 105 24 105 14 0 28 5 31 10 4 6 -7 10 -24 10 l-31 0 0 160 c0
153 1 160 20 160 11 0 20 5 20 10 0 6 -9 10 -20 10 -19 0 -20 7 -20 90 0 89 0
90 24 90 14 0 28 5 31 10 4 6 -6 10 -24 10 l-31 0 -3 168 c-1 92 -3 -139 -3
-513z"/>
<path d="M888 1265 c-2 -3 -67 -7 -144 -10 -167 -7 -325 -26 -324 -40 0 -6 29
-9 70 -7 l70 2 0 -76 c0 -79 11 -114 35 -114 18 0 18 5 5 30 -6 11 -7 50 -3
94 l6 76 58 0 58 0 5 -42 c6 -40 14 -157 12 -159 -9 -6 -228 -26 -247 -22 -16
3 -30 -1 -38 -11 -22 -26 9 -30 137 -17 64 6 159 14 210 17 67 5 92 10 92 20
0 10 -17 14 -62 14 l-63 0 0 38 c-1 20 -3 64 -5 97 -4 56 -2 60 21 66 13 4 47
7 75 8 35 1 54 6 57 15 8 20 -11 35 -25 21z"/>
<path d="M656 935 c-3 -9 -6 -38 -6 -65 l0 -48 -87 -7 c-99 -8 -142 -20 -126
-36 7 -7 37 -7 94 0 46 6 162 15 258 21 96 6 178 13 183 16 5 3 5 10 2 16 -6
10 -237 3 -277 -9 -17 -4 -19 1 -15 58 2 40 -1 64 -8 66 -6 2 -14 -3 -18 -12z"/>
<path d="M806 678 c-3 -18 -24 -73 -46 -123 -22 -49 -40 -97 -40 -107 0 -30
19 -20 35 17 8 19 22 51 31 71 15 35 16 35 37 19 28 -20 181 -95 196 -95 6 0
11 6 11 13 0 7 -38 30 -84 51 -46 20 -94 48 -106 61 -20 21 -21 28 -11 56 15
43 14 69 -3 69 -8 0 -17 -14 -20 -32z"/>
<path d="M533 673 c-40 -3 -53 -8 -53 -20 0 -14 12 -15 95 -9 l95 7 2 -88 c1
-48 1 -98 0 -111 -1 -17 4 -22 16 -20 15 3 17 16 13 113 -2 61 -8 116 -13 123
-10 12 -40 13 -155 5z"/>
</g>
</svg>
