<?xml version="1.0" standalone="no"?>
<!DOCTYPE svg PUBLIC "-//W3C//DTD SVG 20010904//EN"
 "http://www.w3.org/TR/2001/REC-SVG-20010904/DTD/svg10.dtd">
<svg version="1.0" xmlns="http://www.w3.org/2000/svg"
 width="135.000000pt" height="135.000000pt" viewBox="0 0 135.000000 135.000000"
 preserveAspectRatio="xMidYMid meet">
<metadata>
Created by potrace 1.16, written by Peter Selinger 2001-2019
</metadata>
<g transform="translate(0.000000,135.000000) scale(0.100000,-0.100000)"
fill="#000000" stroke="none">
<path d="M0 675 c0 -443 3 -675 10 -675 6 0 10 16 10 35 l0 35 668 3 667 2
-667 3 -668 2 0 75 c0 68 2 75 20 75 11 0 20 5 20 10 0 6 -9 10 -20 10 -19 0
-20 7 -20 109 l0 110 28 4 27 4 -27 2 -28 1 0 164 c0 163 0 165 23 169 l22 4
-22 2 c-22 1 -23 5 -23 95 l0 95 28 4 27 4 -27 2 -28 1 0 165 c0 103 -4 165
-10 165 -7 0 -10 -232 -10 -675z"/>
<path d="M376 1241 c-9 -14 71 -51 109 -51 19 0 53 -7 75 -16 23 -9 43 -14 46
-11 19 19 -57 57 -115 57 -20 0 -45 7 -55 15 -22 17 -52 20 -60 6z"/>
<path d="M865 1230 c-8 -12 3 -509 11 -521 25 -41 30 78 17 379 -6 141 -11
169 -28 142z"/>
<path d="M679 1146 c-2 -2 -85 -9 -184 -16 -99 -7 -187 -16 -195 -20 -34 -19
28 -23 188 -11 91 6 167 10 169 7 5 -5 -81 -67 -234 -169 -85 -57 -113 -87
-80 -87 8 0 60 32 116 70 l102 70 43 -25 c60 -35 158 -67 169 -56 14 14 1 28
-35 35 -40 8 -138 54 -138 66 0 4 25 27 55 50 40 31 55 49 53 63 -3 19 -19 32
-29 23z"/>
<path d="M1313 1013 c9 -2 23 -2 30 0 6 3 -1 5 -18 5 -16 0 -22 -2 -12 -5z"/>
<path d="M697 824 c-4 -4 -86 -10 -182 -13 -229 -8 -233 -26 -5 -25 183 1 325
14 325 29 0 11 -127 19 -138 9z"/>
<path d="M1318 813 c6 -2 18 -2 25 0 6 3 1 5 -13 5 -14 0 -19 -2 -12 -5z"/>
<path d="M770 634 c-6 -14 -10 -29 -10 -33 0 -4 -16 -46 -35 -94 -19 -48 -35
-96 -35 -107 0 -38 25 -9 49 55 25 72 24 72 95 16 49 -40 142 -85 156 -76 16
10 5 20 -62 54 -35 18 -82 50 -106 70 l-42 37 15 49 c8 28 15 51 15 53 0 1 -7
2 -15 2 -9 0 -20 -12 -25 -26z"/>
<path d="M437 623 c-10 -3 -16 -10 -14 -16 3 -8 32 -11 95 -8 l91 3 3 -118 c2
-83 7 -119 16 -122 17 -5 17 239 0 256 -12 12 -151 15 -191 5z"/>
<path d="M1313 473 c9 -2 23 -2 30 0 6 3 -1 5 -18 5 -16 0 -22 -2 -12 -5z"/>
<path d="M1310 240 c0 -5 9 -10 20 -10 11 0 20 5 20 10 0 6 -9 10 -20 10 -11
0 -20 -4 -20 -10z"/>
</g>
</svg>
