<?xml version="1.0" standalone="no"?>
<!DOCTYPE svg PUBLIC "-//W3C//DTD SVG 20010904//EN"
 "http://www.w3.org/TR/2001/REC-SVG-20010904/DTD/svg10.dtd">
<svg version="1.0" xmlns="http://www.w3.org/2000/svg"
 width="135.000000pt" height="135.000000pt" viewBox="0 0 135.000000 135.000000"
 preserveAspectRatio="xMidYMid meet">
<metadata>
Created by potrace 1.16, written by Peter Selinger 2001-2019
</metadata>
<g transform="translate(0.000000,135.000000) scale(0.100000,-0.100000)"
fill="#000000" stroke="none">
<path d="M0 705 l0 -645 675 0 c593 0 675 2 675 15 0 13 -81 15 -665 15 l-665
0 0 630 c0 413 -3 630 -10 630 -7 0 -10 -222 -10 -645z"/>
<path d="M832 1187 c-13 -16 -7 -160 12 -272 8 -49 20 -180 27 -290 6 -110 16
-204 20 -209 23 -26 26 18 14 174 -8 91 -14 189 -15 218 l0 53 48 -1 c26 0 81
1 122 3 59 4 76 8 78 21 3 16 -10 20 -54 17 -11 -1 -61 -5 -111 -9 l-90 -7
-12 61 c-6 34 -11 102 -11 152 0 89 -8 114 -28 89z"/>
<path d="M472 1061 c-5 -3 -23 -33 -41 -66 -27 -53 -31 -69 -31 -143 0 -62 5
-92 19 -120 48 -93 123 -121 215 -79 67 31 87 65 94 158 7 102 -22 170 -95
226 -29 22 -47 28 -94 29 -32 0 -62 -2 -67 -5z m140 -46 c23 -15 47 -45 64
-80 23 -48 26 -64 21 -120 -6 -78 -25 -111 -79 -135 -108 -48 -188 25 -188
169 0 78 31 161 60 161 9 0 20 4 26 9 8 8 20 12 54 20 3 0 22 -10 42 -24z"/>
</g>
</svg>
