<?xml version="1.0" standalone="no"?>
<!DOCTYPE svg PUBLIC "-//W3C//DTD SVG 20010904//EN"
 "http://www.w3.org/TR/2001/REC-SVG-20010904/DTD/svg10.dtd">
<svg version="1.0" xmlns="http://www.w3.org/2000/svg"
 width="135.000000pt" height="135.000000pt" viewBox="0 0 135.000000 135.000000"
 preserveAspectRatio="xMidYMid meet">
<metadata>
Created by potrace 1.16, written by Peter Selinger 2001-2019
</metadata>
<g transform="translate(0.000000,135.000000) scale(0.100000,-0.100000)"
fill="#000000" stroke="none">
<path d="M0 675 c0 -443 3 -675 10 -675 6 0 10 16 10 35 l0 35 668 3 667 2
-667 3 -668 2 0 74 c0 68 2 74 23 81 l22 8 -22 4 c-22 4 -23 8 -23 113 l0 109
28 4 27 4 -27 2 -28 1 0 164 c0 163 0 165 23 169 l22 4 -22 2 c-22 1 -23 5
-23 95 l0 95 28 4 27 4 -27 2 -28 1 0 165 c0 103 -4 165 -10 165 -7 0 -10
-232 -10 -675z"/>
<path d="M675 1209 c-33 -5 -96 -13 -140 -17 -45 -4 -79 -11 -77 -17 3 -12
107 -13 212 -2 l75 8 -31 -28 c-17 -15 -76 -64 -132 -108 -56 -44 -101 -84
-99 -89 7 -22 26 -13 90 40 l68 56 42 -20 c76 -36 137 -62 147 -62 6 0 10 6
10 13 0 12 -22 24 -140 74 l-35 15 30 21 c17 12 47 39 67 61 29 30 35 42 27
53 -13 14 -26 15 -114 2z"/>
<path d="M1303 1013 c9 -2 25 -2 35 0 9 3 1 5 -18 5 -19 0 -27 -2 -17 -5z"/>
<path d="M725 864 c-77 -7 -172 -13 -212 -13 -75 -1 -128 -14 -118 -30 3 -5
38 -7 80 -4 l74 6 3 -57 c4 -72 22 -73 26 -2 3 51 4 54 34 60 17 3 51 6 75 6
l45 0 -3 -67 c-3 -55 -1 -68 11 -68 11 0 16 17 20 70 l5 70 75 7 c87 9 104 14
95 28 -7 12 -25 11 -210 -6z"/>
<path d="M1313 813 c9 -2 23 -2 30 0 6 3 -1 5 -18 5 -16 0 -22 -2 -12 -5z"/>
<path d="M650 658 c-25 -4 -74 -10 -110 -13 -72 -7 -101 -18 -85 -34 6 -6 27
-6 55 -1 25 5 60 9 78 10 l34 0 -7 -94 c-5 -65 -4 -96 4 -100 15 -10 19 5 28
109 l8 90 74 7 c41 4 76 6 77 5 2 -2 6 -54 10 -115 5 -75 11 -111 18 -109 14
5 20 174 8 219 l-8 33 -70 0 c-38 0 -89 -3 -114 -7z"/>
<path d="M1303 473 c9 -2 25 -2 35 0 9 3 1 5 -18 5 -19 0 -27 -2 -17 -5z"/>
<path d="M1305 240 c3 -5 15 -10 26 -10 10 0 19 5 19 10 0 6 -12 10 -26 10
-14 0 -23 -4 -19 -10z"/>
</g>
</svg>
