<?xml version="1.0" standalone="no"?>
<!DOCTYPE svg PUBLIC "-//W3C//DTD SVG 20010904//EN"
 "http://www.w3.org/TR/2001/REC-SVG-20010904/DTD/svg10.dtd">
<svg version="1.0" xmlns="http://www.w3.org/2000/svg"
 width="135.000000pt" height="135.000000pt" viewBox="0 0 135.000000 135.000000"
 preserveAspectRatio="xMidYMid meet">
<metadata>
Created by potrace 1.16, written by Peter Selinger 2001-2019
</metadata>
<g transform="translate(0.000000,135.000000) scale(0.100000,-0.100000)"
fill="#000000" stroke="none">
<path d="M12 1190 c-5 -321 -3 -1182 2 -1188 4 -3 6 11 6 31 l0 37 668 3 667
2 -667 3 -668 2 0 75 c0 68 2 75 20 75 11 0 20 5 20 10 0 6 -9 10 -20 10 -19
0 -20 7 -20 109 l0 110 33 4 32 4 -32 1 -33 2 0 164 c0 163 0 165 23 169 l22
4 -22 2 c-22 1 -23 5 -23 95 l0 95 33 4 32 4 -32 1 -33 2 -3 168 -3 167 -2
-165z"/>
<path d="M435 1233 c-50 -4 -83 -20 -68 -33 4 -4 40 -4 78 1 39 4 100 8 136 8
73 1 79 -4 79 -60 l0 -29 -77 -1 c-120 -2 -196 -12 -201 -28 -4 -11 19 -12
133 -6 l138 8 -7 -36 c-4 -20 -2 -38 3 -42 17 -10 32 34 38 111 8 105 -2 115
-116 112 -47 -1 -108 -3 -136 -5z"/>
<path d="M796 1231 c-4 -6 -4 -88 0 -183 3 -95 7 -201 8 -235 2 -68 9 -84 24
-56 14 25 0 459 -15 474 -8 8 -13 8 -17 0z"/>
<path d="M1313 1013 c9 -2 23 -2 30 0 6 3 -1 5 -18 5 -16 0 -22 -2 -12 -5z"/>
<path d="M605 940 c-38 -4 -114 -8 -167 -9 -80 -1 -98 -4 -98 -16 0 -12 17
-15 95 -15 l95 0 1 -47 c2 -66 12 -106 27 -111 10 -3 13 14 10 79 l-3 84 72 5
c39 3 74 8 78 12 11 11 -4 28 -23 26 -9 0 -48 -4 -87 -8z"/>
<path d="M1318 813 c6 -2 18 -2 25 0 6 3 1 5 -13 5 -14 0 -19 -2 -12 -5z"/>
<path d="M572 669 c-114 -11 -142 -18 -142 -36 0 -12 7 -14 33 -9 17 4 65 9
105 13 l72 6 0 -35 0 -36 -68 -4 c-44 -2 -79 -10 -96 -21 -27 -18 -27 -20 -21
-85 10 -106 10 -105 59 -97 22 5 56 9 75 9 19 1 36 6 38 13 6 17 -51 26 -93
14 -21 -6 -39 -9 -40 -8 -1 1 -4 30 -6 64 -5 74 -5 73 102 82 l75 6 3 61 c2
44 -1 63 -10 66 -7 2 -46 1 -86 -3z"/>
<path d="M690 665 c0 -11 17 -15 73 -17 l72 -3 -3 -147 c-3 -124 -1 -148 11
-148 20 0 27 51 27 191 0 76 -4 119 -12 127 -7 7 -43 12 -90 12 -62 0 -78 -3
-78 -15z"/>
<path d="M1313 473 c9 -2 23 -2 30 0 6 3 -1 5 -18 5 -16 0 -22 -2 -12 -5z"/>
<path d="M1315 240 c3 -5 13 -10 21 -10 8 0 14 5 14 10 0 6 -9 10 -21 10 -11
0 -17 -4 -14 -10z"/>
</g>
</svg>
