<?xml version="1.0" standalone="no"?>
<!DOCTYPE svg PUBLIC "-//W3C//DTD SVG 20010904//EN"
 "http://www.w3.org/TR/2001/REC-SVG-20010904/DTD/svg10.dtd">
<svg version="1.0" xmlns="http://www.w3.org/2000/svg"
 width="135.000000pt" height="135.000000pt" viewBox="0 0 135.000000 135.000000"
 preserveAspectRatio="xMidYMid meet">
<metadata>
Created by potrace 1.16, written by Peter Selinger 2001-2019
</metadata>
<g transform="translate(0.000000,135.000000) scale(0.100000,-0.100000)"
fill="#000000" stroke="none">
<path d="M4 675 c-1 -374 1 -668 3 -652 l4 27 664 0 664 0 4 -27 c2 -16 4 278
3 652 0 374 -2 602 -3 508 l-3 -173 -25 0 c-14 0 -25 -4 -25 -10 0 -5 11 -10
25 -10 25 0 25 0 25 -94 0 -90 -1 -95 -22 -99 l-23 -4 23 -2 c22 -1 22 -2 22
-161 l0 -160 -25 0 c-14 0 -25 -4 -25 -10 0 -5 11 -10 25 -10 l25 0 0 -109 c0
-106 -1 -110 -22 -114 l-23 -4 23 -8 c20 -7 22 -13 22 -81 l0 -74 -665 0 -665
0 0 75 c0 68 2 75 20 75 11 0 20 5 20 10 0 6 -9 10 -20 10 -19 0 -20 7 -20
110 0 110 0 110 24 110 14 0 28 5 31 10 4 6 -7 10 -24 10 l-31 0 0 159 c0 158
0 160 23 164 l22 4 -22 2 c-22 1 -23 5 -23 96 0 94 0 95 24 95 14 0 28 5 31
10 4 6 -6 10 -24 10 l-31 0 -3 173 c-1 94 -3 -134 -3 -508z"/>
<path d="M855 1151 c-3 -7 -6 -49 -5 -94 0 -45 1 -143 1 -217 0 -141 7 -201
25 -207 7 -2 10 75 8 253 -3 236 -10 295 -29 265z"/>
<path d="M490 1113 c-118 -19 -123 -20 -114 -34 7 -11 39 -10 183 7 l54 7 -23
-33 c-13 -18 -63 -74 -112 -125 -48 -51 -88 -95 -88 -99 0 -24 43 6 106 73
l75 80 61 -40 c65 -41 73 -45 83 -30 3 6 -22 28 -55 51 -33 22 -60 45 -60 49
0 5 7 15 16 22 25 20 36 59 23 75 -13 16 -24 16 -149 -3z"/>
<path d="M542 810 c-166 -25 -217 -39 -200 -55 3 -4 52 1 109 9 115 17 118 16
119 -44 0 -42 15 -69 28 -55 6 6 7 33 3 62 -8 59 -11 57 74 68 58 7 81 18 71
34 -4 6 -10 10 -14 10 -4 -1 -89 -14 -190 -29z"/>
<path d="M827 563 c-10 -3 -84 -10 -165 -16 l-147 -12 3 -95 c3 -63 9 -103 19
-119 15 -23 18 -23 107 -17 50 4 150 15 221 24 101 13 130 20 130 32 0 17 -3
17 -130 1 -247 -31 -297 -34 -306 -20 -5 8 -8 48 -7 89 l3 75 130 11 c154 13
197 22 192 37 -4 13 -23 17 -50 10z"/>
</g>
</svg>
