<?xml version="1.0" standalone="no"?>
<!DOCTYPE svg PUBLIC "-//W3C//DTD SVG 20010904//EN"
 "http://www.w3.org/TR/2001/REC-SVG-20010904/DTD/svg10.dtd">
<svg version="1.0" xmlns="http://www.w3.org/2000/svg"
 width="135.000000pt" height="135.000000pt" viewBox="0 0 135.000000 135.000000"
 preserveAspectRatio="xMidYMid meet">
<metadata>
Created by potrace 1.16, written by Peter Selinger 2001-2019
</metadata>
<g transform="translate(0.000000,135.000000) scale(0.100000,-0.100000)"
fill="#000000" stroke="none">
<path d="M12 1185 c-5 -314 -3 -1177 3 -1183 3 -3 5 9 5 26 l0 32 668 3 667 2
-667 3 -668 2 0 80 c0 73 2 80 20 80 11 0 20 5 20 10 0 6 -9 10 -20 10 -19 0
-20 7 -20 105 0 105 0 105 24 105 14 0 28 5 31 10 4 6 -7 10 -24 10 l-31 0 0
160 c0 153 1 160 20 160 11 0 20 5 20 10 0 6 -9 10 -20 10 -19 0 -20 7 -20 90
0 89 0 90 24 90 14 0 28 5 31 10 4 6 -6 10 -24 10 l-31 0 -3 168 -3 167 -2
-170z"/>
<path d="M410 1241 c0 -19 53 -38 149 -55 115 -20 121 -20 121 -2 0 10 -16 17
-47 22 -42 6 -126 23 -200 41 -13 3 -23 1 -23 -6z"/>
<path d="M959 1189 c0 -8 0 -64 1 -125 1 -62 -2 -143 -5 -182 l-7 -70 -67 -6
c-127 -13 -151 -18 -151 -32 0 -17 46 -18 141 -3 38 7 72 9 76 5 4 -3 9 -25
12 -49 4 -28 11 -42 21 -42 10 0 14 8 12 25 -2 14 -3 124 -2 246 1 189 -1 222
-14 233 -13 11 -16 11 -17 0z"/>
<path d="M510 1113 c-140 -14 -168 -21 -157 -40 5 -8 354 21 385 32 6 2 12 9
12 15 0 13 -58 11 -240 -7z"/>
<path d="M522 1044 c-46 -20 -75 -86 -62 -136 12 -41 42 -58 106 -58 87 0 144
42 144 108 0 48 -14 67 -60 86 -49 19 -84 19 -128 0z m134 -39 c25 -16 31 -52
14 -85 -18 -34 -118 -53 -161 -30 -20 11 -26 63 -10 88 30 48 105 61 157 27z"/>
<path d="M1300 1010 c0 -5 11 -10 25 -10 14 0 25 5 25 10 0 6 -11 10 -25 10
-14 0 -25 -4 -25 -10z"/>
<path d="M760 856 c-3 -2 -59 -12 -125 -21 -217 -29 -281 -46 -240 -61 15 -6
71 1 172 22 21 4 22 0 25 -68 2 -57 6 -73 18 -73 12 0 14 13 12 72 l-4 72 39
6 c85 14 148 31 148 40 0 10 -37 19 -45 11z"/>
<path d="M1315 810 c3 -5 13 -10 21 -10 8 0 14 5 14 10 0 6 -9 10 -21 10 -11
0 -17 -4 -14 -10z"/>
<path d="M750 578 c-202 -13 -263 -21 -268 -37 -4 -11 14 -12 98 -6 l103 7 -6
-44 c-7 -53 0 -88 19 -88 11 0 14 16 14 65 0 61 1 65 23 65 12 0 39 3 59 6
l37 6 -4 -73 -4 -74 -68 -6 c-37 -4 -102 -7 -143 -8 -76 -1 -113 -13 -95 -29
13 -11 463 14 494 28 42 19 9 29 -69 20 -41 -4 -77 -6 -80 -3 -6 5 -4 132 2
138 2 2 32 8 68 12 35 5 65 13 68 21 4 14 -35 14 -248 0z"/>
<path d="M1300 470 c0 -5 11 -10 25 -10 14 0 25 5 25 10 0 6 -11 10 -25 10
-14 0 -25 -4 -25 -10z"/>
<path d="M1315 240 c-3 -5 3 -10 14 -10 12 0 21 5 21 10 0 6 -6 10 -14 10 -8
0 -18 -4 -21 -10z"/>
</g>
</svg>
