<?xml version="1.0" standalone="no"?>
<!DOCTYPE svg PUBLIC "-//W3C//DTD SVG 20010904//EN"
 "http://www.w3.org/TR/2001/REC-SVG-20010904/DTD/svg10.dtd">
<svg version="1.0" xmlns="http://www.w3.org/2000/svg"
 width="135.000000pt" height="135.000000pt" viewBox="0 0 135.000000 135.000000"
 preserveAspectRatio="xMidYMid meet">
<metadata>
Created by potrace 1.16, written by Peter Selinger 2001-2019
</metadata>
<g transform="translate(0.000000,135.000000) scale(0.100000,-0.100000)"
fill="#000000" stroke="none">
<path d="M0 675 c0 -443 3 -675 10 -675 6 0 10 5 10 10 0 7 228 10 665 10 437
0 665 3 665 10 0 7 -228 10 -665 10 l-665 0 0 79 c0 75 1 80 22 84 l23 4 -22
2 c-22 1 -23 4 -23 111 l0 110 25 0 c14 0 25 5 25 10 0 6 -11 10 -25 10 l-25
0 0 159 c0 158 0 160 23 164 l22 4 -23 8 c-21 7 -22 13 -22 96 0 88 0 89 25
89 14 0 25 5 25 10 0 6 -11 10 -25 10 l-25 0 0 180 c0 113 -4 180 -10 180 -7
0 -10 -232 -10 -675z"/>
<path d="M848 888 c3 -182 6 -203 22 -193 13 8 13 320 0 346 -6 10 -14 19 -18
19 -4 0 -6 -78 -4 -172z"/>
<path d="M708 1033 c-1 -4 -2 -81 0 -171 3 -147 5 -163 20 -160 13 3 17 14 17
51 0 39 3 47 18 47 28 0 77 29 77 45 0 19 -19 19 -44 0 -33 -25 -56 -19 -56
14 0 27 4 30 50 41 33 8 50 17 50 27 0 12 -8 14 -36 9 -19 -4 -42 -10 -49 -12
-11 -4 -15 8 -17 52 -2 32 -8 59 -15 61 -6 2 -13 0 -15 -4z"/>
<path d="M568 984 c-6 -6 -107 -22 -202 -33 l-59 -6 2 -98 c3 -142 22 -178 76
-143 15 10 64 21 113 27 50 6 93 16 101 24 22 22 9 26 -49 15 -29 -6 -55 -9
-56 -7 -6 6 -22 162 -18 169 3 4 18 8 33 8 41 0 91 20 91 36 0 14 -21 19 -32
8z m-124 -101 c4 -27 10 -65 14 -85 9 -36 8 -36 -26 -43 -19 -4 -45 -13 -57
-21 -21 -14 -23 -13 -29 8 -3 13 -6 55 -6 95 l0 72 43 9 c23 6 45 10 49 11 4
1 9 -20 12 -46z"/>
<path d="M1295 980 c-4 -6 7 -10 24 -10 17 0 31 5 31 10 0 6 -11 10 -24 10
-14 0 -28 -4 -31 -10z"/>
<path d="M1310 780 c0 -5 9 -10 20 -10 11 0 20 5 20 10 0 6 -9 10 -20 10 -11
0 -20 -4 -20 -10z"/>
<path d="M775 616 c-33 -13 -68 -27 -78 -30 -22 -7 -13 -26 13 -26 10 0 40 9
66 20 26 11 49 18 53 15 8 -8 -36 -129 -70 -194 -27 -51 -29 -71 -9 -71 6 0
24 28 41 63 17 34 33 64 35 66 3 3 19 -10 38 -28 35 -34 100 -62 123 -54 20 8
-2 29 -35 36 -15 3 -47 23 -71 44 l-43 38 18 63 c15 55 16 65 3 73 -18 11 -14
12 -84 -15z"/>
<path d="M493 575 c-3 -10 -1 -58 5 -109 13 -107 35 -136 101 -136 37 0 131
49 131 69 0 21 -18 18 -59 -10 -43 -28 -84 -36 -108 -21 -19 12 -30 51 -38
134 -7 77 -19 105 -32 73z"/>
<path d="M1295 440 c-4 -6 7 -10 24 -10 17 0 31 5 31 10 0 6 -11 10 -24 10
-14 0 -28 -4 -31 -10z"/>
<path d="M1318 203 c6 -2 18 -2 25 0 6 3 1 5 -13 5 -14 0 -19 -2 -12 -5z"/>
</g>
</svg>
